<mxfile host="app.diagrams.net" modified="2023-04-19T07:46:55.079Z" agent="Mozilla/5.0 (Windows NT 10.0; Win64; x64; rv:109.0) Gecko/20100101 Firefox/112.0" etag="HC7OgaGySOvkaNtD7McV" version="21.1.5" type="device">
  <diagram name="Seite-1" id="cFwAvGOOJWVGI_6GHmor">
    <mxGraphModel dx="1167" dy="593" grid="1" gridSize="10" guides="1" tooltips="1" connect="1" arrows="1" fold="1" page="1" pageScale="1" pageWidth="827" pageHeight="1169" math="0" shadow="0">
      <root>
        <mxCell id="0" />
        <mxCell id="1" parent="0" />
        <mxCell id="IN8d0VnAYBJhFlT8Tgrd-189" style="vsdxID=5;edgeStyle=none;startArrow=none;endArrow=block;startSize=5;endSize=7;strokeColor=#000000;spacingTop=0;spacingBottom=0;spacingLeft=0;spacingRight=0;verticalAlign=middle;html=1;labelBackgroundColor=#FFFFFF;rounded=0;" edge="1" parent="1">
          <mxGeometry x="-113.8" y="-965" relative="1" as="geometry">
            <mxPoint x="-113.8" y="-965" as="offset" />
            <mxPoint x="880" y="400" as="sourcePoint" />
            <mxPoint x="879.5" y="520" as="targetPoint" />
          </mxGeometry>
        </mxCell>
        <mxCell id="IN8d0VnAYBJhFlT8Tgrd-188" style="vsdxID=5;edgeStyle=none;startArrow=none;endArrow=block;startSize=5;endSize=7;strokeColor=#000000;spacingTop=0;spacingBottom=0;spacingLeft=0;spacingRight=0;verticalAlign=middle;html=1;labelBackgroundColor=#FFFFFF;rounded=0;exitX=0.492;exitY=1;exitDx=0;exitDy=0;exitPerimeter=0;" edge="1" parent="1" source="IN8d0VnAYBJhFlT8Tgrd-30">
          <mxGeometry x="-113.8" y="-965" relative="1" as="geometry">
            <mxPoint x="-113.8" y="-965" as="offset" />
            <mxPoint x="589.5" y="480" as="sourcePoint" />
            <mxPoint x="589.5" y="520" as="targetPoint" />
          </mxGeometry>
        </mxCell>
        <mxCell id="IN8d0VnAYBJhFlT8Tgrd-1" value="" style="group" vertex="1" connectable="0" parent="1">
          <mxGeometry x="360" y="160" width="160" height="120" as="geometry" />
        </mxCell>
        <mxCell id="IN8d0VnAYBJhFlT8Tgrd-2" value="&lt;div&gt;&lt;span style=&quot;white-space: pre;&quot;&gt;	&lt;/span&gt;Key Figures&lt;/div&gt;&lt;div&gt;&lt;span style=&quot;white-space: pre;&quot;&gt;	&lt;/span&gt;Time&lt;/div&gt;&lt;div&gt;&lt;span style=&quot;white-space: pre;&quot;&gt;	&lt;/span&gt;Products&lt;/div&gt;&lt;div&gt;&lt;span style=&quot;white-space: pre;&quot;&gt;	&lt;/span&gt;Customers&lt;br&gt;&lt;/div&gt;" style="verticalAlign=middle;align=left;vsdxID=6;fillColor=#FFFFFF;gradientColor=none;shape=stencil(vZLNEoIgEMefhqMOQk3j2ew9mERlInFWSn37YDZL1Dp06LYfv/34wxKedbVoJWG0s2AusleFrQk/EsZUU0tQ1lmE54RnpQFZgbk1Bfqt8KS3rubuOwxYl1Dqaxgd0UfvhKhWzQz9EUwDUsDZpeBJ7uMEWRindWKGkYkIer22HSIxqC4CY4VVpgnmagGVjNygqNSiClJdL2W7Cm+KSLcnf5KxW+s4BEKWD53+TcnXL3bG+zRKpTVe1jy/PCUXwjPk+QM=);strokeColor=#000000;labelBackgroundColor=none;rounded=0;html=1;whiteSpace=wrap;" vertex="1" parent="IN8d0VnAYBJhFlT8Tgrd-1">
          <mxGeometry y="45.148514851485146" width="160" height="74.85148514851485" as="geometry" />
        </mxCell>
        <mxCell id="IN8d0VnAYBJhFlT8Tgrd-3" value="&lt;div align=&quot;center&quot;&gt;&lt;span style=&quot;white-space: pre;&quot;&gt;	&lt;/span&gt;Purchasing Data&lt;/div&gt;" style="verticalAlign=middle;align=center;vsdxID=7;fillColor=#FFFFFF;gradientColor=none;shape=stencil(vZLBDoIwDIafZseRyQTCGfU9FhmwODfSTcG3d6QQQdEDB29t/69tuv2EF64RrSQxcx7sRXaq9A3hBxLHyjQSlA8R4UfCi8qCrMHeTIl5KwZyiK72PkzosY8NHTF7YLZjmJ8Q1crM0EncBqdRms1xAeegwojvowxVBlNDEuVYGZE8WQwcx/dU9MpRsF54Zc1C0wJqScMiWmlRLyTXSdl+lFcvWVu79YZvb/KHM37+XQheBqmU1uivuf5uqFBCM/LjEw==);strokeColor=#000000;spacingTop=-2;spacingBottom=-2;spacingLeft=-2;spacingRight=-2;labelBackgroundColor=none;rounded=0;html=1;whiteSpace=wrap;" vertex="1" parent="IN8d0VnAYBJhFlT8Tgrd-1">
          <mxGeometry width="160" height="45.148514851485146" as="geometry" />
        </mxCell>
        <mxCell id="IN8d0VnAYBJhFlT8Tgrd-4" style="vsdxID=8;fillColor=none;gradientColor=none;strokeColor=none;spacingTop=-3;spacingBottom=-3;spacingLeft=-3;spacingRight=-3;labelBackgroundColor=none;rounded=0;html=1;whiteSpace=wrap;" vertex="1" parent="IN8d0VnAYBJhFlT8Tgrd-1">
          <mxGeometry x="8.818897637795274" y="4.752475247524752" width="28.976377952755904" height="33.26732673267327" as="geometry" />
        </mxCell>
        <mxCell id="IN8d0VnAYBJhFlT8Tgrd-5" style="vsdxID=9;fillColor=#FFFFFF;gradientColor=none;shape=stencil(jZBNDoQgDIVP063BdsEBHOceJqI0w4BB5u/2A+lCZWHcvbZfm9cH1K12WAygWlMMD/PhMVmgGyCytyZyygqoB+qmEM0cw8uPUi9DIYt6hne58JW9Vqmyg+p3rO8CO/Y7+IhqbDRdhU+u1hZQN6iv45XjLLZfJ3ZOotrP62xyS3Kl/g8=);strokeColor=#000000;spacingTop=-3;spacingBottom=-3;spacingLeft=-3;spacingRight=-3;labelBackgroundColor=none;rounded=0;html=1;whiteSpace=wrap;" vertex="1" parent="IN8d0VnAYBJhFlT8Tgrd-4">
          <mxGeometry y="7.128712871287129" width="13.858267716535432" height="26.138613861386137" as="geometry" />
        </mxCell>
        <mxCell id="IN8d0VnAYBJhFlT8Tgrd-6" style="vsdxID=10;fillColor=#FFFFFF;gradientColor=none;shape=stencil(jZBNDoQgDIVP063BdsEBHOceJqI0w4BB5u/2A+lCZWHcvbZfm9cH1K12WAygWlMMD/PhMVmgGyCytyZyygqoB+qmEM0cw8uPUi9DIYt6hne58JW9Vqmyg+p3rO8CO/Y7+IhqbDRdhU+u1hZQN6iv45XjLLZfJ3ZOotrP62xyS3Kl/g8=);strokeColor=#000000;spacingTop=-3;spacingBottom=-3;spacingLeft=-3;spacingRight=-3;flipH=1;labelBackgroundColor=none;rounded=0;html=1;whiteSpace=wrap;" vertex="1" parent="IN8d0VnAYBJhFlT8Tgrd-4">
          <mxGeometry x="13.858267716535432" y="7.128712871287129" width="13.858267716535432" height="26.138613861386137" as="geometry" />
        </mxCell>
        <mxCell id="IN8d0VnAYBJhFlT8Tgrd-7" value="" style="verticalAlign=middle;align=center;vsdxID=11;fillColor=#C0C0C0;gradientColor=none;shape=stencil(nZBNCoQwDIVPk31t8ASO3kOw2mBtpVaduf20BPEHceHuveRLSB5gMel6VCDFFLzr1UpN0IAfkJKsVp5CVIAlYNE6rzrvZtuwH+tEJjW4JW348lwmRJqR4sc+Z1sxa8ge2PyMPpCvd27n3LLPt0axP9mSMZzRsX8NJZY4UCz/);strokeColor=#000000;spacingTop=-3;spacingBottom=-3;spacingLeft=-3;spacingRight=-3;labelBackgroundColor=none;rounded=0;html=1;whiteSpace=wrap;" vertex="1" parent="IN8d0VnAYBJhFlT8Tgrd-4">
          <mxGeometry width="28.976377952755904" height="14.257425742574258" as="geometry" />
        </mxCell>
        <mxCell id="IN8d0VnAYBJhFlT8Tgrd-8" value="" style="group" vertex="1" connectable="0" parent="1">
          <mxGeometry x="80" y="360" width="120" height="40" as="geometry" />
        </mxCell>
        <mxCell id="IN8d0VnAYBJhFlT8Tgrd-9" value="&lt;p style=&quot;align:left;margin-left:41;margin-right:0;margin-top:0px;margin-bottom:0px;text-indent:0;valign:middle;direction:ltr;&quot;&gt;&lt;/p&gt;" style="verticalAlign=middle;align=left;vsdxID=6;fillColor=#FFFFFF;gradientColor=none;shape=stencil(nZBLDoAgDERP0z3SIyjew0SURgSD+Lu9kMZoXLhwN9O+tukAlrNpJg1SzDH4QW/URgNYgZTkjA4UkwJUgGXng+6DX1zLfmoymdXo17xh5zmRJ6Q42BWCfc2oJfdAr+Yv+AP9Cb7OJ3H/2JG1HNGz/84klThPVCc=);strokeColor=#000000;spacingTop=1;spacingBottom=-1;spacingLeft=-1;spacingRight=-1;labelBackgroundColor=none;rounded=0;html=1;whiteSpace=wrap;" vertex="1" parent="IN8d0VnAYBJhFlT8Tgrd-8">
          <mxGeometry width="120" height="40" as="geometry" />
        </mxCell>
        <mxCell id="IN8d0VnAYBJhFlT8Tgrd-10" value="Key Figures" style="verticalAlign=middle;align=center;vsdxID=7;fillColor=#FFFFFF;gradientColor=none;shape=stencil(nZBLDsIwDERP420U2RJV1qXco1JTYhGSKg2/25PUi1ZFLGA3Hj9b9gC1s+snC6jnnOLFPnjIDugIiBycTZyLAuqA2jEme07xFgapp76SVV3jvW54ypwxCusQ6pcYqA7NYpwE9xw2OOn/YdMoou/0xyW/8vtjili/Htl7CW3b36dULEmYujc=);strokeColor=none;spacingTop=1;spacingBottom=-1;spacingLeft=-1;spacingRight=-1;labelBackgroundColor=none;rounded=0;html=1;whiteSpace=wrap;" vertex="1" parent="IN8d0VnAYBJhFlT8Tgrd-8">
          <mxGeometry width="120" height="40" as="geometry" />
        </mxCell>
        <mxCell id="IN8d0VnAYBJhFlT8Tgrd-11" style="vsdxID=12;fillColor=#000000;gradientColor=none;shape=stencil(UzV2Ls5ILEhVNTIoLinKz04tz0wpyVA1dlE1MsrMy0gtyiwBslSNXVWNndPyi1LTi/JL81Ig/IJEkEoQKze/DGRCBUSfAUiHkUElMs8NojAnMw9JoaEBqlJTPGpRVcJ0EqEURSGQgXB1WmZODsTTyPLovgQKQULI2BUA);strokeColor=#000000;labelBackgroundColor=none;rounded=0;html=1;whiteSpace=wrap;" vertex="1" parent="IN8d0VnAYBJhFlT8Tgrd-8">
          <mxGeometry x="26.456692913385826" y="10.526315789473683" width="1.889763779527559" height="4.2105263157894735" as="geometry" />
        </mxCell>
        <mxCell id="IN8d0VnAYBJhFlT8Tgrd-12" style="vsdxID=13;rotation=90;fillColor=#000000;gradientColor=none;shape=stencil(UzV2Ls5ILEhVNTIoLinKz04tz0wpyVA1dlE1MsrMy0gtyiwBslSNXVWNndPyi1LTi/JL81Ig/IJEkEoQKze/DGRCBUSfAUiHkUElMs8NojAnMw9JoaEBqlJTPGpRVcJ0EqEURSGQgXB1WmZODsTTyPLovgQKQULI2BUA);strokeColor=#000000;flipV=1;labelBackgroundColor=none;rounded=0;html=1;whiteSpace=wrap;" vertex="1" parent="IN8d0VnAYBJhFlT8Tgrd-8">
          <mxGeometry x="6.6141732283464565" y="28.421052631578945" width="1.889763779527559" height="5.263157894736842" as="geometry" />
        </mxCell>
        <mxCell id="IN8d0VnAYBJhFlT8Tgrd-13" style="vsdxID=14;rotation=330;fillColor=#000000;gradientColor=none;shape=stencil(UzV2Ls5ILEhVNTIoLinKz04tz0wpyVA1dlE1MsrMy0gtyiwBslSNXVWNndPyi1LTi/JL81Ig/IJEkEoQKze/DGRCBUSfAUiHkUElMs8NojAnMw9JoaEBqlJTPGpRVcJ0EqEURSGQgXB1WmZODsTTyPLovgQKQULI2BUA);strokeColor=#000000;labelBackgroundColor=none;rounded=0;html=1;whiteSpace=wrap;" vertex="1" parent="IN8d0VnAYBJhFlT8Tgrd-8">
          <mxGeometry x="17.95275590551181" y="4.2105263157894735" width="1.889763779527559" height="4.2105263157894735" as="geometry" />
        </mxCell>
        <mxCell id="IN8d0VnAYBJhFlT8Tgrd-14" style="vsdxID=15;fillColor=#CCCCCC;gradientColor=none;shape=stencil(nZBLDoAgDERP0z3SIyjew0SURgSD+Lu9kMZoXLhwN9O+tukAlrNpJg1SzDH4QW/URgNYgZTkjA4UkwJUgGXng+6DX1zLfmoymdXo17xh5zmRJ6Q42BWCfc2oJfdAr+Yv+AP9Cb7OJ3H/2JG1HNGz/84klThPVCc=);strokeColor=#000000;labelBackgroundColor=none;rounded=0;html=1;whiteSpace=wrap;" vertex="1" parent="IN8d0VnAYBJhFlT8Tgrd-8">
          <mxGeometry x="7.559055118110236" y="12.631578947368421" width="10.393700787401574" height="9.473684210526315" as="geometry" />
        </mxCell>
        <mxCell id="IN8d0VnAYBJhFlT8Tgrd-15" style="vsdxID=9;edgeStyle=none;startArrow=none;endArrow=none;startSize=5;endSize=5;strokeColor=#000000;spacingTop=0;spacingBottom=0;spacingLeft=0;spacingRight=0;verticalAlign=middle;html=1;labelBackgroundColor=none;rounded=0;" edge="1" parent="IN8d0VnAYBJhFlT8Tgrd-8">
          <mxGeometry relative="1" as="geometry">
            <Array as="points" />
            <mxPoint x="7.559055118110236" y="12.631578947368421" as="sourcePoint" />
            <mxPoint x="7.559055118110236" y="32.63157894736842" as="targetPoint" />
          </mxGeometry>
        </mxCell>
        <mxCell id="IN8d0VnAYBJhFlT8Tgrd-16" style="vsdxID=10;edgeStyle=none;startArrow=none;endArrow=none;startSize=5;endSize=5;strokeColor=#000000;spacingTop=0;spacingBottom=0;spacingLeft=0;spacingRight=0;verticalAlign=middle;html=1;labelBackgroundColor=none;rounded=0;" edge="1" parent="IN8d0VnAYBJhFlT8Tgrd-8">
          <mxGeometry relative="1" as="geometry">
            <mxPoint as="offset" />
            <Array as="points" />
            <mxPoint x="7.559055118110236" y="12.631578947368421" as="sourcePoint" />
            <mxPoint x="29.291338582677167" y="12.631578947368421" as="targetPoint" />
          </mxGeometry>
        </mxCell>
        <mxCell id="IN8d0VnAYBJhFlT8Tgrd-17" style="vsdxID=11;edgeStyle=none;startArrow=none;endArrow=none;startSize=5;endSize=5;strokeColor=#000000;spacingTop=0;spacingBottom=0;spacingLeft=0;spacingRight=0;verticalAlign=middle;html=1;labelBackgroundColor=none;rounded=0;" edge="1" parent="IN8d0VnAYBJhFlT8Tgrd-8">
          <mxGeometry relative="1" as="geometry">
            <Array as="points" />
            <mxPoint x="7.559055118110236" y="12.631578947368421" as="sourcePoint" />
            <mxPoint x="18.89763779527559" y="7.368421052631579" as="targetPoint" />
          </mxGeometry>
        </mxCell>
        <mxCell id="IN8d0VnAYBJhFlT8Tgrd-18" value="" style="group" vertex="1" connectable="0" parent="1">
          <mxGeometry x="260" y="360" width="120" height="40" as="geometry" />
        </mxCell>
        <mxCell id="IN8d0VnAYBJhFlT8Tgrd-19" value="&lt;p style=&quot;align:left;margin-left:41;margin-right:0;margin-top:0px;margin-bottom:0px;text-indent:0;valign:middle;direction:ltr;&quot;&gt;&lt;/p&gt;" style="verticalAlign=middle;align=left;vsdxID=6;fillColor=#FFFFFF;gradientColor=none;shape=stencil(nZBLDoAgDERP0z3SIyjew0SURgSD+Lu9kMZoXLhwN9O+tukAlrNpJg1SzDH4QW/URgNYgZTkjA4UkwJUgGXng+6DX1zLfmoymdXo17xh5zmRJ6Q42BWCfc2oJfdAr+Yv+AP9Cb7OJ3H/2JG1HNGz/84klThPVCc=);strokeColor=#000000;spacingTop=1;spacingBottom=-1;spacingLeft=-1;spacingRight=-1;labelBackgroundColor=none;rounded=0;html=1;whiteSpace=wrap;" vertex="1" parent="IN8d0VnAYBJhFlT8Tgrd-18">
          <mxGeometry width="120" height="40" as="geometry" />
        </mxCell>
        <mxCell id="IN8d0VnAYBJhFlT8Tgrd-20" value="Time" style="verticalAlign=middle;align=center;vsdxID=7;fillColor=#FFFFFF;gradientColor=none;shape=stencil(nZBLDsIwDERP420U2RJV1qXco1JTYhGSKg2/25PUi1ZFLGA3Hj9b9gC1s+snC6jnnOLFPnjIDugIiBycTZyLAuqA2jEme07xFgapp76SVV3jvW54ypwxCusQ6pcYqA7NYpwE9xw2OOn/YdMoou/0xyW/8vtjili/Htl7CW3b36dULEmYujc=);strokeColor=none;spacingTop=1;spacingBottom=-1;spacingLeft=-1;spacingRight=-1;labelBackgroundColor=none;rounded=0;html=1;whiteSpace=wrap;" vertex="1" parent="IN8d0VnAYBJhFlT8Tgrd-18">
          <mxGeometry width="120" height="40" as="geometry" />
        </mxCell>
        <mxCell id="IN8d0VnAYBJhFlT8Tgrd-21" style="vsdxID=12;fillColor=#000000;gradientColor=none;shape=stencil(UzV2Ls5ILEhVNTIoLinKz04tz0wpyVA1dlE1MsrMy0gtyiwBslSNXVWNndPyi1LTi/JL81Ig/IJEkEoQKze/DGRCBUSfAUiHkUElMs8NojAnMw9JoaEBqlJTPGpRVcJ0EqEURSGQgXB1WmZODsTTyPLovgQKQULI2BUA);strokeColor=#000000;labelBackgroundColor=none;rounded=0;html=1;whiteSpace=wrap;" vertex="1" parent="IN8d0VnAYBJhFlT8Tgrd-18">
          <mxGeometry x="26.456692913385826" y="10.526315789473683" width="1.889763779527559" height="4.2105263157894735" as="geometry" />
        </mxCell>
        <mxCell id="IN8d0VnAYBJhFlT8Tgrd-22" style="vsdxID=13;rotation=90;fillColor=#000000;gradientColor=none;shape=stencil(UzV2Ls5ILEhVNTIoLinKz04tz0wpyVA1dlE1MsrMy0gtyiwBslSNXVWNndPyi1LTi/JL81Ig/IJEkEoQKze/DGRCBUSfAUiHkUElMs8NojAnMw9JoaEBqlJTPGpRVcJ0EqEURSGQgXB1WmZODsTTyPLovgQKQULI2BUA);strokeColor=#000000;flipV=1;labelBackgroundColor=none;rounded=0;html=1;whiteSpace=wrap;" vertex="1" parent="IN8d0VnAYBJhFlT8Tgrd-18">
          <mxGeometry x="6.6141732283464565" y="28.421052631578945" width="1.889763779527559" height="5.263157894736842" as="geometry" />
        </mxCell>
        <mxCell id="IN8d0VnAYBJhFlT8Tgrd-23" style="vsdxID=14;rotation=330;fillColor=#000000;gradientColor=none;shape=stencil(UzV2Ls5ILEhVNTIoLinKz04tz0wpyVA1dlE1MsrMy0gtyiwBslSNXVWNndPyi1LTi/JL81Ig/IJEkEoQKze/DGRCBUSfAUiHkUElMs8NojAnMw9JoaEBqlJTPGpRVcJ0EqEURSGQgXB1WmZODsTTyPLovgQKQULI2BUA);strokeColor=#000000;labelBackgroundColor=none;rounded=0;html=1;whiteSpace=wrap;" vertex="1" parent="IN8d0VnAYBJhFlT8Tgrd-18">
          <mxGeometry x="17.95275590551181" y="4.2105263157894735" width="1.889763779527559" height="4.2105263157894735" as="geometry" />
        </mxCell>
        <mxCell id="IN8d0VnAYBJhFlT8Tgrd-24" style="vsdxID=15;fillColor=#CCCCCC;gradientColor=none;shape=stencil(nZBLDoAgDERP0z3SIyjew0SURgSD+Lu9kMZoXLhwN9O+tukAlrNpJg1SzDH4QW/URgNYgZTkjA4UkwJUgGXng+6DX1zLfmoymdXo17xh5zmRJ6Q42BWCfc2oJfdAr+Yv+AP9Cb7OJ3H/2JG1HNGz/84klThPVCc=);strokeColor=#000000;labelBackgroundColor=none;rounded=0;html=1;whiteSpace=wrap;" vertex="1" parent="IN8d0VnAYBJhFlT8Tgrd-18">
          <mxGeometry x="7.559055118110236" y="12.631578947368421" width="10.393700787401574" height="9.473684210526315" as="geometry" />
        </mxCell>
        <mxCell id="IN8d0VnAYBJhFlT8Tgrd-25" style="vsdxID=9;edgeStyle=none;startArrow=none;endArrow=none;startSize=5;endSize=5;strokeColor=#000000;spacingTop=0;spacingBottom=0;spacingLeft=0;spacingRight=0;verticalAlign=middle;html=1;labelBackgroundColor=none;rounded=0;" edge="1" parent="IN8d0VnAYBJhFlT8Tgrd-18">
          <mxGeometry relative="1" as="geometry">
            <Array as="points" />
            <mxPoint x="7.559055118110236" y="12.631578947368421" as="sourcePoint" />
            <mxPoint x="7.559055118110236" y="32.63157894736842" as="targetPoint" />
          </mxGeometry>
        </mxCell>
        <mxCell id="IN8d0VnAYBJhFlT8Tgrd-26" style="vsdxID=10;edgeStyle=none;startArrow=none;endArrow=none;startSize=5;endSize=5;strokeColor=#000000;spacingTop=0;spacingBottom=0;spacingLeft=0;spacingRight=0;verticalAlign=middle;html=1;labelBackgroundColor=none;rounded=0;" edge="1" parent="IN8d0VnAYBJhFlT8Tgrd-18">
          <mxGeometry relative="1" as="geometry">
            <mxPoint as="offset" />
            <Array as="points" />
            <mxPoint x="7.559055118110236" y="12.631578947368421" as="sourcePoint" />
            <mxPoint x="29.291338582677167" y="12.631578947368421" as="targetPoint" />
          </mxGeometry>
        </mxCell>
        <mxCell id="IN8d0VnAYBJhFlT8Tgrd-27" style="vsdxID=11;edgeStyle=none;startArrow=none;endArrow=none;startSize=5;endSize=5;strokeColor=#000000;spacingTop=0;spacingBottom=0;spacingLeft=0;spacingRight=0;verticalAlign=middle;html=1;labelBackgroundColor=none;rounded=0;" edge="1" parent="IN8d0VnAYBJhFlT8Tgrd-18">
          <mxGeometry relative="1" as="geometry">
            <Array as="points" />
            <mxPoint x="7.559055118110236" y="12.631578947368421" as="sourcePoint" />
            <mxPoint x="18.89763779527559" y="7.368421052631579" as="targetPoint" />
          </mxGeometry>
        </mxCell>
        <mxCell id="IN8d0VnAYBJhFlT8Tgrd-28" value="" style="group" vertex="1" connectable="0" parent="1">
          <mxGeometry x="530" y="360" width="120" height="40" as="geometry" />
        </mxCell>
        <mxCell id="IN8d0VnAYBJhFlT8Tgrd-29" value="&lt;p style=&quot;align:left;margin-left:41;margin-right:0;margin-top:0px;margin-bottom:0px;text-indent:0;valign:middle;direction:ltr;&quot;&gt;&lt;/p&gt;" style="verticalAlign=middle;align=left;vsdxID=6;fillColor=#FFFFFF;gradientColor=none;shape=stencil(nZBLDoAgDERP0z3SIyjew0SURgSD+Lu9kMZoXLhwN9O+tukAlrNpJg1SzDH4QW/URgNYgZTkjA4UkwJUgGXng+6DX1zLfmoymdXo17xh5zmRJ6Q42BWCfc2oJfdAr+Yv+AP9Cb7OJ3H/2JG1HNGz/84klThPVCc=);strokeColor=#000000;spacingTop=1;spacingBottom=-1;spacingLeft=-1;spacingRight=-1;labelBackgroundColor=none;rounded=0;html=1;whiteSpace=wrap;" vertex="1" parent="IN8d0VnAYBJhFlT8Tgrd-28">
          <mxGeometry width="120" height="40" as="geometry" />
        </mxCell>
        <mxCell id="IN8d0VnAYBJhFlT8Tgrd-30" value="Product" style="verticalAlign=middle;align=center;vsdxID=7;fillColor=#FFFFFF;gradientColor=none;shape=stencil(nZBLDsIwDERP420U2RJV1qXco1JTYhGSKg2/25PUi1ZFLGA3Hj9b9gC1s+snC6jnnOLFPnjIDugIiBycTZyLAuqA2jEme07xFgapp76SVV3jvW54ypwxCusQ6pcYqA7NYpwE9xw2OOn/YdMoou/0xyW/8vtjili/Htl7CW3b36dULEmYujc=);strokeColor=none;spacingTop=1;spacingBottom=-1;spacingLeft=-1;spacingRight=-1;labelBackgroundColor=none;rounded=0;html=1;whiteSpace=wrap;" vertex="1" parent="IN8d0VnAYBJhFlT8Tgrd-28">
          <mxGeometry width="120" height="40" as="geometry" />
        </mxCell>
        <mxCell id="IN8d0VnAYBJhFlT8Tgrd-31" style="vsdxID=12;fillColor=#000000;gradientColor=none;shape=stencil(UzV2Ls5ILEhVNTIoLinKz04tz0wpyVA1dlE1MsrMy0gtyiwBslSNXVWNndPyi1LTi/JL81Ig/IJEkEoQKze/DGRCBUSfAUiHkUElMs8NojAnMw9JoaEBqlJTPGpRVcJ0EqEURSGQgXB1WmZODsTTyPLovgQKQULI2BUA);strokeColor=#000000;labelBackgroundColor=none;rounded=0;html=1;whiteSpace=wrap;" vertex="1" parent="IN8d0VnAYBJhFlT8Tgrd-28">
          <mxGeometry x="26.456692913385826" y="10.526315789473683" width="1.889763779527559" height="4.2105263157894735" as="geometry" />
        </mxCell>
        <mxCell id="IN8d0VnAYBJhFlT8Tgrd-32" style="vsdxID=13;rotation=90;fillColor=#000000;gradientColor=none;shape=stencil(UzV2Ls5ILEhVNTIoLinKz04tz0wpyVA1dlE1MsrMy0gtyiwBslSNXVWNndPyi1LTi/JL81Ig/IJEkEoQKze/DGRCBUSfAUiHkUElMs8NojAnMw9JoaEBqlJTPGpRVcJ0EqEURSGQgXB1WmZODsTTyPLovgQKQULI2BUA);strokeColor=#000000;flipV=1;labelBackgroundColor=none;rounded=0;html=1;whiteSpace=wrap;" vertex="1" parent="IN8d0VnAYBJhFlT8Tgrd-28">
          <mxGeometry x="6.6141732283464565" y="28.421052631578945" width="1.889763779527559" height="5.263157894736842" as="geometry" />
        </mxCell>
        <mxCell id="IN8d0VnAYBJhFlT8Tgrd-33" style="vsdxID=14;rotation=330;fillColor=#000000;gradientColor=none;shape=stencil(UzV2Ls5ILEhVNTIoLinKz04tz0wpyVA1dlE1MsrMy0gtyiwBslSNXVWNndPyi1LTi/JL81Ig/IJEkEoQKze/DGRCBUSfAUiHkUElMs8NojAnMw9JoaEBqlJTPGpRVcJ0EqEURSGQgXB1WmZODsTTyPLovgQKQULI2BUA);strokeColor=#000000;labelBackgroundColor=none;rounded=0;html=1;whiteSpace=wrap;" vertex="1" parent="IN8d0VnAYBJhFlT8Tgrd-28">
          <mxGeometry x="17.95275590551181" y="4.2105263157894735" width="1.889763779527559" height="4.2105263157894735" as="geometry" />
        </mxCell>
        <mxCell id="IN8d0VnAYBJhFlT8Tgrd-34" style="vsdxID=15;fillColor=#CCCCCC;gradientColor=none;shape=stencil(nZBLDoAgDERP0z3SIyjew0SURgSD+Lu9kMZoXLhwN9O+tukAlrNpJg1SzDH4QW/URgNYgZTkjA4UkwJUgGXng+6DX1zLfmoymdXo17xh5zmRJ6Q42BWCfc2oJfdAr+Yv+AP9Cb7OJ3H/2JG1HNGz/84klThPVCc=);strokeColor=#000000;labelBackgroundColor=none;rounded=0;html=1;whiteSpace=wrap;" vertex="1" parent="IN8d0VnAYBJhFlT8Tgrd-28">
          <mxGeometry x="7.559055118110236" y="12.631578947368421" width="10.393700787401574" height="9.473684210526315" as="geometry" />
        </mxCell>
        <mxCell id="IN8d0VnAYBJhFlT8Tgrd-35" style="vsdxID=9;edgeStyle=none;startArrow=none;endArrow=none;startSize=5;endSize=5;strokeColor=#000000;spacingTop=0;spacingBottom=0;spacingLeft=0;spacingRight=0;verticalAlign=middle;html=1;labelBackgroundColor=none;rounded=0;" edge="1" parent="IN8d0VnAYBJhFlT8Tgrd-28">
          <mxGeometry relative="1" as="geometry">
            <Array as="points" />
            <mxPoint x="7.559055118110236" y="12.631578947368421" as="sourcePoint" />
            <mxPoint x="7.559055118110236" y="32.63157894736842" as="targetPoint" />
          </mxGeometry>
        </mxCell>
        <mxCell id="IN8d0VnAYBJhFlT8Tgrd-36" style="vsdxID=10;edgeStyle=none;startArrow=none;endArrow=none;startSize=5;endSize=5;strokeColor=#000000;spacingTop=0;spacingBottom=0;spacingLeft=0;spacingRight=0;verticalAlign=middle;html=1;labelBackgroundColor=none;rounded=0;" edge="1" parent="IN8d0VnAYBJhFlT8Tgrd-28">
          <mxGeometry relative="1" as="geometry">
            <mxPoint as="offset" />
            <Array as="points" />
            <mxPoint x="7.559055118110236" y="12.631578947368421" as="sourcePoint" />
            <mxPoint x="29.291338582677167" y="12.631578947368421" as="targetPoint" />
          </mxGeometry>
        </mxCell>
        <mxCell id="IN8d0VnAYBJhFlT8Tgrd-37" style="vsdxID=11;edgeStyle=none;startArrow=none;endArrow=none;startSize=5;endSize=5;strokeColor=#000000;spacingTop=0;spacingBottom=0;spacingLeft=0;spacingRight=0;verticalAlign=middle;html=1;labelBackgroundColor=none;rounded=0;" edge="1" parent="IN8d0VnAYBJhFlT8Tgrd-28">
          <mxGeometry relative="1" as="geometry">
            <Array as="points" />
            <mxPoint x="7.559055118110236" y="12.631578947368421" as="sourcePoint" />
            <mxPoint x="18.89763779527559" y="7.368421052631579" as="targetPoint" />
          </mxGeometry>
        </mxCell>
        <mxCell id="IN8d0VnAYBJhFlT8Tgrd-38" value="" style="group" vertex="1" connectable="0" parent="1">
          <mxGeometry x="820" y="360" width="120" height="40" as="geometry" />
        </mxCell>
        <mxCell id="IN8d0VnAYBJhFlT8Tgrd-39" value="&lt;p style=&quot;align:left;margin-left:41;margin-right:0;margin-top:0px;margin-bottom:0px;text-indent:0;valign:middle;direction:ltr;&quot;&gt;&lt;/p&gt;" style="verticalAlign=middle;align=left;vsdxID=6;fillColor=#FFFFFF;gradientColor=none;shape=stencil(nZBLDoAgDERP0z3SIyjew0SURgSD+Lu9kMZoXLhwN9O+tukAlrNpJg1SzDH4QW/URgNYgZTkjA4UkwJUgGXng+6DX1zLfmoymdXo17xh5zmRJ6Q42BWCfc2oJfdAr+Yv+AP9Cb7OJ3H/2JG1HNGz/84klThPVCc=);strokeColor=#000000;spacingTop=1;spacingBottom=-1;spacingLeft=-1;spacingRight=-1;labelBackgroundColor=none;rounded=0;html=1;whiteSpace=wrap;" vertex="1" parent="IN8d0VnAYBJhFlT8Tgrd-38">
          <mxGeometry width="120" height="40" as="geometry" />
        </mxCell>
        <mxCell id="IN8d0VnAYBJhFlT8Tgrd-40" value="Customer" style="verticalAlign=middle;align=center;vsdxID=7;fillColor=#FFFFFF;gradientColor=none;shape=stencil(nZBLDsIwDERP420U2RJV1qXco1JTYhGSKg2/25PUi1ZFLGA3Hj9b9gC1s+snC6jnnOLFPnjIDugIiBycTZyLAuqA2jEme07xFgapp76SVV3jvW54ypwxCusQ6pcYqA7NYpwE9xw2OOn/YdMoou/0xyW/8vtjili/Htl7CW3b36dULEmYujc=);strokeColor=none;spacingTop=1;spacingBottom=-1;spacingLeft=-1;spacingRight=-1;labelBackgroundColor=none;rounded=0;html=1;whiteSpace=wrap;" vertex="1" parent="IN8d0VnAYBJhFlT8Tgrd-38">
          <mxGeometry width="120" height="40" as="geometry" />
        </mxCell>
        <mxCell id="IN8d0VnAYBJhFlT8Tgrd-41" style="vsdxID=12;fillColor=#000000;gradientColor=none;shape=stencil(UzV2Ls5ILEhVNTIoLinKz04tz0wpyVA1dlE1MsrMy0gtyiwBslSNXVWNndPyi1LTi/JL81Ig/IJEkEoQKze/DGRCBUSfAUiHkUElMs8NojAnMw9JoaEBqlJTPGpRVcJ0EqEURSGQgXB1WmZODsTTyPLovgQKQULI2BUA);strokeColor=#000000;labelBackgroundColor=none;rounded=0;html=1;whiteSpace=wrap;" vertex="1" parent="IN8d0VnAYBJhFlT8Tgrd-38">
          <mxGeometry x="26.456692913385826" y="10.526315789473683" width="1.889763779527559" height="4.2105263157894735" as="geometry" />
        </mxCell>
        <mxCell id="IN8d0VnAYBJhFlT8Tgrd-42" style="vsdxID=13;rotation=90;fillColor=#000000;gradientColor=none;shape=stencil(UzV2Ls5ILEhVNTIoLinKz04tz0wpyVA1dlE1MsrMy0gtyiwBslSNXVWNndPyi1LTi/JL81Ig/IJEkEoQKze/DGRCBUSfAUiHkUElMs8NojAnMw9JoaEBqlJTPGpRVcJ0EqEURSGQgXB1WmZODsTTyPLovgQKQULI2BUA);strokeColor=#000000;flipV=1;labelBackgroundColor=none;rounded=0;html=1;whiteSpace=wrap;" vertex="1" parent="IN8d0VnAYBJhFlT8Tgrd-38">
          <mxGeometry x="6.6141732283464565" y="28.421052631578945" width="1.889763779527559" height="5.263157894736842" as="geometry" />
        </mxCell>
        <mxCell id="IN8d0VnAYBJhFlT8Tgrd-43" style="vsdxID=14;rotation=330;fillColor=#000000;gradientColor=none;shape=stencil(UzV2Ls5ILEhVNTIoLinKz04tz0wpyVA1dlE1MsrMy0gtyiwBslSNXVWNndPyi1LTi/JL81Ig/IJEkEoQKze/DGRCBUSfAUiHkUElMs8NojAnMw9JoaEBqlJTPGpRVcJ0EqEURSGQgXB1WmZODsTTyPLovgQKQULI2BUA);strokeColor=#000000;labelBackgroundColor=none;rounded=0;html=1;whiteSpace=wrap;" vertex="1" parent="IN8d0VnAYBJhFlT8Tgrd-38">
          <mxGeometry x="17.95275590551181" y="4.2105263157894735" width="1.889763779527559" height="4.2105263157894735" as="geometry" />
        </mxCell>
        <mxCell id="IN8d0VnAYBJhFlT8Tgrd-44" style="vsdxID=15;fillColor=#CCCCCC;gradientColor=none;shape=stencil(nZBLDoAgDERP0z3SIyjew0SURgSD+Lu9kMZoXLhwN9O+tukAlrNpJg1SzDH4QW/URgNYgZTkjA4UkwJUgGXng+6DX1zLfmoymdXo17xh5zmRJ6Q42BWCfc2oJfdAr+Yv+AP9Cb7OJ3H/2JG1HNGz/84klThPVCc=);strokeColor=#000000;labelBackgroundColor=none;rounded=0;html=1;whiteSpace=wrap;" vertex="1" parent="IN8d0VnAYBJhFlT8Tgrd-38">
          <mxGeometry x="7.559055118110236" y="12.631578947368421" width="10.393700787401574" height="9.473684210526315" as="geometry" />
        </mxCell>
        <mxCell id="IN8d0VnAYBJhFlT8Tgrd-45" style="vsdxID=9;edgeStyle=none;startArrow=none;endArrow=none;startSize=5;endSize=5;strokeColor=#000000;spacingTop=0;spacingBottom=0;spacingLeft=0;spacingRight=0;verticalAlign=middle;html=1;labelBackgroundColor=none;rounded=0;" edge="1" parent="IN8d0VnAYBJhFlT8Tgrd-38">
          <mxGeometry relative="1" as="geometry">
            <Array as="points" />
            <mxPoint x="7.559055118110236" y="12.631578947368421" as="sourcePoint" />
            <mxPoint x="7.559055118110236" y="32.63157894736842" as="targetPoint" />
          </mxGeometry>
        </mxCell>
        <mxCell id="IN8d0VnAYBJhFlT8Tgrd-46" style="vsdxID=10;edgeStyle=none;startArrow=none;endArrow=none;startSize=5;endSize=5;strokeColor=#000000;spacingTop=0;spacingBottom=0;spacingLeft=0;spacingRight=0;verticalAlign=middle;html=1;labelBackgroundColor=none;rounded=0;" edge="1" parent="IN8d0VnAYBJhFlT8Tgrd-38">
          <mxGeometry relative="1" as="geometry">
            <mxPoint as="offset" />
            <Array as="points" />
            <mxPoint x="7.559055118110236" y="12.631578947368421" as="sourcePoint" />
            <mxPoint x="29.291338582677167" y="12.631578947368421" as="targetPoint" />
          </mxGeometry>
        </mxCell>
        <mxCell id="IN8d0VnAYBJhFlT8Tgrd-47" style="vsdxID=11;edgeStyle=none;startArrow=none;endArrow=none;startSize=5;endSize=5;strokeColor=#000000;spacingTop=0;spacingBottom=0;spacingLeft=0;spacingRight=0;verticalAlign=middle;html=1;labelBackgroundColor=none;rounded=0;" edge="1" parent="IN8d0VnAYBJhFlT8Tgrd-38">
          <mxGeometry relative="1" as="geometry">
            <Array as="points" />
            <mxPoint x="7.559055118110236" y="12.631578947368421" as="sourcePoint" />
            <mxPoint x="18.89763779527559" y="7.368421052631579" as="targetPoint" />
          </mxGeometry>
        </mxCell>
        <mxCell id="IN8d0VnAYBJhFlT8Tgrd-49" style="vsdxID=5;edgeStyle=none;startArrow=none;endArrow=block;startSize=5;endSize=7;strokeColor=#000000;spacingTop=0;spacingBottom=0;spacingLeft=0;spacingRight=0;verticalAlign=middle;html=1;labelBackgroundColor=#FFFFFF;rounded=0;exitX=0.006;exitY=0.933;exitDx=0;exitDy=0;exitPerimeter=0;entryX=0.525;entryY=0.05;entryDx=0;entryDy=0;entryPerimeter=0;" edge="1" parent="1" source="IN8d0VnAYBJhFlT8Tgrd-2" target="IN8d0VnAYBJhFlT8Tgrd-20">
          <mxGeometry x="-113.8" y="-965" relative="1" as="geometry">
            <mxPoint x="-113.8" y="-965" as="offset" />
            <mxPoint x="350" y="320" as="sourcePoint" />
            <mxPoint x="350" y="360" as="targetPoint" />
            <Array as="points">
              <mxPoint x="323" y="275" />
            </Array>
          </mxGeometry>
        </mxCell>
        <mxCell id="IN8d0VnAYBJhFlT8Tgrd-50" style="vsdxID=5;edgeStyle=none;startArrow=none;endArrow=block;startSize=5;endSize=7;strokeColor=#000000;spacingTop=0;spacingBottom=0;spacingLeft=0;spacingRight=0;verticalAlign=middle;html=1;labelBackgroundColor=#FFFFFF;rounded=0;" edge="1" parent="1" target="IN8d0VnAYBJhFlT8Tgrd-30">
          <mxGeometry x="-113.8" y="-965" relative="1" as="geometry">
            <mxPoint x="-113.8" y="-965" as="offset" />
            <mxPoint x="520" y="270" as="sourcePoint" />
            <mxPoint x="353" y="372" as="targetPoint" />
            <Array as="points">
              <mxPoint x="570" y="270" />
            </Array>
          </mxGeometry>
        </mxCell>
        <mxCell id="IN8d0VnAYBJhFlT8Tgrd-51" style="vsdxID=5;edgeStyle=none;startArrow=none;endArrow=block;startSize=5;endSize=7;strokeColor=#000000;spacingTop=0;spacingBottom=0;spacingLeft=0;spacingRight=0;verticalAlign=middle;html=1;labelBackgroundColor=#FFFFFF;rounded=0;entryX=0.55;entryY=0.05;entryDx=0;entryDy=0;entryPerimeter=0;" edge="1" parent="1" target="IN8d0VnAYBJhFlT8Tgrd-10">
          <mxGeometry x="-113.8" y="-965" relative="1" as="geometry">
            <mxPoint x="-113.8" y="-965" as="offset" />
            <mxPoint x="360" y="240" as="sourcePoint" />
            <mxPoint x="363" y="382" as="targetPoint" />
            <Array as="points">
              <mxPoint x="146" y="240" />
            </Array>
          </mxGeometry>
        </mxCell>
        <mxCell id="IN8d0VnAYBJhFlT8Tgrd-52" style="vsdxID=5;edgeStyle=none;startArrow=none;endArrow=block;startSize=5;endSize=7;strokeColor=#000000;spacingTop=0;spacingBottom=0;spacingLeft=0;spacingRight=0;verticalAlign=middle;html=1;labelBackgroundColor=#FFFFFF;rounded=0;entryX=0.525;entryY=-0.025;entryDx=0;entryDy=0;entryPerimeter=0;" edge="1" parent="1" target="IN8d0VnAYBJhFlT8Tgrd-40">
          <mxGeometry x="-113.8" y="-965" relative="1" as="geometry">
            <mxPoint x="-113.8" y="-965" as="offset" />
            <mxPoint x="520" y="240" as="sourcePoint" />
            <mxPoint x="740" y="360" as="targetPoint" />
            <Array as="points">
              <mxPoint x="863" y="240" />
            </Array>
          </mxGeometry>
        </mxCell>
        <mxCell id="IN8d0VnAYBJhFlT8Tgrd-53" value="" style="group" vertex="1" connectable="0" parent="1">
          <mxGeometry x="260" y="440" width="118" height="40" as="geometry" />
        </mxCell>
        <mxCell id="IN8d0VnAYBJhFlT8Tgrd-138" style="vsdxID=5;edgeStyle=none;startArrow=none;endArrow=block;startSize=5;endSize=7;strokeColor=#000000;spacingTop=0;spacingBottom=0;spacingLeft=0;spacingRight=0;verticalAlign=middle;html=1;labelBackgroundColor=#FFFFFF;rounded=0;" edge="1" parent="IN8d0VnAYBJhFlT8Tgrd-53" source="IN8d0VnAYBJhFlT8Tgrd-20">
          <mxGeometry x="-113.8" y="-965" relative="1" as="geometry">
            <mxPoint x="-113.8" y="-965" as="offset" />
            <mxPoint x="-221" y="-400" as="sourcePoint" />
            <mxPoint x="59" y="80" as="targetPoint" />
          </mxGeometry>
        </mxCell>
        <mxCell id="IN8d0VnAYBJhFlT8Tgrd-54" value="" style="verticalAlign=middle;align=center;vsdxID=6;fillColor=#FFFFFF;gradientColor=none;shape=stencil(UzV2Ls5ILEhVNTIoLinKz04tz0wpyVA1dlE1MsrMy0gtyiwBslSNXVWNndPyi1LTi/JL81Ig/IJEkEoQKze/DGRCBUSfAUiHkUElhGdoAOG7QZTmZOYhKYVJkqXYFI9aS1SleE0lViXxtuP1FJCBCLm0zJwcSMAjy6OHNFAIEkvGrgA=);strokeColor=#000000;spacingTop=-3;spacingBottom=-3;spacingLeft=-3;spacingRight=-3;labelBackgroundColor=none;rounded=0;html=1;whiteSpace=wrap;" vertex="1" parent="IN8d0VnAYBJhFlT8Tgrd-53">
          <mxGeometry width="118" height="40" as="geometry" />
        </mxCell>
        <mxCell id="IN8d0VnAYBJhFlT8Tgrd-55" style="vsdxID=7;fillColor=none;gradientColor=none;strokeColor=none;spacingTop=-3;spacingBottom=-3;spacingLeft=-3;spacingRight=-3;labelBackgroundColor=none;rounded=0;html=1;whiteSpace=wrap;" vertex="1" parent="IN8d0VnAYBJhFlT8Tgrd-53">
          <mxGeometry x="5.574803149606299" y="6.315789473684211" width="23.228346456692915" height="26.31578947368421" as="geometry" />
        </mxCell>
        <mxCell id="IN8d0VnAYBJhFlT8Tgrd-56" style="vsdxID=8;fillColor=#C0C0C0;gradientColor=none;shape=stencil(vVHLDsIgEPwajiQU4hfU+h8bu7RELM2CFv9eyMZYjCcP3mZ2Zh/ZEaaPM6wotIqJwgU3N6ZZmKPQ2i0zkksFCTMI09tAOFG4LSPzFaqzomu41wmZ+1Tt0OrB7MD0xE6gc5EoN5qi1vsa1Kmvo1SWkF2UFBIkF5ZmqweaUJY10nqYGiluiOuu3P182P/OKuD9Zuu855T2+mcspcSRmuEJ);strokeColor=#000000;spacingTop=-3;spacingBottom=-3;spacingLeft=-3;spacingRight=-3;labelBackgroundColor=none;rounded=0;html=1;whiteSpace=wrap;" vertex="1" parent="IN8d0VnAYBJhFlT8Tgrd-55">
          <mxGeometry y="15.789473684210526" width="8.362204724409448" height="9.473684210526315" as="geometry" />
        </mxCell>
        <mxCell id="IN8d0VnAYBJhFlT8Tgrd-57" style="vsdxID=9;fillColor=#C0C0C0;gradientColor=none;shape=stencil(vVHLDsIgEPwajiQU4hfU+h8bu7RELM2CFv9eyMZYjCcP3mZ2Zh/ZEaaPM6wotIqJwgU3N6ZZmKPQ2i0zkksFCTMI09tAOFG4LSPzFaqzomu41wmZ+1Tt0OrB7MD0xE6gc5EoN5qi1vsa1Kmvo1SWkF2UFBIkF5ZmqweaUJY10nqYGiluiOuu3P182P/OKuD9Zuu855T2+mcspcSRmuEJ);strokeColor=#000000;spacingTop=-3;spacingBottom=-3;spacingLeft=-3;spacingRight=-3;labelBackgroundColor=none;rounded=0;html=1;whiteSpace=wrap;" vertex="1" parent="IN8d0VnAYBJhFlT8Tgrd-55">
          <mxGeometry x="13.937007874015748" y="15.789473684210526" width="8.362204724409448" height="9.473684210526315" as="geometry" />
        </mxCell>
        <mxCell id="IN8d0VnAYBJhFlT8Tgrd-58" style="vsdxID=10;fillColor=#C0C0C0;gradientColor=none;shape=stencil(vVHLDsIgEPwajiQU4hfU+h8bu7RELM2CFv9eyMZYjCcP3mZ2Zh/ZEaaPM6wotIqJwgU3N6ZZmKPQ2i0zkksFCTMI09tAOFG4LSPzFaqzomu41wmZ+1Tt0OrB7MD0xE6gc5EoN5qi1vsa1Kmvo1SWkF2UFBIkF5ZmqweaUJY10nqYGiluiOuu3P182P/OKuD9Zuu855T2+mcspcSRmuEJ);strokeColor=#000000;spacingTop=-3;spacingBottom=-3;spacingLeft=-3;spacingRight=-3;labelBackgroundColor=none;rounded=0;html=1;whiteSpace=wrap;" vertex="1" parent="IN8d0VnAYBJhFlT8Tgrd-55">
          <mxGeometry x="6.503937007874016" width="8.362204724409448" height="9.473684210526315" as="geometry" />
        </mxCell>
        <mxCell id="IN8d0VnAYBJhFlT8Tgrd-59" style="vsdxID=11;edgeStyle=none;startArrow=none;endArrow=none;startSize=5;endSize=5;strokeColor=#000000;spacingTop=-3;spacingBottom=-3;spacingLeft=-3;spacingRight=-3;verticalAlign=middle;html=1;labelBackgroundColor=none;rounded=0;" edge="1" parent="IN8d0VnAYBJhFlT8Tgrd-55">
          <mxGeometry relative="1" as="geometry">
            <Array as="points" />
            <mxPoint x="5.574803149606299" y="15.789473684210526" as="sourcePoint" />
            <mxPoint x="9.291338582677165" y="9.473684210526315" as="targetPoint" />
          </mxGeometry>
        </mxCell>
        <mxCell id="IN8d0VnAYBJhFlT8Tgrd-60" style="vsdxID=12;edgeStyle=none;startArrow=none;endArrow=none;startSize=5;endSize=5;strokeColor=#000000;spacingTop=-3;spacingBottom=-3;spacingLeft=-3;spacingRight=-3;verticalAlign=middle;html=1;labelBackgroundColor=none;rounded=0;" edge="1" parent="IN8d0VnAYBJhFlT8Tgrd-55">
          <mxGeometry relative="1" as="geometry">
            <Array as="points" />
            <mxPoint x="16.724409448818896" y="15.789473684210526" as="sourcePoint" />
            <mxPoint x="13.937007874015748" y="9.473684210526315" as="targetPoint" />
          </mxGeometry>
        </mxCell>
        <mxCell id="IN8d0VnAYBJhFlT8Tgrd-61" value="Time&lt;br&gt;Hierarchy" style="verticalAlign=middle;align=center;vsdxID=13;fillColor=#FFFFFF;gradientColor=none;shape=stencil(nZHNDsIgEISfZq+E7EZbzrW+R5NSISI0FP/evtA92Ggao7dh+IbsDkDNZLpRA8opxXDWd9snA3QAROuNjjZlBdQCNUOI+hTD1fd8HrtCFnUJt/LCg3NKCSwhlE82UOyrxTgy7qxf4ST/h1UliLbpj0lULRB/4HdyG66/rZnFq6LBOscNr+/fK80Wfwe1Mw==);strokeColor=none;spacingTop=1;spacingBottom=-1;spacingLeft=-1;spacingRight=-1;labelBackgroundColor=none;rounded=0;html=1;whiteSpace=wrap;" vertex="1" parent="IN8d0VnAYBJhFlT8Tgrd-53">
          <mxGeometry width="118" height="40" as="geometry" />
        </mxCell>
        <mxCell id="IN8d0VnAYBJhFlT8Tgrd-63" value="" style="group" vertex="1" connectable="0" parent="1">
          <mxGeometry x="530" y="440" width="118" height="40" as="geometry" />
        </mxCell>
        <mxCell id="IN8d0VnAYBJhFlT8Tgrd-64" value="" style="verticalAlign=middle;align=center;vsdxID=6;fillColor=#FFFFFF;gradientColor=none;shape=stencil(UzV2Ls5ILEhVNTIoLinKz04tz0wpyVA1dlE1MsrMy0gtyiwBslSNXVWNndPyi1LTi/JL81Ig/IJEkEoQKze/DGRCBUSfAUiHkUElhGdoAOG7QZTmZOYhKYVJkqXYFI9aS1SleE0lViXxtuP1FJCBCLm0zJwcSMAjy6OHNFAIEkvGrgA=);strokeColor=#000000;spacingTop=-3;spacingBottom=-3;spacingLeft=-3;spacingRight=-3;labelBackgroundColor=none;rounded=0;html=1;whiteSpace=wrap;" vertex="1" parent="IN8d0VnAYBJhFlT8Tgrd-63">
          <mxGeometry width="118" height="40" as="geometry" />
        </mxCell>
        <mxCell id="IN8d0VnAYBJhFlT8Tgrd-65" style="vsdxID=7;fillColor=none;gradientColor=none;strokeColor=none;spacingTop=-3;spacingBottom=-3;spacingLeft=-3;spacingRight=-3;labelBackgroundColor=none;rounded=0;html=1;whiteSpace=wrap;" vertex="1" parent="IN8d0VnAYBJhFlT8Tgrd-63">
          <mxGeometry x="5.574803149606299" y="6.315789473684211" width="23.228346456692915" height="26.31578947368421" as="geometry" />
        </mxCell>
        <mxCell id="IN8d0VnAYBJhFlT8Tgrd-66" style="vsdxID=8;fillColor=#C0C0C0;gradientColor=none;shape=stencil(vVHLDsIgEPwajiQU4hfU+h8bu7RELM2CFv9eyMZYjCcP3mZ2Zh/ZEaaPM6wotIqJwgU3N6ZZmKPQ2i0zkksFCTMI09tAOFG4LSPzFaqzomu41wmZ+1Tt0OrB7MD0xE6gc5EoN5qi1vsa1Kmvo1SWkF2UFBIkF5ZmqweaUJY10nqYGiluiOuu3P182P/OKuD9Zuu855T2+mcspcSRmuEJ);strokeColor=#000000;spacingTop=-3;spacingBottom=-3;spacingLeft=-3;spacingRight=-3;labelBackgroundColor=none;rounded=0;html=1;whiteSpace=wrap;" vertex="1" parent="IN8d0VnAYBJhFlT8Tgrd-65">
          <mxGeometry y="15.789473684210526" width="8.362204724409448" height="9.473684210526315" as="geometry" />
        </mxCell>
        <mxCell id="IN8d0VnAYBJhFlT8Tgrd-67" style="vsdxID=9;fillColor=#C0C0C0;gradientColor=none;shape=stencil(vVHLDsIgEPwajiQU4hfU+h8bu7RELM2CFv9eyMZYjCcP3mZ2Zh/ZEaaPM6wotIqJwgU3N6ZZmKPQ2i0zkksFCTMI09tAOFG4LSPzFaqzomu41wmZ+1Tt0OrB7MD0xE6gc5EoN5qi1vsa1Kmvo1SWkF2UFBIkF5ZmqweaUJY10nqYGiluiOuu3P182P/OKuD9Zuu855T2+mcspcSRmuEJ);strokeColor=#000000;spacingTop=-3;spacingBottom=-3;spacingLeft=-3;spacingRight=-3;labelBackgroundColor=none;rounded=0;html=1;whiteSpace=wrap;" vertex="1" parent="IN8d0VnAYBJhFlT8Tgrd-65">
          <mxGeometry x="13.937007874015748" y="15.789473684210526" width="8.362204724409448" height="9.473684210526315" as="geometry" />
        </mxCell>
        <mxCell id="IN8d0VnAYBJhFlT8Tgrd-68" style="vsdxID=10;fillColor=#C0C0C0;gradientColor=none;shape=stencil(vVHLDsIgEPwajiQU4hfU+h8bu7RELM2CFv9eyMZYjCcP3mZ2Zh/ZEaaPM6wotIqJwgU3N6ZZmKPQ2i0zkksFCTMI09tAOFG4LSPzFaqzomu41wmZ+1Tt0OrB7MD0xE6gc5EoN5qi1vsa1Kmvo1SWkF2UFBIkF5ZmqweaUJY10nqYGiluiOuu3P182P/OKuD9Zuu855T2+mcspcSRmuEJ);strokeColor=#000000;spacingTop=-3;spacingBottom=-3;spacingLeft=-3;spacingRight=-3;labelBackgroundColor=none;rounded=0;html=1;whiteSpace=wrap;" vertex="1" parent="IN8d0VnAYBJhFlT8Tgrd-65">
          <mxGeometry x="6.503937007874016" width="8.362204724409448" height="9.473684210526315" as="geometry" />
        </mxCell>
        <mxCell id="IN8d0VnAYBJhFlT8Tgrd-69" style="vsdxID=11;edgeStyle=none;startArrow=none;endArrow=none;startSize=5;endSize=5;strokeColor=#000000;spacingTop=-3;spacingBottom=-3;spacingLeft=-3;spacingRight=-3;verticalAlign=middle;html=1;labelBackgroundColor=none;rounded=0;" edge="1" parent="IN8d0VnAYBJhFlT8Tgrd-65">
          <mxGeometry relative="1" as="geometry">
            <Array as="points" />
            <mxPoint x="5.574803149606299" y="15.789473684210526" as="sourcePoint" />
            <mxPoint x="9.291338582677165" y="9.473684210526315" as="targetPoint" />
          </mxGeometry>
        </mxCell>
        <mxCell id="IN8d0VnAYBJhFlT8Tgrd-70" style="vsdxID=12;edgeStyle=none;startArrow=none;endArrow=none;startSize=5;endSize=5;strokeColor=#000000;spacingTop=-3;spacingBottom=-3;spacingLeft=-3;spacingRight=-3;verticalAlign=middle;html=1;labelBackgroundColor=none;rounded=0;" edge="1" parent="IN8d0VnAYBJhFlT8Tgrd-65">
          <mxGeometry relative="1" as="geometry">
            <Array as="points" />
            <mxPoint x="16.724409448818896" y="15.789473684210526" as="sourcePoint" />
            <mxPoint x="13.937007874015748" y="9.473684210526315" as="targetPoint" />
          </mxGeometry>
        </mxCell>
        <mxCell id="IN8d0VnAYBJhFlT8Tgrd-71" value="Product&lt;br&gt;Hierarchy" style="verticalAlign=middle;align=center;vsdxID=13;fillColor=#FFFFFF;gradientColor=none;shape=stencil(nZHNDsIgEISfZq+E7EZbzrW+R5NSISI0FP/evtA92Ggao7dh+IbsDkDNZLpRA8opxXDWd9snA3QAROuNjjZlBdQCNUOI+hTD1fd8HrtCFnUJt/LCg3NKCSwhlE82UOyrxTgy7qxf4ST/h1UliLbpj0lULRB/4HdyG66/rZnFq6LBOscNr+/fK80Wfwe1Mw==);strokeColor=none;spacingTop=1;spacingBottom=-1;spacingLeft=-1;spacingRight=-1;labelBackgroundColor=none;rounded=0;html=1;whiteSpace=wrap;" vertex="1" parent="IN8d0VnAYBJhFlT8Tgrd-63">
          <mxGeometry width="118" height="40" as="geometry" />
        </mxCell>
        <mxCell id="IN8d0VnAYBJhFlT8Tgrd-72" value="" style="group" vertex="1" connectable="0" parent="1">
          <mxGeometry x="820" y="440" width="118" height="40" as="geometry" />
        </mxCell>
        <mxCell id="IN8d0VnAYBJhFlT8Tgrd-73" value="" style="verticalAlign=middle;align=center;vsdxID=6;fillColor=#FFFFFF;gradientColor=none;shape=stencil(UzV2Ls5ILEhVNTIoLinKz04tz0wpyVA1dlE1MsrMy0gtyiwBslSNXVWNndPyi1LTi/JL81Ig/IJEkEoQKze/DGRCBUSfAUiHkUElhGdoAOG7QZTmZOYhKYVJkqXYFI9aS1SleE0lViXxtuP1FJCBCLm0zJwcSMAjy6OHNFAIEkvGrgA=);strokeColor=#000000;spacingTop=-3;spacingBottom=-3;spacingLeft=-3;spacingRight=-3;labelBackgroundColor=none;rounded=0;html=1;whiteSpace=wrap;" vertex="1" parent="IN8d0VnAYBJhFlT8Tgrd-72">
          <mxGeometry width="118" height="40" as="geometry" />
        </mxCell>
        <mxCell id="IN8d0VnAYBJhFlT8Tgrd-74" style="vsdxID=7;fillColor=none;gradientColor=none;strokeColor=none;spacingTop=-3;spacingBottom=-3;spacingLeft=-3;spacingRight=-3;labelBackgroundColor=none;rounded=0;html=1;whiteSpace=wrap;" vertex="1" parent="IN8d0VnAYBJhFlT8Tgrd-72">
          <mxGeometry x="5.574803149606299" y="6.315789473684211" width="23.228346456692915" height="26.31578947368421" as="geometry" />
        </mxCell>
        <mxCell id="IN8d0VnAYBJhFlT8Tgrd-75" style="vsdxID=8;fillColor=#C0C0C0;gradientColor=none;shape=stencil(vVHLDsIgEPwajiQU4hfU+h8bu7RELM2CFv9eyMZYjCcP3mZ2Zh/ZEaaPM6wotIqJwgU3N6ZZmKPQ2i0zkksFCTMI09tAOFG4LSPzFaqzomu41wmZ+1Tt0OrB7MD0xE6gc5EoN5qi1vsa1Kmvo1SWkF2UFBIkF5ZmqweaUJY10nqYGiluiOuu3P182P/OKuD9Zuu855T2+mcspcSRmuEJ);strokeColor=#000000;spacingTop=-3;spacingBottom=-3;spacingLeft=-3;spacingRight=-3;labelBackgroundColor=none;rounded=0;html=1;whiteSpace=wrap;" vertex="1" parent="IN8d0VnAYBJhFlT8Tgrd-74">
          <mxGeometry y="15.789473684210526" width="8.362204724409448" height="9.473684210526315" as="geometry" />
        </mxCell>
        <mxCell id="IN8d0VnAYBJhFlT8Tgrd-76" style="vsdxID=9;fillColor=#C0C0C0;gradientColor=none;shape=stencil(vVHLDsIgEPwajiQU4hfU+h8bu7RELM2CFv9eyMZYjCcP3mZ2Zh/ZEaaPM6wotIqJwgU3N6ZZmKPQ2i0zkksFCTMI09tAOFG4LSPzFaqzomu41wmZ+1Tt0OrB7MD0xE6gc5EoN5qi1vsa1Kmvo1SWkF2UFBIkF5ZmqweaUJY10nqYGiluiOuu3P182P/OKuD9Zuu855T2+mcspcSRmuEJ);strokeColor=#000000;spacingTop=-3;spacingBottom=-3;spacingLeft=-3;spacingRight=-3;labelBackgroundColor=none;rounded=0;html=1;whiteSpace=wrap;" vertex="1" parent="IN8d0VnAYBJhFlT8Tgrd-74">
          <mxGeometry x="13.937007874015748" y="15.789473684210526" width="8.362204724409448" height="9.473684210526315" as="geometry" />
        </mxCell>
        <mxCell id="IN8d0VnAYBJhFlT8Tgrd-77" style="vsdxID=10;fillColor=#C0C0C0;gradientColor=none;shape=stencil(vVHLDsIgEPwajiQU4hfU+h8bu7RELM2CFv9eyMZYjCcP3mZ2Zh/ZEaaPM6wotIqJwgU3N6ZZmKPQ2i0zkksFCTMI09tAOFG4LSPzFaqzomu41wmZ+1Tt0OrB7MD0xE6gc5EoN5qi1vsa1Kmvo1SWkF2UFBIkF5ZmqweaUJY10nqYGiluiOuu3P182P/OKuD9Zuu855T2+mcspcSRmuEJ);strokeColor=#000000;spacingTop=-3;spacingBottom=-3;spacingLeft=-3;spacingRight=-3;labelBackgroundColor=none;rounded=0;html=1;whiteSpace=wrap;" vertex="1" parent="IN8d0VnAYBJhFlT8Tgrd-74">
          <mxGeometry x="6.503937007874016" width="8.362204724409448" height="9.473684210526315" as="geometry" />
        </mxCell>
        <mxCell id="IN8d0VnAYBJhFlT8Tgrd-78" style="vsdxID=11;edgeStyle=none;startArrow=none;endArrow=none;startSize=5;endSize=5;strokeColor=#000000;spacingTop=-3;spacingBottom=-3;spacingLeft=-3;spacingRight=-3;verticalAlign=middle;html=1;labelBackgroundColor=none;rounded=0;" edge="1" parent="IN8d0VnAYBJhFlT8Tgrd-74">
          <mxGeometry relative="1" as="geometry">
            <Array as="points" />
            <mxPoint x="5.574803149606299" y="15.789473684210526" as="sourcePoint" />
            <mxPoint x="9.291338582677165" y="9.473684210526315" as="targetPoint" />
          </mxGeometry>
        </mxCell>
        <mxCell id="IN8d0VnAYBJhFlT8Tgrd-79" style="vsdxID=12;edgeStyle=none;startArrow=none;endArrow=none;startSize=5;endSize=5;strokeColor=#000000;spacingTop=-3;spacingBottom=-3;spacingLeft=-3;spacingRight=-3;verticalAlign=middle;html=1;labelBackgroundColor=none;rounded=0;" edge="1" parent="IN8d0VnAYBJhFlT8Tgrd-74">
          <mxGeometry relative="1" as="geometry">
            <Array as="points" />
            <mxPoint x="16.724409448818896" y="15.789473684210526" as="sourcePoint" />
            <mxPoint x="13.937007874015748" y="9.473684210526315" as="targetPoint" />
          </mxGeometry>
        </mxCell>
        <mxCell id="IN8d0VnAYBJhFlT8Tgrd-80" value="Customer&lt;br&gt;Hierarchy" style="verticalAlign=middle;align=center;vsdxID=13;fillColor=#FFFFFF;gradientColor=none;shape=stencil(nZHNDsIgEISfZq+E7EZbzrW+R5NSISI0FP/evtA92Ggao7dh+IbsDkDNZLpRA8opxXDWd9snA3QAROuNjjZlBdQCNUOI+hTD1fd8HrtCFnUJt/LCg3NKCSwhlE82UOyrxTgy7qxf4ST/h1UliLbpj0lULRB/4HdyG66/rZnFq6LBOscNr+/fK80Wfwe1Mw==);strokeColor=none;spacingTop=1;spacingBottom=-1;spacingLeft=-1;spacingRight=-1;labelBackgroundColor=none;rounded=0;html=1;whiteSpace=wrap;" vertex="1" parent="IN8d0VnAYBJhFlT8Tgrd-72">
          <mxGeometry width="118" height="40" as="geometry" />
        </mxCell>
        <mxCell id="IN8d0VnAYBJhFlT8Tgrd-81" value="" style="group" vertex="1" connectable="0" parent="1">
          <mxGeometry x="80" y="420" width="120" height="40" as="geometry" />
        </mxCell>
        <mxCell id="IN8d0VnAYBJhFlT8Tgrd-82" style="vsdxID=6;fillColor=#FFFFFF;gradientColor=none;shape=stencil(vZPbDoIwDIafZpeQsSYo1x7eY9EBi5ORMgXf3i2FKAheaPSuh2/t/qZlsGlKWSsmeOPQnlSrj65ksGVC6KpUqJ23GOwYbHKLqkB7qY7k1zKQwTrba6jQ0TvBwxPBb+QmnPw9sUZXT+z6LSvx4HPYs0kWZxnh2PMAMQgKdeMKQ8U0jdNVT0Sy002E1kmnbUX5njYSCxX5flFuZDFKNa1S9Ut4Vs20efgefCloMiH+Ly1iru+sjIHEF9VDraWp/EHG0jZ8qGRht38ixBuPE8u1MXShz/npSfoQnTPs7g==);strokeColor=#000000;spacingTop=-3;spacingBottom=-3;spacingLeft=-3;spacingRight=-3;labelBackgroundColor=none;rounded=0;html=1;whiteSpace=wrap;" vertex="1" parent="IN8d0VnAYBJhFlT8Tgrd-81">
          <mxGeometry width="120" height="40" as="geometry" />
        </mxCell>
        <mxCell id="IN8d0VnAYBJhFlT8Tgrd-83" style="vsdxID=7;fillColor=none;gradientColor=none;strokeColor=none;spacingTop=-3;spacingBottom=-3;spacingLeft=-3;spacingRight=-3;labelBackgroundColor=none;rounded=0;html=1;whiteSpace=wrap;" vertex="1" parent="IN8d0VnAYBJhFlT8Tgrd-81">
          <mxGeometry x="5.669291338582677" y="6.315789473684211" width="23.62204724409449" height="26.31578947368421" as="geometry" />
        </mxCell>
        <mxCell id="IN8d0VnAYBJhFlT8Tgrd-84" value="&lt;font style=&quot;font-size:19px;font-family:Calibri;color:#000000;direction:ltr;letter-spacing:0px;line-height:120%;opacity:1&quot;&gt;{  }&lt;br/&gt;&lt;/font&gt;" style="verticalAlign=middle;align=center;vsdxID=8;fillColor=none;gradientColor=none;shape=stencil(nZBLDoAgDERP0z3SIyjew0SURgSD+Lu9kMZoXLhwN9O+tukAlrNpJg1SzDH4QW/URgNYgZTkjA4UkwJUgGXng+6DX1zLfmoymdXo17xh5zmRJ6Q42BWCfc2oJfdAr+Yv+AP9Cb7OJ3H/2JG1HNGz/84klThPVCc=);strokeColor=none;spacingTop=-3;spacingBottom=-3;spacingLeft=-3;spacingRight=-3;labelBackgroundColor=none;rounded=0;html=1;whiteSpace=wrap;" vertex="1" parent="IN8d0VnAYBJhFlT8Tgrd-83">
          <mxGeometry width="23.62204724409449" height="26.31578947368421" as="geometry" />
        </mxCell>
        <mxCell id="IN8d0VnAYBJhFlT8Tgrd-85" style="vsdxID=9;fillColor=#C0C0C0;gradientColor=none;shape=stencil(vVHLDsIgEPwajiQU4hfU+h8bu7RELM2CFv9eyMZYjCcP3mZ2Zh/ZEaaPM6wotIqJwgU3N6ZZmKPQ2i0zkksFCTMI09tAOFG4LSPzFaqzomu41wmZ+1Tt0OrB7MD0xE6gc5EoN5qi1vsa1Kmvo1SWkF2UFBIkF5ZmqweaUJY10nqYGiluiOuu3P182P/OKuD9Zuu855T2+mcspcSRmuEJ);strokeColor=#000000;spacingTop=-3;spacingBottom=-3;spacingLeft=-3;spacingRight=-3;labelBackgroundColor=none;rounded=0;html=1;whiteSpace=wrap;" vertex="1" parent="IN8d0VnAYBJhFlT8Tgrd-83">
          <mxGeometry x="6.6141732283464565" y="8.421052631578947" width="10.393700787401574" height="11.578947368421051" as="geometry" />
        </mxCell>
        <mxCell id="IN8d0VnAYBJhFlT8Tgrd-86" value="Revenue" style="verticalAlign=middle;align=center;vsdxID=10;fillColor=#FFFFFF;gradientColor=none;shape=stencil(rZHdDsIgDIWfpreEtAmT6znfY8mYEBEWhn9vL9gLdUaTJd6dtl+b0xaonW0/GUA55xQP5uKGbIG2gOiCNcnlooA6oHaMyexTPIWB46mvZFXHeK4TrtxHsragvHGIQjWPxI5h78KfYN0Iou/0ZhWttVBvvFI/vXzwRGvcLBct4nnP0XnP73itL+9fUvw76u4=);strokeColor=none;spacingTop=1;spacingBottom=-1;spacingLeft=-1;spacingRight=-1;labelBackgroundColor=none;rounded=0;html=1;whiteSpace=wrap;" vertex="1" parent="IN8d0VnAYBJhFlT8Tgrd-81">
          <mxGeometry width="120" height="40" as="geometry" />
        </mxCell>
        <mxCell id="IN8d0VnAYBJhFlT8Tgrd-93" value="" style="group" vertex="1" connectable="0" parent="1">
          <mxGeometry x="80" y="480" width="120" height="40" as="geometry" />
        </mxCell>
        <mxCell id="IN8d0VnAYBJhFlT8Tgrd-94" style="vsdxID=6;fillColor=#FFFFFF;gradientColor=none;shape=stencil(vZPbDoIwDIafZpeQsSYo1x7eY9EBi5ORMgXf3i2FKAheaPSuh2/t/qZlsGlKWSsmeOPQnlSrj65ksGVC6KpUqJ23GOwYbHKLqkB7qY7k1zKQwTrba6jQ0TvBwxPBb+QmnPw9sUZXT+z6LSvx4HPYs0kWZxnh2PMAMQgKdeMKQ8U0jdNVT0Sy002E1kmnbUX5njYSCxX5flFuZDFKNa1S9Ut4Vs20efgefCloMiH+Ly1iru+sjIHEF9VDraWp/EHG0jZ8qGRht38ixBuPE8u1MXShz/npSfoQnTPs7g==);strokeColor=#000000;spacingTop=-3;spacingBottom=-3;spacingLeft=-3;spacingRight=-3;labelBackgroundColor=none;rounded=0;html=1;whiteSpace=wrap;" vertex="1" parent="IN8d0VnAYBJhFlT8Tgrd-93">
          <mxGeometry width="120" height="40" as="geometry" />
        </mxCell>
        <mxCell id="IN8d0VnAYBJhFlT8Tgrd-95" style="vsdxID=7;fillColor=none;gradientColor=none;strokeColor=none;spacingTop=-3;spacingBottom=-3;spacingLeft=-3;spacingRight=-3;labelBackgroundColor=none;rounded=0;html=1;whiteSpace=wrap;" vertex="1" parent="IN8d0VnAYBJhFlT8Tgrd-93">
          <mxGeometry x="5.669291338582677" y="6.315789473684211" width="23.62204724409449" height="26.31578947368421" as="geometry" />
        </mxCell>
        <mxCell id="IN8d0VnAYBJhFlT8Tgrd-96" value="&lt;font style=&quot;font-size:19px;font-family:Calibri;color:#000000;direction:ltr;letter-spacing:0px;line-height:120%;opacity:1&quot;&gt;{  }&lt;br/&gt;&lt;/font&gt;" style="verticalAlign=middle;align=center;vsdxID=8;fillColor=none;gradientColor=none;shape=stencil(nZBLDoAgDERP0z3SIyjew0SURgSD+Lu9kMZoXLhwN9O+tukAlrNpJg1SzDH4QW/URgNYgZTkjA4UkwJUgGXng+6DX1zLfmoymdXo17xh5zmRJ6Q42BWCfc2oJfdAr+Yv+AP9Cb7OJ3H/2JG1HNGz/84klThPVCc=);strokeColor=none;spacingTop=-3;spacingBottom=-3;spacingLeft=-3;spacingRight=-3;labelBackgroundColor=none;rounded=0;html=1;whiteSpace=wrap;" vertex="1" parent="IN8d0VnAYBJhFlT8Tgrd-95">
          <mxGeometry width="23.62204724409449" height="26.31578947368421" as="geometry" />
        </mxCell>
        <mxCell id="IN8d0VnAYBJhFlT8Tgrd-97" style="vsdxID=9;fillColor=#C0C0C0;gradientColor=none;shape=stencil(vVHLDsIgEPwajiQU4hfU+h8bu7RELM2CFv9eyMZYjCcP3mZ2Zh/ZEaaPM6wotIqJwgU3N6ZZmKPQ2i0zkksFCTMI09tAOFG4LSPzFaqzomu41wmZ+1Tt0OrB7MD0xE6gc5EoN5qi1vsa1Kmvo1SWkF2UFBIkF5ZmqweaUJY10nqYGiluiOuu3P182P/OKuD9Zuu855T2+mcspcSRmuEJ);strokeColor=#000000;spacingTop=-3;spacingBottom=-3;spacingLeft=-3;spacingRight=-3;labelBackgroundColor=none;rounded=0;html=1;whiteSpace=wrap;" vertex="1" parent="IN8d0VnAYBJhFlT8Tgrd-95">
          <mxGeometry x="6.6141732283464565" y="8.421052631578947" width="10.393700787401574" height="11.578947368421051" as="geometry" />
        </mxCell>
        <mxCell id="IN8d0VnAYBJhFlT8Tgrd-98" value="Discount" style="verticalAlign=middle;align=center;vsdxID=10;fillColor=#FFFFFF;gradientColor=none;shape=stencil(rZHdDsIgDIWfpreEtAmT6znfY8mYEBEWhn9vL9gLdUaTJd6dtl+b0xaonW0/GUA55xQP5uKGbIG2gOiCNcnlooA6oHaMyexTPIWB46mvZFXHeK4TrtxHsragvHGIQjWPxI5h78KfYN0Iou/0ZhWttVBvvFI/vXzwRGvcLBct4nnP0XnP73itL+9fUvw76u4=);strokeColor=none;spacingTop=1;spacingBottom=-1;spacingLeft=-1;spacingRight=-1;labelBackgroundColor=none;rounded=0;html=1;whiteSpace=wrap;" vertex="1" parent="IN8d0VnAYBJhFlT8Tgrd-93">
          <mxGeometry width="120" height="40" as="geometry" />
        </mxCell>
        <mxCell id="IN8d0VnAYBJhFlT8Tgrd-99" value="" style="group" vertex="1" connectable="0" parent="1">
          <mxGeometry x="80" y="540" width="120" height="40" as="geometry" />
        </mxCell>
        <mxCell id="IN8d0VnAYBJhFlT8Tgrd-100" style="vsdxID=6;fillColor=#FFFFFF;gradientColor=none;shape=stencil(vZPbDoIwDIafZpeQsSYo1x7eY9EBi5ORMgXf3i2FKAheaPSuh2/t/qZlsGlKWSsmeOPQnlSrj65ksGVC6KpUqJ23GOwYbHKLqkB7qY7k1zKQwTrba6jQ0TvBwxPBb+QmnPw9sUZXT+z6LSvx4HPYs0kWZxnh2PMAMQgKdeMKQ8U0jdNVT0Sy002E1kmnbUX5njYSCxX5flFuZDFKNa1S9Ut4Vs20efgefCloMiH+Ly1iru+sjIHEF9VDraWp/EHG0jZ8qGRht38ixBuPE8u1MXShz/npSfoQnTPs7g==);strokeColor=#000000;spacingTop=-3;spacingBottom=-3;spacingLeft=-3;spacingRight=-3;labelBackgroundColor=none;rounded=0;html=1;whiteSpace=wrap;" vertex="1" parent="IN8d0VnAYBJhFlT8Tgrd-99">
          <mxGeometry width="120" height="40" as="geometry" />
        </mxCell>
        <mxCell id="IN8d0VnAYBJhFlT8Tgrd-101" style="vsdxID=7;fillColor=none;gradientColor=none;strokeColor=none;spacingTop=-3;spacingBottom=-3;spacingLeft=-3;spacingRight=-3;labelBackgroundColor=none;rounded=0;html=1;whiteSpace=wrap;" vertex="1" parent="IN8d0VnAYBJhFlT8Tgrd-99">
          <mxGeometry x="5.669291338582677" y="6.315789473684211" width="23.62204724409449" height="26.31578947368421" as="geometry" />
        </mxCell>
        <mxCell id="IN8d0VnAYBJhFlT8Tgrd-102" value="&lt;font style=&quot;font-size:19px;font-family:Calibri;color:#000000;direction:ltr;letter-spacing:0px;line-height:120%;opacity:1&quot;&gt;{  }&lt;br/&gt;&lt;/font&gt;" style="verticalAlign=middle;align=center;vsdxID=8;fillColor=none;gradientColor=none;shape=stencil(nZBLDoAgDERP0z3SIyjew0SURgSD+Lu9kMZoXLhwN9O+tukAlrNpJg1SzDH4QW/URgNYgZTkjA4UkwJUgGXng+6DX1zLfmoymdXo17xh5zmRJ6Q42BWCfc2oJfdAr+Yv+AP9Cb7OJ3H/2JG1HNGz/84klThPVCc=);strokeColor=none;spacingTop=-3;spacingBottom=-3;spacingLeft=-3;spacingRight=-3;labelBackgroundColor=none;rounded=0;html=1;whiteSpace=wrap;" vertex="1" parent="IN8d0VnAYBJhFlT8Tgrd-101">
          <mxGeometry width="23.62204724409449" height="26.31578947368421" as="geometry" />
        </mxCell>
        <mxCell id="IN8d0VnAYBJhFlT8Tgrd-103" style="vsdxID=9;fillColor=#C0C0C0;gradientColor=none;shape=stencil(vVHLDsIgEPwajiQU4hfU+h8bu7RELM2CFv9eyMZYjCcP3mZ2Zh/ZEaaPM6wotIqJwgU3N6ZZmKPQ2i0zkksFCTMI09tAOFG4LSPzFaqzomu41wmZ+1Tt0OrB7MD0xE6gc5EoN5qi1vsa1Kmvo1SWkF2UFBIkF5ZmqweaUJY10nqYGiluiOuu3P182P/OKuD9Zuu855T2+mcspcSRmuEJ);strokeColor=#000000;spacingTop=-3;spacingBottom=-3;spacingLeft=-3;spacingRight=-3;labelBackgroundColor=none;rounded=0;html=1;whiteSpace=wrap;" vertex="1" parent="IN8d0VnAYBJhFlT8Tgrd-101">
          <mxGeometry x="6.6141732283464565" y="8.421052631578947" width="10.393700787401574" height="11.578947368421051" as="geometry" />
        </mxCell>
        <mxCell id="IN8d0VnAYBJhFlT8Tgrd-104" value="&lt;div align=&quot;right&quot;&gt;CostOfGoodsSold&lt;/div&gt;" style="verticalAlign=middle;align=right;vsdxID=10;fillColor=#FFFFFF;gradientColor=none;shape=stencil(rZHdDsIgDIWfpreEtAmT6znfY8mYEBEWhn9vL9gLdUaTJd6dtl+b0xaonW0/GUA55xQP5uKGbIG2gOiCNcnlooA6oHaMyexTPIWB46mvZFXHeK4TrtxHsragvHGIQjWPxI5h78KfYN0Iou/0ZhWttVBvvFI/vXzwRGvcLBct4nnP0XnP73itL+9fUvw76u4=);strokeColor=none;spacingTop=1;spacingBottom=-1;spacingLeft=-1;spacingRight=-1;labelBackgroundColor=none;rounded=0;html=1;whiteSpace=wrap;" vertex="1" parent="IN8d0VnAYBJhFlT8Tgrd-99">
          <mxGeometry width="120" height="40" as="geometry" />
        </mxCell>
        <mxCell id="IN8d0VnAYBJhFlT8Tgrd-105" value="" style="group" vertex="1" connectable="0" parent="1">
          <mxGeometry x="80" y="600" width="120" height="40" as="geometry" />
        </mxCell>
        <mxCell id="IN8d0VnAYBJhFlT8Tgrd-106" style="vsdxID=6;fillColor=#FFFFFF;gradientColor=none;shape=stencil(vZPbDoIwDIafZpeQsSYo1x7eY9EBi5ORMgXf3i2FKAheaPSuh2/t/qZlsGlKWSsmeOPQnlSrj65ksGVC6KpUqJ23GOwYbHKLqkB7qY7k1zKQwTrba6jQ0TvBwxPBb+QmnPw9sUZXT+z6LSvx4HPYs0kWZxnh2PMAMQgKdeMKQ8U0jdNVT0Sy002E1kmnbUX5njYSCxX5flFuZDFKNa1S9Ut4Vs20efgefCloMiH+Ly1iru+sjIHEF9VDraWp/EHG0jZ8qGRht38ixBuPE8u1MXShz/npSfoQnTPs7g==);strokeColor=#000000;spacingTop=-3;spacingBottom=-3;spacingLeft=-3;spacingRight=-3;labelBackgroundColor=none;rounded=0;html=1;whiteSpace=wrap;" vertex="1" parent="IN8d0VnAYBJhFlT8Tgrd-105">
          <mxGeometry width="120" height="40" as="geometry" />
        </mxCell>
        <mxCell id="IN8d0VnAYBJhFlT8Tgrd-107" style="vsdxID=7;fillColor=none;gradientColor=none;strokeColor=none;spacingTop=-3;spacingBottom=-3;spacingLeft=-3;spacingRight=-3;labelBackgroundColor=none;rounded=0;html=1;whiteSpace=wrap;" vertex="1" parent="IN8d0VnAYBJhFlT8Tgrd-105">
          <mxGeometry x="5.669291338582677" y="6.315789473684211" width="23.62204724409449" height="26.31578947368421" as="geometry" />
        </mxCell>
        <mxCell id="IN8d0VnAYBJhFlT8Tgrd-108" value="&lt;font style=&quot;font-size:19px;font-family:Calibri;color:#000000;direction:ltr;letter-spacing:0px;line-height:120%;opacity:1&quot;&gt;{  }&lt;br/&gt;&lt;/font&gt;" style="verticalAlign=middle;align=center;vsdxID=8;fillColor=none;gradientColor=none;shape=stencil(nZBLDoAgDERP0z3SIyjew0SURgSD+Lu9kMZoXLhwN9O+tukAlrNpJg1SzDH4QW/URgNYgZTkjA4UkwJUgGXng+6DX1zLfmoymdXo17xh5zmRJ6Q42BWCfc2oJfdAr+Yv+AP9Cb7OJ3H/2JG1HNGz/84klThPVCc=);strokeColor=none;spacingTop=-3;spacingBottom=-3;spacingLeft=-3;spacingRight=-3;labelBackgroundColor=none;rounded=0;html=1;whiteSpace=wrap;" vertex="1" parent="IN8d0VnAYBJhFlT8Tgrd-107">
          <mxGeometry width="23.62204724409449" height="26.31578947368421" as="geometry" />
        </mxCell>
        <mxCell id="IN8d0VnAYBJhFlT8Tgrd-109" style="vsdxID=9;fillColor=#C0C0C0;gradientColor=none;shape=stencil(vVHLDsIgEPwajiQU4hfU+h8bu7RELM2CFv9eyMZYjCcP3mZ2Zh/ZEaaPM6wotIqJwgU3N6ZZmKPQ2i0zkksFCTMI09tAOFG4LSPzFaqzomu41wmZ+1Tt0OrB7MD0xE6gc5EoN5qi1vsa1Kmvo1SWkF2UFBIkF5ZmqweaUJY10nqYGiluiOuu3P182P/OKuD9Zuu855T2+mcspcSRmuEJ);strokeColor=#000000;spacingTop=-3;spacingBottom=-3;spacingLeft=-3;spacingRight=-3;labelBackgroundColor=none;rounded=0;html=1;whiteSpace=wrap;" vertex="1" parent="IN8d0VnAYBJhFlT8Tgrd-107">
          <mxGeometry x="6.6141732283464565" y="8.421052631578947" width="10.393700787401574" height="11.578947368421051" as="geometry" />
        </mxCell>
        <mxCell id="IN8d0VnAYBJhFlT8Tgrd-110" value="&amp;nbsp;&amp;nbsp; SalesQuantity" style="verticalAlign=middle;align=center;vsdxID=10;fillColor=#FFFFFF;gradientColor=none;shape=stencil(rZHdDsIgDIWfpreEtAmT6znfY8mYEBEWhn9vL9gLdUaTJd6dtl+b0xaonW0/GUA55xQP5uKGbIG2gOiCNcnlooA6oHaMyexTPIWB46mvZFXHeK4TrtxHsragvHGIQjWPxI5h78KfYN0Iou/0ZhWttVBvvFI/vXzwRGvcLBct4nnP0XnP73itL+9fUvw76u4=);strokeColor=none;spacingTop=1;spacingBottom=-1;spacingLeft=-1;spacingRight=-1;labelBackgroundColor=none;rounded=0;html=1;whiteSpace=wrap;" vertex="1" parent="IN8d0VnAYBJhFlT8Tgrd-105">
          <mxGeometry width="120" height="40" as="geometry" />
        </mxCell>
        <mxCell id="IN8d0VnAYBJhFlT8Tgrd-114" style="vsdxID=5;edgeStyle=none;startArrow=none;endArrow=block;startSize=5;endSize=7;strokeColor=#000000;spacingTop=0;spacingBottom=0;spacingLeft=0;spacingRight=0;verticalAlign=middle;html=1;labelBackgroundColor=#FFFFFF;rounded=0;exitX=0;exitY=0.6;exitDx=0;exitDy=0;exitPerimeter=0;" edge="1" parent="1" source="IN8d0VnAYBJhFlT8Tgrd-9">
          <mxGeometry x="-113.8" y="-965" relative="1" as="geometry">
            <mxPoint x="-113.8" y="-965" as="offset" />
            <mxPoint x="60" y="380" as="sourcePoint" />
            <mxPoint x="80" y="620" as="targetPoint" />
            <Array as="points">
              <mxPoint x="60" y="384" />
              <mxPoint x="60" y="620" />
            </Array>
          </mxGeometry>
        </mxCell>
        <mxCell id="IN8d0VnAYBJhFlT8Tgrd-116" style="vsdxID=5;edgeStyle=none;startArrow=none;endArrow=block;startSize=5;endSize=7;strokeColor=#000000;spacingTop=0;spacingBottom=0;spacingLeft=0;spacingRight=0;verticalAlign=middle;html=1;labelBackgroundColor=#FFFFFF;rounded=0;" edge="1" parent="1">
          <mxGeometry x="-113.8" y="-965" relative="1" as="geometry">
            <mxPoint x="-113.8" y="-965" as="offset" />
            <mxPoint x="60" y="440" as="sourcePoint" />
            <mxPoint x="80" y="440" as="targetPoint" />
          </mxGeometry>
        </mxCell>
        <mxCell id="IN8d0VnAYBJhFlT8Tgrd-117" style="vsdxID=5;edgeStyle=none;startArrow=none;endArrow=block;startSize=5;endSize=7;strokeColor=#000000;spacingTop=0;spacingBottom=0;spacingLeft=0;spacingRight=0;verticalAlign=middle;html=1;labelBackgroundColor=#FFFFFF;rounded=0;" edge="1" parent="1">
          <mxGeometry x="-113.8" y="-965" relative="1" as="geometry">
            <mxPoint x="-113.8" y="-965" as="offset" />
            <mxPoint x="60" y="499.5" as="sourcePoint" />
            <mxPoint x="80" y="499.5" as="targetPoint" />
          </mxGeometry>
        </mxCell>
        <mxCell id="IN8d0VnAYBJhFlT8Tgrd-118" style="vsdxID=5;edgeStyle=none;startArrow=none;endArrow=block;startSize=5;endSize=7;strokeColor=#000000;spacingTop=0;spacingBottom=0;spacingLeft=0;spacingRight=0;verticalAlign=middle;html=1;labelBackgroundColor=#FFFFFF;rounded=0;" edge="1" parent="1">
          <mxGeometry x="-113.8" y="-965" relative="1" as="geometry">
            <mxPoint x="-113.8" y="-965" as="offset" />
            <mxPoint x="60" y="559.5" as="sourcePoint" />
            <mxPoint x="80" y="559.5" as="targetPoint" />
          </mxGeometry>
        </mxCell>
        <mxCell id="IN8d0VnAYBJhFlT8Tgrd-120" value="" style="group" vertex="1" connectable="0" parent="1">
          <mxGeometry x="260" y="520" width="120" height="40" as="geometry" />
        </mxCell>
        <mxCell id="IN8d0VnAYBJhFlT8Tgrd-121" style="vsdxID=6;fillColor=#FFFFFF;gradientColor=none;shape=stencil(vZPbDoIwDIafZpeQsSYo1x7eY9EBi5ORMgXf3i2FKAheaPSuh2/t/qZlsGlKWSsmeOPQnlSrj65ksGVC6KpUqJ23GOwYbHKLqkB7qY7k1zKQwTrba6jQ0TvBwxPBb+QmnPw9sUZXT+z6LSvx4HPYs0kWZxnh2PMAMQgKdeMKQ8U0jdNVT0Sy002E1kmnbUX5njYSCxX5flFuZDFKNa1S9Ut4Vs20efgefCloMiH+Ly1iru+sjIHEF9VDraWp/EHG0jZ8qGRht38ixBuPE8u1MXShz/npSfoQnTPs7g==);strokeColor=#000000;spacingTop=-3;spacingBottom=-3;spacingLeft=-3;spacingRight=-3;labelBackgroundColor=none;rounded=0;html=1;whiteSpace=wrap;" vertex="1" parent="IN8d0VnAYBJhFlT8Tgrd-120">
          <mxGeometry width="119.99999999999999" height="40" as="geometry" />
        </mxCell>
        <mxCell id="IN8d0VnAYBJhFlT8Tgrd-122" value="Year" style="verticalAlign=middle;align=center;vsdxID=7;fillColor=#FFFFFF;gradientColor=none;shape=stencil(rZHdDsIgDIWfpreEtAmT6znfY8mYEBEWhn9vL9gLdUaTJd6dtl+b0xaonW0/GUA55xQP5uKGbIG2gOiCNcnlooA6oHaMyexTPIWB46mvZFXHeK4TrtxHsragvHGIQjWPxI5h78KfYN0Iou/0ZhWttVBvvFI/vXzwRGvcLBct4nnP0XnP73itL+9fUvw76u4=);strokeColor=none;spacingTop=1;spacingBottom=-1;spacingLeft=-1;spacingRight=-1;labelBackgroundColor=none;rounded=0;html=1;whiteSpace=wrap;" vertex="1" parent="IN8d0VnAYBJhFlT8Tgrd-120">
          <mxGeometry width="119.99999999999999" height="40" as="geometry" />
        </mxCell>
        <mxCell id="IN8d0VnAYBJhFlT8Tgrd-123" style="vsdxID=8;fillColor=none;gradientColor=none;strokeColor=none;spacingTop=-3;spacingBottom=-3;spacingLeft=-3;spacingRight=-3;labelBackgroundColor=none;rounded=0;html=1;whiteSpace=wrap;" vertex="1" parent="IN8d0VnAYBJhFlT8Tgrd-120">
          <mxGeometry x="5.669291338582677" y="6.315789473684211" width="23.622047244094485" height="26.31578947368421" as="geometry" />
        </mxCell>
        <mxCell id="IN8d0VnAYBJhFlT8Tgrd-124" value="" style="verticalAlign=middle;align=center;vsdxID=9;fillColor=#C0C0C0;gradientColor=none;shape=stencil(UzV2Ls5ILEhVNTIoLinKz04tz0wpyVA1dlE1MsrMy0gtyiwBslSNXVWNndPyi1LTi/JL81Ig/IJEkEoQKze/DGRCBUSfqQFIi5FBJYQL4blBVOZk5iGpRFVoaIBHKUySKMX4XABkIByelpmTA/E3sjy6R4FCkEAydgUA);strokeColor=#000000;spacingTop=-3;spacingBottom=-3;spacingLeft=-3;spacingRight=-3;labelBackgroundColor=none;rounded=0;html=1;whiteSpace=wrap;" vertex="1" parent="IN8d0VnAYBJhFlT8Tgrd-123">
          <mxGeometry x="6.6141732283464565" y="7.368421052631579" width="10.393700787401574" height="9.473684210526315" as="geometry" />
        </mxCell>
        <mxCell id="IN8d0VnAYBJhFlT8Tgrd-125" value="&lt;font style=&quot;font-size:19px;font-family:Calibri;color:#000000;direction:ltr;letter-spacing:0px;line-height:120%;opacity:1&quot;&gt;{  }&lt;br/&gt;&lt;/font&gt;" style="verticalAlign=middle;align=center;vsdxID=10;fillColor=none;gradientColor=none;shape=stencil(nZBLDoAgDERP0z3SIyjew0SURgSD+Lu9kMZoXLhwN9O+tukAlrNpJg1SzDH4QW/URgNYgZTkjA4UkwJUgGXng+6DX1zLfmoymdXo17xh5zmRJ6Q42BWCfc2oJfdAr+Yv+AP9Cb7OJ3H/2JG1HNGz/84klThPVCc=);strokeColor=none;spacingTop=-3;spacingBottom=-3;spacingLeft=-3;spacingRight=-3;labelBackgroundColor=none;rounded=0;html=1;whiteSpace=wrap;" vertex="1" parent="IN8d0VnAYBJhFlT8Tgrd-123">
          <mxGeometry width="23.622047244094485" height="26.31578947368421" as="geometry" />
        </mxCell>
        <mxCell id="IN8d0VnAYBJhFlT8Tgrd-126" value="" style="group" vertex="1" connectable="0" parent="1">
          <mxGeometry x="260" y="600" width="120" height="40" as="geometry" />
        </mxCell>
        <mxCell id="IN8d0VnAYBJhFlT8Tgrd-127" style="vsdxID=6;fillColor=#FFFFFF;gradientColor=none;shape=stencil(vZPbDoIwDIafZpeQsSYo1x7eY9EBi5ORMgXf3i2FKAheaPSuh2/t/qZlsGlKWSsmeOPQnlSrj65ksGVC6KpUqJ23GOwYbHKLqkB7qY7k1zKQwTrba6jQ0TvBwxPBb+QmnPw9sUZXT+z6LSvx4HPYs0kWZxnh2PMAMQgKdeMKQ8U0jdNVT0Sy002E1kmnbUX5njYSCxX5flFuZDFKNa1S9Ut4Vs20efgefCloMiH+Ly1iru+sjIHEF9VDraWp/EHG0jZ8qGRht38ixBuPE8u1MXShz/npSfoQnTPs7g==);strokeColor=#000000;spacingTop=-3;spacingBottom=-3;spacingLeft=-3;spacingRight=-3;labelBackgroundColor=none;rounded=0;html=1;whiteSpace=wrap;" vertex="1" parent="IN8d0VnAYBJhFlT8Tgrd-126">
          <mxGeometry width="119.99999999999999" height="40" as="geometry" />
        </mxCell>
        <mxCell id="IN8d0VnAYBJhFlT8Tgrd-128" value="Month" style="verticalAlign=middle;align=center;vsdxID=7;fillColor=#FFFFFF;gradientColor=none;shape=stencil(rZHdDsIgDIWfpreEtAmT6znfY8mYEBEWhn9vL9gLdUaTJd6dtl+b0xaonW0/GUA55xQP5uKGbIG2gOiCNcnlooA6oHaMyexTPIWB46mvZFXHeK4TrtxHsragvHGIQjWPxI5h78KfYN0Iou/0ZhWttVBvvFI/vXzwRGvcLBct4nnP0XnP73itL+9fUvw76u4=);strokeColor=none;spacingTop=1;spacingBottom=-1;spacingLeft=-1;spacingRight=-1;labelBackgroundColor=none;rounded=0;html=1;whiteSpace=wrap;" vertex="1" parent="IN8d0VnAYBJhFlT8Tgrd-126">
          <mxGeometry width="119.99999999999999" height="40" as="geometry" />
        </mxCell>
        <mxCell id="IN8d0VnAYBJhFlT8Tgrd-129" style="vsdxID=8;fillColor=none;gradientColor=none;strokeColor=none;spacingTop=-3;spacingBottom=-3;spacingLeft=-3;spacingRight=-3;labelBackgroundColor=none;rounded=0;html=1;whiteSpace=wrap;" vertex="1" parent="IN8d0VnAYBJhFlT8Tgrd-126">
          <mxGeometry x="5.669291338582677" y="6.315789473684211" width="23.622047244094485" height="26.31578947368421" as="geometry" />
        </mxCell>
        <mxCell id="IN8d0VnAYBJhFlT8Tgrd-130" value="" style="verticalAlign=middle;align=center;vsdxID=9;fillColor=#C0C0C0;gradientColor=none;shape=stencil(UzV2Ls5ILEhVNTIoLinKz04tz0wpyVA1dlE1MsrMy0gtyiwBslSNXVWNndPyi1LTi/JL81Ig/IJEkEoQKze/DGRCBUSfqQFIi5FBJYQL4blBVOZk5iGpRFVoaIBHKUySKMX4XABkIByelpmTA/E3sjy6R4FCkEAydgUA);strokeColor=#000000;spacingTop=-3;spacingBottom=-3;spacingLeft=-3;spacingRight=-3;labelBackgroundColor=none;rounded=0;html=1;whiteSpace=wrap;" vertex="1" parent="IN8d0VnAYBJhFlT8Tgrd-129">
          <mxGeometry x="6.6141732283464565" y="7.368421052631579" width="10.393700787401574" height="9.473684210526315" as="geometry" />
        </mxCell>
        <mxCell id="IN8d0VnAYBJhFlT8Tgrd-131" value="&lt;font style=&quot;font-size:19px;font-family:Calibri;color:#000000;direction:ltr;letter-spacing:0px;line-height:120%;opacity:1&quot;&gt;{  }&lt;br/&gt;&lt;/font&gt;" style="verticalAlign=middle;align=center;vsdxID=10;fillColor=none;gradientColor=none;shape=stencil(nZBLDoAgDERP0z3SIyjew0SURgSD+Lu9kMZoXLhwN9O+tukAlrNpJg1SzDH4QW/URgNYgZTkjA4UkwJUgGXng+6DX1zLfmoymdXo17xh5zmRJ6Q42BWCfc2oJfdAr+Yv+AP9Cb7OJ3H/2JG1HNGz/84klThPVCc=);strokeColor=none;spacingTop=-3;spacingBottom=-3;spacingLeft=-3;spacingRight=-3;labelBackgroundColor=none;rounded=0;html=1;whiteSpace=wrap;" vertex="1" parent="IN8d0VnAYBJhFlT8Tgrd-129">
          <mxGeometry width="23.622047244094485" height="26.31578947368421" as="geometry" />
        </mxCell>
        <mxCell id="IN8d0VnAYBJhFlT8Tgrd-132" value="" style="group" vertex="1" connectable="0" parent="1">
          <mxGeometry x="260" y="680" width="120" height="40" as="geometry" />
        </mxCell>
        <mxCell id="IN8d0VnAYBJhFlT8Tgrd-133" style="vsdxID=6;fillColor=#FFFFFF;gradientColor=none;shape=stencil(vZPbDoIwDIafZpeQsSYo1x7eY9EBi5ORMgXf3i2FKAheaPSuh2/t/qZlsGlKWSsmeOPQnlSrj65ksGVC6KpUqJ23GOwYbHKLqkB7qY7k1zKQwTrba6jQ0TvBwxPBb+QmnPw9sUZXT+z6LSvx4HPYs0kWZxnh2PMAMQgKdeMKQ8U0jdNVT0Sy002E1kmnbUX5njYSCxX5flFuZDFKNa1S9Ut4Vs20efgefCloMiH+Ly1iru+sjIHEF9VDraWp/EHG0jZ8qGRht38ixBuPE8u1MXShz/npSfoQnTPs7g==);strokeColor=#000000;spacingTop=-3;spacingBottom=-3;spacingLeft=-3;spacingRight=-3;labelBackgroundColor=none;rounded=0;html=1;whiteSpace=wrap;" vertex="1" parent="IN8d0VnAYBJhFlT8Tgrd-132">
          <mxGeometry width="119.99999999999999" height="40" as="geometry" />
        </mxCell>
        <mxCell id="IN8d0VnAYBJhFlT8Tgrd-134" value="Day" style="verticalAlign=middle;align=center;vsdxID=7;fillColor=#FFFFFF;gradientColor=none;shape=stencil(rZHdDsIgDIWfpreEtAmT6znfY8mYEBEWhn9vL9gLdUaTJd6dtl+b0xaonW0/GUA55xQP5uKGbIG2gOiCNcnlooA6oHaMyexTPIWB46mvZFXHeK4TrtxHsragvHGIQjWPxI5h78KfYN0Iou/0ZhWttVBvvFI/vXzwRGvcLBct4nnP0XnP73itL+9fUvw76u4=);strokeColor=none;spacingTop=1;spacingBottom=-1;spacingLeft=-1;spacingRight=-1;labelBackgroundColor=none;rounded=0;html=1;whiteSpace=wrap;" vertex="1" parent="IN8d0VnAYBJhFlT8Tgrd-132">
          <mxGeometry width="119.99999999999999" height="40" as="geometry" />
        </mxCell>
        <mxCell id="IN8d0VnAYBJhFlT8Tgrd-135" style="vsdxID=8;fillColor=none;gradientColor=none;strokeColor=none;spacingTop=-3;spacingBottom=-3;spacingLeft=-3;spacingRight=-3;labelBackgroundColor=none;rounded=0;html=1;whiteSpace=wrap;" vertex="1" parent="IN8d0VnAYBJhFlT8Tgrd-132">
          <mxGeometry x="5.669291338582677" y="6.315789473684211" width="23.622047244094485" height="26.31578947368421" as="geometry" />
        </mxCell>
        <mxCell id="IN8d0VnAYBJhFlT8Tgrd-136" value="" style="verticalAlign=middle;align=center;vsdxID=9;fillColor=#C0C0C0;gradientColor=none;shape=stencil(UzV2Ls5ILEhVNTIoLinKz04tz0wpyVA1dlE1MsrMy0gtyiwBslSNXVWNndPyi1LTi/JL81Ig/IJEkEoQKze/DGRCBUSfqQFIi5FBJYQL4blBVOZk5iGpRFVoaIBHKUySKMX4XABkIByelpmTA/E3sjy6R4FCkEAydgUA);strokeColor=#000000;spacingTop=-3;spacingBottom=-3;spacingLeft=-3;spacingRight=-3;labelBackgroundColor=none;rounded=0;html=1;whiteSpace=wrap;" vertex="1" parent="IN8d0VnAYBJhFlT8Tgrd-135">
          <mxGeometry x="6.6141732283464565" y="7.368421052631579" width="10.393700787401574" height="9.473684210526315" as="geometry" />
        </mxCell>
        <mxCell id="IN8d0VnAYBJhFlT8Tgrd-137" value="&lt;font style=&quot;font-size:19px;font-family:Calibri;color:#000000;direction:ltr;letter-spacing:0px;line-height:120%;opacity:1&quot;&gt;{  }&lt;br/&gt;&lt;/font&gt;" style="verticalAlign=middle;align=center;vsdxID=10;fillColor=none;gradientColor=none;shape=stencil(nZBLDoAgDERP0z3SIyjew0SURgSD+Lu9kMZoXLhwN9O+tukAlrNpJg1SzDH4QW/URgNYgZTkjA4UkwJUgGXng+6DX1zLfmoymdXo17xh5zmRJ6Q42BWCfc2oJfdAr+Yv+AP9Cb7OJ3H/2JG1HNGz/84klThPVCc=);strokeColor=none;spacingTop=-3;spacingBottom=-3;spacingLeft=-3;spacingRight=-3;labelBackgroundColor=none;rounded=0;html=1;whiteSpace=wrap;" vertex="1" parent="IN8d0VnAYBJhFlT8Tgrd-135">
          <mxGeometry width="23.622047244094485" height="26.31578947368421" as="geometry" />
        </mxCell>
        <mxCell id="IN8d0VnAYBJhFlT8Tgrd-139" value="" style="startArrow=none;startFill=0;startSize=7;endArrow=none;endFill=0;endSize=10;html=1;strokeColor=#000000;strokeWidth=1;rounded=0;" edge="1" parent="1">
          <mxGeometry relative="1" as="geometry">
            <mxPoint x="320" y="600" as="sourcePoint" />
            <mxPoint x="320" y="560" as="targetPoint" />
            <Array as="points">
              <mxPoint x="320" y="590" />
            </Array>
          </mxGeometry>
        </mxCell>
        <mxCell id="IN8d0VnAYBJhFlT8Tgrd-140" value="" style="shape=stencil(vZRhD4IgEIZ/DV8bylx9bVb/gxCTiZwTyvr3gWhTi825anOOu3vv2cvNE5FUF7TmKMYFIgcUxxG2LxsqWnGfSaGqudLUCFC+pk0DJW9FZvomoQreCOOrbQ9KXEiOCO9t0j2vA0kZKMWZI+oudwoJz5SVlwauKpsoZrpBXVPn6E33UT30VHBz17971/3tHz5KfDT3t4AqhRpRt5tkwsU/4kbrwUyC5utapxOM8MzUt4YY7X4ywxn2vyMkqRUHvtrRFlhRYBFGohwavnxVciGl3+Og46mBAN4eurL/jXSVJw==);html=1;outlineConnect=0;labelBackgroundColor=#000000;fillColor=#000000;align=center;direction=south;aspect=fixed;" vertex="1" parent="IN8d0VnAYBJhFlT8Tgrd-139">
          <mxGeometry width="6" height="12" relative="1" as="geometry">
            <mxPoint x="-3" y="-7" as="offset" />
          </mxGeometry>
        </mxCell>
        <mxCell id="IN8d0VnAYBJhFlT8Tgrd-142" value="" style="startArrow=none;startFill=0;startSize=7;endArrow=none;endFill=0;endSize=10;html=1;strokeColor=#000000;strokeWidth=1;rounded=0;" edge="1" parent="1">
          <mxGeometry relative="1" as="geometry">
            <mxPoint x="318.5" y="680" as="sourcePoint" />
            <mxPoint x="318.5" y="640" as="targetPoint" />
            <Array as="points">
              <mxPoint x="318.5" y="670" />
            </Array>
          </mxGeometry>
        </mxCell>
        <mxCell id="IN8d0VnAYBJhFlT8Tgrd-143" value="" style="shape=stencil(vZRhD4IgEIZ/DV8bylx9bVb/gxCTiZwTyvr3gWhTi825anOOu3vv2cvNE5FUF7TmKMYFIgcUxxG2LxsqWnGfSaGqudLUCFC+pk0DJW9FZvomoQreCOOrbQ9KXEiOCO9t0j2vA0kZKMWZI+oudwoJz5SVlwauKpsoZrpBXVPn6E33UT30VHBz17971/3tHz5KfDT3t4AqhRpRt5tkwsU/4kbrwUyC5utapxOM8MzUt4YY7X4ywxn2vyMkqRUHvtrRFlhRYBFGohwavnxVciGl3+Og46mBAN4eurL/jXSVJw==);html=1;outlineConnect=0;labelBackgroundColor=#000000;fillColor=#000000;align=center;direction=south;aspect=fixed;" vertex="1" parent="IN8d0VnAYBJhFlT8Tgrd-142">
          <mxGeometry width="6" height="12" relative="1" as="geometry">
            <mxPoint x="-3" y="-7" as="offset" />
          </mxGeometry>
        </mxCell>
        <mxCell id="IN8d0VnAYBJhFlT8Tgrd-144" value="" style="group" vertex="1" connectable="0" parent="1">
          <mxGeometry x="530" y="520" width="120" height="300.00000000000006" as="geometry" />
        </mxCell>
        <mxCell id="IN8d0VnAYBJhFlT8Tgrd-145" style="vsdxID=6;fillColor=#FFFFFF;gradientColor=none;shape=stencil(vZPbDoIwDIafZpeQsSYo1x7eY9EBi5ORMgXf3i2FKAheaPSuh2/t/qZlsGlKWSsmeOPQnlSrj65ksGVC6KpUqJ23GOwYbHKLqkB7qY7k1zKQwTrba6jQ0TvBwxPBb+QmnPw9sUZXT+z6LSvx4HPYs0kWZxnh2PMAMQgKdeMKQ8U0jdNVT0Sy002E1kmnbUX5njYSCxX5flFuZDFKNa1S9Ut4Vs20efgefCloMiH+Ly1iru+sjIHEF9VDraWp/EHG0jZ8qGRht38ixBuPE8u1MXShz/npSfoQnTPs7g==);strokeColor=#000000;spacingTop=-3;spacingBottom=-3;spacingLeft=-3;spacingRight=-3;labelBackgroundColor=none;rounded=0;html=1;whiteSpace=wrap;" vertex="1" parent="IN8d0VnAYBJhFlT8Tgrd-144">
          <mxGeometry width="119.99999999999999" height="40" as="geometry" />
        </mxCell>
        <mxCell id="IN8d0VnAYBJhFlT8Tgrd-146" value="Division" style="verticalAlign=middle;align=center;vsdxID=7;fillColor=#FFFFFF;gradientColor=none;shape=stencil(rZHdDsIgDIWfpreEtAmT6znfY8mYEBEWhn9vL9gLdUaTJd6dtl+b0xaonW0/GUA55xQP5uKGbIG2gOiCNcnlooA6oHaMyexTPIWB46mvZFXHeK4TrtxHsragvHGIQjWPxI5h78KfYN0Iou/0ZhWttVBvvFI/vXzwRGvcLBct4nnP0XnP73itL+9fUvw76u4=);strokeColor=none;spacingTop=1;spacingBottom=-1;spacingLeft=-1;spacingRight=-1;labelBackgroundColor=none;rounded=0;html=1;whiteSpace=wrap;" vertex="1" parent="IN8d0VnAYBJhFlT8Tgrd-144">
          <mxGeometry width="119.99999999999999" height="40" as="geometry" />
        </mxCell>
        <mxCell id="IN8d0VnAYBJhFlT8Tgrd-147" style="vsdxID=8;fillColor=none;gradientColor=none;strokeColor=none;spacingTop=-3;spacingBottom=-3;spacingLeft=-3;spacingRight=-3;labelBackgroundColor=none;rounded=0;html=1;whiteSpace=wrap;" vertex="1" parent="IN8d0VnAYBJhFlT8Tgrd-144">
          <mxGeometry x="5.669291338582677" y="6.315789473684211" width="23.622047244094485" height="293.68421052631584" as="geometry" />
        </mxCell>
        <mxCell id="IN8d0VnAYBJhFlT8Tgrd-148" value="" style="verticalAlign=middle;align=center;vsdxID=9;fillColor=#C0C0C0;gradientColor=none;shape=stencil(UzV2Ls5ILEhVNTIoLinKz04tz0wpyVA1dlE1MsrMy0gtyiwBslSNXVWNndPyi1LTi/JL81Ig/IJEkEoQKze/DGRCBUSfqQFIi5FBJYQL4blBVOZk5iGpRFVoaIBHKUySKMX4XABkIByelpmTA/E3sjy6R4FCkEAydgUA);strokeColor=#000000;spacingTop=-3;spacingBottom=-3;spacingLeft=-3;spacingRight=-3;labelBackgroundColor=none;rounded=0;html=1;whiteSpace=wrap;" vertex="1" parent="IN8d0VnAYBJhFlT8Tgrd-147">
          <mxGeometry x="6.6141732283464565" y="7.368421052631579" width="10.393700787401574" height="9.473684210526315" as="geometry" />
        </mxCell>
        <mxCell id="IN8d0VnAYBJhFlT8Tgrd-149" value="&lt;font style=&quot;font-size:19px;font-family:Calibri;color:#000000;direction:ltr;letter-spacing:0px;line-height:120%;opacity:1&quot;&gt;{  }&lt;br/&gt;&lt;/font&gt;" style="verticalAlign=middle;align=center;vsdxID=10;fillColor=none;gradientColor=none;shape=stencil(nZBLDoAgDERP0z3SIyjew0SURgSD+Lu9kMZoXLhwN9O+tukAlrNpJg1SzDH4QW/URgNYgZTkjA4UkwJUgGXng+6DX1zLfmoymdXo17xh5zmRJ6Q42BWCfc2oJfdAr+Yv+AP9Cb7OJ3H/2JG1HNGz/84klThPVCc=);strokeColor=none;spacingTop=-3;spacingBottom=-3;spacingLeft=-3;spacingRight=-3;labelBackgroundColor=none;rounded=0;html=1;whiteSpace=wrap;" vertex="1" parent="IN8d0VnAYBJhFlT8Tgrd-147">
          <mxGeometry width="23.622047244094485" height="26.31578947368421" as="geometry" />
        </mxCell>
        <mxCell id="IN8d0VnAYBJhFlT8Tgrd-318" value="" style="group" vertex="1" connectable="0" parent="IN8d0VnAYBJhFlT8Tgrd-147">
          <mxGeometry x="-111.66929133858267" y="93.68421052631584" width="100" height="38" as="geometry" />
        </mxCell>
        <mxCell id="IN8d0VnAYBJhFlT8Tgrd-319" value="&lt;p style=&quot;align:left;margin-left:41;margin-right:0;margin-top:0px;margin-bottom:0px;text-indent:0;valign:middle;direction:ltr;&quot;&gt;&lt;/p&gt;" style="verticalAlign=middle;align=left;vsdxID=6;fillColor=#FFFFFF;gradientColor=none;shape=stencil(nZFRDoIwDIZP09dltAkcAPEeJAzXODcypuLt3RyJuAeivv1tvzZ/W6B21v2kAOUcvDurOw9BAx0Aka1WnkNUQB1QOzqvTt5d7ZDjqU9kUhd3SxOW3FdVAlMTyseakPIVHzNt2G7ptfgXvIeWLnbYz6HUCKJv4RpF3fzgolgvivcZRzYmf2FbL88eU/ll1D0B);strokeColor=#000000;spacingTop=1;spacingBottom=-1;spacingLeft=-1;spacingRight=-1;labelBackgroundColor=none;rounded=0;html=1;whiteSpace=wrap;" vertex="1" parent="IN8d0VnAYBJhFlT8Tgrd-318">
          <mxGeometry width="100" height="38" as="geometry" />
        </mxCell>
        <mxCell id="IN8d0VnAYBJhFlT8Tgrd-320" style="vsdxID=7;fillColor=#C0C0C0;gradientColor=none;shape=stencil(nZBNDoQgDIVP0z3SeALFe5iI0gwDBvHv9kIaM+rCxezea7++pA+wmkw7apBiisF/9EpdNIA1SEnO6EAxKUAFWPU+6CH42XXsxzaTWX39khM2vitFPpFiZ8uuYdKSu5B3sHwhH5mFeGHP5R+5NzKJ34s9WcsNXffPStKI60R1AA==);strokeColor=#000000;spacingTop=-3;spacingBottom=-3;spacingLeft=-3;spacingRight=-3;labelBackgroundColor=none;rounded=0;html=1;whiteSpace=wrap;" vertex="1" parent="IN8d0VnAYBJhFlT8Tgrd-318">
          <mxGeometry x="4.724409448818898" y="6" width="19.68503937007874" height="25" as="geometry" />
        </mxCell>
        <mxCell id="IN8d0VnAYBJhFlT8Tgrd-321" value="ID" style="verticalAlign=middle;align=center;vsdxID=8;fillColor=#FFFFFF;gradientColor=none;shape=stencil(nZBLDsIwDERP420U2RJV1qXco1JTYhGSKg2/25PUi1ZFLGA3Hj9b9gC1s+snC6jnnOLFPnjIDugIiBycTZyLAuqA2jEme07xFgapp76SVV3jvW54ypwxCusQ6pcYqA7NYpwE9xw2OOn/YdMoou/0xyW/8vtjili/Htl7CW3b36dULEmYujc=);strokeColor=none;spacingTop=1;spacingBottom=-1;spacingLeft=-1;spacingRight=-1;labelBackgroundColor=none;rounded=0;html=1;whiteSpace=wrap;" vertex="1" parent="IN8d0VnAYBJhFlT8Tgrd-318">
          <mxGeometry width="100" height="38" as="geometry" />
        </mxCell>
        <mxCell id="IN8d0VnAYBJhFlT8Tgrd-322" value="" style="group" vertex="1" connectable="0" parent="IN8d0VnAYBJhFlT8Tgrd-147">
          <mxGeometry x="-112.66929133858267" y="145.68421052631584" width="100" height="38" as="geometry" />
        </mxCell>
        <mxCell id="IN8d0VnAYBJhFlT8Tgrd-323" value="&lt;p style=&quot;align:left;margin-left:41;margin-right:0;margin-top:0px;margin-bottom:0px;text-indent:0;valign:middle;direction:ltr;&quot;&gt;&lt;/p&gt;" style="verticalAlign=middle;align=left;vsdxID=6;fillColor=#FFFFFF;gradientColor=none;shape=stencil(nZFRDoIwDIZP09dltAkcAPEeJAzXODcypuLt3RyJuAeivv1tvzZ/W6B21v2kAOUcvDurOw9BAx0Aka1WnkNUQB1QOzqvTt5d7ZDjqU9kUhd3SxOW3FdVAlMTyseakPIVHzNt2G7ptfgXvIeWLnbYz6HUCKJv4RpF3fzgolgvivcZRzYmf2FbL88eU/ll1D0B);strokeColor=#000000;spacingTop=1;spacingBottom=-1;spacingLeft=-1;spacingRight=-1;labelBackgroundColor=none;rounded=0;html=1;whiteSpace=wrap;" vertex="1" parent="IN8d0VnAYBJhFlT8Tgrd-322">
          <mxGeometry width="100" height="38" as="geometry" />
        </mxCell>
        <mxCell id="IN8d0VnAYBJhFlT8Tgrd-324" style="vsdxID=7;fillColor=#C0C0C0;gradientColor=none;shape=stencil(nZBNDoQgDIVP0z3SeALFe5iI0gwDBvHv9kIaM+rCxezea7++pA+wmkw7apBiisF/9EpdNIA1SEnO6EAxKUAFWPU+6CH42XXsxzaTWX39khM2vitFPpFiZ8uuYdKSu5B3sHwhH5mFeGHP5R+5NzKJ34s9WcsNXffPStKI60R1AA==);strokeColor=#000000;spacingTop=-3;spacingBottom=-3;spacingLeft=-3;spacingRight=-3;labelBackgroundColor=none;rounded=0;html=1;whiteSpace=wrap;" vertex="1" parent="IN8d0VnAYBJhFlT8Tgrd-322">
          <mxGeometry x="4.724409448818898" y="6" width="19.68503937007874" height="25" as="geometry" />
        </mxCell>
        <mxCell id="IN8d0VnAYBJhFlT8Tgrd-325" value="&lt;span style=&quot;white-space: pre;&quot;&gt;	&lt;/span&gt;Description" style="verticalAlign=middle;align=center;vsdxID=8;fillColor=#FFFFFF;gradientColor=none;shape=stencil(nZBLDsIwDERP420U2RJV1qXco1JTYhGSKg2/25PUi1ZFLGA3Hj9b9gC1s+snC6jnnOLFPnjIDugIiBycTZyLAuqA2jEme07xFgapp76SVV3jvW54ypwxCusQ6pcYqA7NYpwE9xw2OOn/YdMoou/0xyW/8vtjili/Htl7CW3b36dULEmYujc=);strokeColor=none;spacingTop=1;spacingBottom=-1;spacingLeft=-1;spacingRight=-1;labelBackgroundColor=none;rounded=0;html=1;whiteSpace=wrap;" vertex="1" parent="IN8d0VnAYBJhFlT8Tgrd-322">
          <mxGeometry width="100" height="38" as="geometry" />
        </mxCell>
        <mxCell id="IN8d0VnAYBJhFlT8Tgrd-326" value="" style="group" vertex="1" connectable="0" parent="IN8d0VnAYBJhFlT8Tgrd-147">
          <mxGeometry x="-112.66929133858267" y="-6.315789473684163" width="100" height="38" as="geometry" />
        </mxCell>
        <mxCell id="IN8d0VnAYBJhFlT8Tgrd-327" value="&lt;p style=&quot;align:left;margin-left:41;margin-right:0;margin-top:0px;margin-bottom:0px;text-indent:0;valign:middle;direction:ltr;&quot;&gt;&lt;/p&gt;" style="verticalAlign=middle;align=left;vsdxID=6;fillColor=#FFFFFF;gradientColor=none;shape=stencil(nZFRDoIwDIZP09dltAkcAPEeJAzXODcypuLt3RyJuAeivv1tvzZ/W6B21v2kAOUcvDurOw9BAx0Aka1WnkNUQB1QOzqvTt5d7ZDjqU9kUhd3SxOW3FdVAlMTyseakPIVHzNt2G7ptfgXvIeWLnbYz6HUCKJv4RpF3fzgolgvivcZRzYmf2FbL88eU/ll1D0B);strokeColor=#000000;spacingTop=1;spacingBottom=-1;spacingLeft=-1;spacingRight=-1;labelBackgroundColor=none;rounded=0;html=1;whiteSpace=wrap;" vertex="1" parent="IN8d0VnAYBJhFlT8Tgrd-326">
          <mxGeometry width="100" height="38" as="geometry" />
        </mxCell>
        <mxCell id="IN8d0VnAYBJhFlT8Tgrd-328" style="vsdxID=7;fillColor=#C0C0C0;gradientColor=none;shape=stencil(nZBNDoQgDIVP0z3SeALFe5iI0gwDBvHv9kIaM+rCxezea7++pA+wmkw7apBiisF/9EpdNIA1SEnO6EAxKUAFWPU+6CH42XXsxzaTWX39khM2vitFPpFiZ8uuYdKSu5B3sHwhH5mFeGHP5R+5NzKJ34s9WcsNXffPStKI60R1AA==);strokeColor=#000000;spacingTop=-3;spacingBottom=-3;spacingLeft=-3;spacingRight=-3;labelBackgroundColor=none;rounded=0;html=1;whiteSpace=wrap;" vertex="1" parent="IN8d0VnAYBJhFlT8Tgrd-326">
          <mxGeometry x="4.724409448818898" y="6" width="19.68503937007874" height="25" as="geometry" />
        </mxCell>
        <mxCell id="IN8d0VnAYBJhFlT8Tgrd-329" value="ID" style="verticalAlign=middle;align=center;vsdxID=8;fillColor=#FFFFFF;gradientColor=none;shape=stencil(nZBLDsIwDERP420U2RJV1qXco1JTYhGSKg2/25PUi1ZFLGA3Hj9b9gC1s+snC6jnnOLFPnjIDugIiBycTZyLAuqA2jEme07xFgapp76SVV3jvW54ypwxCusQ6pcYqA7NYpwE9xw2OOn/YdMoou/0xyW/8vtjili/Htl7CW3b36dULEmYujc=);strokeColor=none;spacingTop=1;spacingBottom=-1;spacingLeft=-1;spacingRight=-1;labelBackgroundColor=none;rounded=0;html=1;whiteSpace=wrap;" vertex="1" parent="IN8d0VnAYBJhFlT8Tgrd-326">
          <mxGeometry width="100" height="38" as="geometry" />
        </mxCell>
        <mxCell id="IN8d0VnAYBJhFlT8Tgrd-330" value="" style="group" vertex="1" connectable="0" parent="IN8d0VnAYBJhFlT8Tgrd-147">
          <mxGeometry x="-112.66929133858267" y="43.68421052631584" width="100" height="38" as="geometry" />
        </mxCell>
        <mxCell id="IN8d0VnAYBJhFlT8Tgrd-331" value="&lt;p style=&quot;align:left;margin-left:41;margin-right:0;margin-top:0px;margin-bottom:0px;text-indent:0;valign:middle;direction:ltr;&quot;&gt;&lt;/p&gt;" style="verticalAlign=middle;align=left;vsdxID=6;fillColor=#FFFFFF;gradientColor=none;shape=stencil(nZFRDoIwDIZP09dltAkcAPEeJAzXODcypuLt3RyJuAeivv1tvzZ/W6B21v2kAOUcvDurOw9BAx0Aka1WnkNUQB1QOzqvTt5d7ZDjqU9kUhd3SxOW3FdVAlMTyseakPIVHzNt2G7ptfgXvIeWLnbYz6HUCKJv4RpF3fzgolgvivcZRzYmf2FbL88eU/ll1D0B);strokeColor=#000000;spacingTop=1;spacingBottom=-1;spacingLeft=-1;spacingRight=-1;labelBackgroundColor=none;rounded=0;html=1;whiteSpace=wrap;" vertex="1" parent="IN8d0VnAYBJhFlT8Tgrd-330">
          <mxGeometry width="100" height="38" as="geometry" />
        </mxCell>
        <mxCell id="IN8d0VnAYBJhFlT8Tgrd-332" style="vsdxID=7;fillColor=#C0C0C0;gradientColor=none;shape=stencil(nZBNDoQgDIVP0z3SeALFe5iI0gwDBvHv9kIaM+rCxezea7++pA+wmkw7apBiisF/9EpdNIA1SEnO6EAxKUAFWPU+6CH42XXsxzaTWX39khM2vitFPpFiZ8uuYdKSu5B3sHwhH5mFeGHP5R+5NzKJ34s9WcsNXffPStKI60R1AA==);strokeColor=#000000;spacingTop=-3;spacingBottom=-3;spacingLeft=-3;spacingRight=-3;labelBackgroundColor=none;rounded=0;html=1;whiteSpace=wrap;" vertex="1" parent="IN8d0VnAYBJhFlT8Tgrd-330">
          <mxGeometry x="4.724409448818898" y="6" width="19.68503937007874" height="25" as="geometry" />
        </mxCell>
        <mxCell id="IN8d0VnAYBJhFlT8Tgrd-333" value="&lt;span style=&quot;white-space: pre;&quot;&gt;	&lt;/span&gt;Description" style="verticalAlign=middle;align=center;vsdxID=8;fillColor=#FFFFFF;gradientColor=none;shape=stencil(nZBLDsIwDERP420U2RJV1qXco1JTYhGSKg2/25PUi1ZFLGA3Hj9b9gC1s+snC6jnnOLFPnjIDugIiBycTZyLAuqA2jEme07xFgapp76SVV3jvW54ypwxCusQ6pcYqA7NYpwE9xw2OOn/YdMoou/0xyW/8vtjili/Htl7CW3b36dULEmYujc=);strokeColor=none;spacingTop=1;spacingBottom=-1;spacingLeft=-1;spacingRight=-1;labelBackgroundColor=none;rounded=0;html=1;whiteSpace=wrap;" vertex="1" parent="IN8d0VnAYBJhFlT8Tgrd-330">
          <mxGeometry width="100" height="38" as="geometry" />
        </mxCell>
        <mxCell id="IN8d0VnAYBJhFlT8Tgrd-334" style="vsdxID=5;edgeStyle=none;startArrow=none;endArrow=block;startSize=5;endSize=7;strokeColor=#000000;spacingTop=0;spacingBottom=0;spacingLeft=0;spacingRight=0;verticalAlign=middle;html=1;labelBackgroundColor=#FFFFFF;rounded=0;" edge="1" parent="IN8d0VnAYBJhFlT8Tgrd-147">
          <mxGeometry x="-113.8" y="-965" relative="1" as="geometry">
            <mxPoint x="-113.8" y="-965" as="offset" />
            <mxPoint x="-152.66929133858267" y="13.684210526315837" as="sourcePoint" />
            <mxPoint x="-112.66929133858267" y="13.684210526315837" as="targetPoint" />
          </mxGeometry>
        </mxCell>
        <mxCell id="IN8d0VnAYBJhFlT8Tgrd-335" style="vsdxID=5;edgeStyle=none;startArrow=none;endArrow=block;startSize=5;endSize=7;strokeColor=#000000;spacingTop=0;spacingBottom=0;spacingLeft=0;spacingRight=0;verticalAlign=middle;html=1;labelBackgroundColor=#FFFFFF;rounded=0;exitX=0.975;exitY=0.75;exitDx=0;exitDy=0;exitPerimeter=0;" edge="1" parent="IN8d0VnAYBJhFlT8Tgrd-147">
          <mxGeometry x="-113.8" y="-965" relative="1" as="geometry">
            <mxPoint x="-113.8" y="-965" as="offset" />
            <mxPoint x="-155.66929133858267" y="23.684210526315837" as="sourcePoint" />
            <mxPoint x="-112.66929133858267" y="63.68421052631584" as="targetPoint" />
          </mxGeometry>
        </mxCell>
        <mxCell id="IN8d0VnAYBJhFlT8Tgrd-336" style="vsdxID=5;edgeStyle=none;startArrow=none;endArrow=block;startSize=5;endSize=7;strokeColor=#000000;spacingTop=0;spacingBottom=0;spacingLeft=0;spacingRight=0;verticalAlign=middle;html=1;labelBackgroundColor=#FFFFFF;rounded=0;entryX=0.02;entryY=0.605;entryDx=0;entryDy=0;entryPerimeter=0;" edge="1" parent="IN8d0VnAYBJhFlT8Tgrd-147" target="IN8d0VnAYBJhFlT8Tgrd-319">
          <mxGeometry x="-113.8" y="-965" relative="1" as="geometry">
            <mxPoint x="-113.8" y="-965" as="offset" />
            <mxPoint x="-152.66929133858267" y="103.68421052631584" as="sourcePoint" />
            <mxPoint x="-112.66929133858267" y="103.68421052631584" as="targetPoint" />
          </mxGeometry>
        </mxCell>
        <mxCell id="IN8d0VnAYBJhFlT8Tgrd-337" style="vsdxID=5;edgeStyle=none;startArrow=none;endArrow=block;startSize=5;endSize=7;strokeColor=#000000;spacingTop=0;spacingBottom=0;spacingLeft=0;spacingRight=0;verticalAlign=middle;html=1;labelBackgroundColor=#FFFFFF;rounded=0;entryX=0;entryY=0.553;entryDx=0;entryDy=0;entryPerimeter=0;exitX=0.925;exitY=0.95;exitDx=0;exitDy=0;exitPerimeter=0;" edge="1" parent="IN8d0VnAYBJhFlT8Tgrd-147" target="IN8d0VnAYBJhFlT8Tgrd-323">
          <mxGeometry x="-113.8" y="-965" relative="1" as="geometry">
            <mxPoint x="-113.8" y="-965" as="offset" />
            <mxPoint x="-161.66929133858267" y="111.68421052631584" as="sourcePoint" />
            <mxPoint x="-119.66929133858267" y="131.68421052631584" as="targetPoint" />
          </mxGeometry>
        </mxCell>
        <mxCell id="IN8d0VnAYBJhFlT8Tgrd-338" value="" style="group" vertex="1" connectable="0" parent="IN8d0VnAYBJhFlT8Tgrd-147">
          <mxGeometry x="-111.66929133858267" y="203.68421052631584" width="100" height="38" as="geometry" />
        </mxCell>
        <mxCell id="IN8d0VnAYBJhFlT8Tgrd-339" value="&lt;p style=&quot;align:left;margin-left:41;margin-right:0;margin-top:0px;margin-bottom:0px;text-indent:0;valign:middle;direction:ltr;&quot;&gt;&lt;/p&gt;" style="verticalAlign=middle;align=left;vsdxID=6;fillColor=#FFFFFF;gradientColor=none;shape=stencil(nZFRDoIwDIZP09dltAkcAPEeJAzXODcypuLt3RyJuAeivv1tvzZ/W6B21v2kAOUcvDurOw9BAx0Aka1WnkNUQB1QOzqvTt5d7ZDjqU9kUhd3SxOW3FdVAlMTyseakPIVHzNt2G7ptfgXvIeWLnbYz6HUCKJv4RpF3fzgolgvivcZRzYmf2FbL88eU/ll1D0B);strokeColor=#000000;spacingTop=1;spacingBottom=-1;spacingLeft=-1;spacingRight=-1;labelBackgroundColor=none;rounded=0;html=1;whiteSpace=wrap;" vertex="1" parent="IN8d0VnAYBJhFlT8Tgrd-338">
          <mxGeometry width="100" height="38" as="geometry" />
        </mxCell>
        <mxCell id="IN8d0VnAYBJhFlT8Tgrd-340" style="vsdxID=7;fillColor=#C0C0C0;gradientColor=none;shape=stencil(nZBNDoQgDIVP0z3SeALFe5iI0gwDBvHv9kIaM+rCxezea7++pA+wmkw7apBiisF/9EpdNIA1SEnO6EAxKUAFWPU+6CH42XXsxzaTWX39khM2vitFPpFiZ8uuYdKSu5B3sHwhH5mFeGHP5R+5NzKJ34s9WcsNXffPStKI60R1AA==);strokeColor=#000000;spacingTop=-3;spacingBottom=-3;spacingLeft=-3;spacingRight=-3;labelBackgroundColor=none;rounded=0;html=1;whiteSpace=wrap;" vertex="1" parent="IN8d0VnAYBJhFlT8Tgrd-338">
          <mxGeometry x="4.724409448818898" y="6" width="19.68503937007874" height="25" as="geometry" />
        </mxCell>
        <mxCell id="IN8d0VnAYBJhFlT8Tgrd-341" value="ID" style="verticalAlign=middle;align=center;vsdxID=8;fillColor=#FFFFFF;gradientColor=none;shape=stencil(nZBLDsIwDERP420U2RJV1qXco1JTYhGSKg2/25PUi1ZFLGA3Hj9b9gC1s+snC6jnnOLFPnjIDugIiBycTZyLAuqA2jEme07xFgapp76SVV3jvW54ypwxCusQ6pcYqA7NYpwE9xw2OOn/YdMoou/0xyW/8vtjili/Htl7CW3b36dULEmYujc=);strokeColor=none;spacingTop=1;spacingBottom=-1;spacingLeft=-1;spacingRight=-1;labelBackgroundColor=none;rounded=0;html=1;whiteSpace=wrap;" vertex="1" parent="IN8d0VnAYBJhFlT8Tgrd-338">
          <mxGeometry width="100" height="38" as="geometry" />
        </mxCell>
        <mxCell id="IN8d0VnAYBJhFlT8Tgrd-342" value="" style="group" vertex="1" connectable="0" parent="IN8d0VnAYBJhFlT8Tgrd-147">
          <mxGeometry x="-112.66929133858267" y="255.68421052631584" width="100" height="38" as="geometry" />
        </mxCell>
        <mxCell id="IN8d0VnAYBJhFlT8Tgrd-343" value="&lt;p style=&quot;align:left;margin-left:41;margin-right:0;margin-top:0px;margin-bottom:0px;text-indent:0;valign:middle;direction:ltr;&quot;&gt;&lt;/p&gt;" style="verticalAlign=middle;align=left;vsdxID=6;fillColor=#FFFFFF;gradientColor=none;shape=stencil(nZFRDoIwDIZP09dltAkcAPEeJAzXODcypuLt3RyJuAeivv1tvzZ/W6B21v2kAOUcvDurOw9BAx0Aka1WnkNUQB1QOzqvTt5d7ZDjqU9kUhd3SxOW3FdVAlMTyseakPIVHzNt2G7ptfgXvIeWLnbYz6HUCKJv4RpF3fzgolgvivcZRzYmf2FbL88eU/ll1D0B);strokeColor=#000000;spacingTop=1;spacingBottom=-1;spacingLeft=-1;spacingRight=-1;labelBackgroundColor=none;rounded=0;html=1;whiteSpace=wrap;" vertex="1" parent="IN8d0VnAYBJhFlT8Tgrd-342">
          <mxGeometry width="100" height="38" as="geometry" />
        </mxCell>
        <mxCell id="IN8d0VnAYBJhFlT8Tgrd-344" style="vsdxID=7;fillColor=#C0C0C0;gradientColor=none;shape=stencil(nZBNDoQgDIVP0z3SeALFe5iI0gwDBvHv9kIaM+rCxezea7++pA+wmkw7apBiisF/9EpdNIA1SEnO6EAxKUAFWPU+6CH42XXsxzaTWX39khM2vitFPpFiZ8uuYdKSu5B3sHwhH5mFeGHP5R+5NzKJ34s9WcsNXffPStKI60R1AA==);strokeColor=#000000;spacingTop=-3;spacingBottom=-3;spacingLeft=-3;spacingRight=-3;labelBackgroundColor=none;rounded=0;html=1;whiteSpace=wrap;" vertex="1" parent="IN8d0VnAYBJhFlT8Tgrd-342">
          <mxGeometry x="4.724409448818898" y="6" width="19.68503937007874" height="25" as="geometry" />
        </mxCell>
        <mxCell id="IN8d0VnAYBJhFlT8Tgrd-345" value="&lt;span style=&quot;white-space: pre;&quot;&gt;	&lt;/span&gt;Description" style="verticalAlign=middle;align=center;vsdxID=8;fillColor=#FFFFFF;gradientColor=none;shape=stencil(nZBLDsIwDERP420U2RJV1qXco1JTYhGSKg2/25PUi1ZFLGA3Hj9b9gC1s+snC6jnnOLFPnjIDugIiBycTZyLAuqA2jEme07xFgapp76SVV3jvW54ypwxCusQ6pcYqA7NYpwE9xw2OOn/YdMoou/0xyW/8vtjili/Htl7CW3b36dULEmYujc=);strokeColor=none;spacingTop=1;spacingBottom=-1;spacingLeft=-1;spacingRight=-1;labelBackgroundColor=none;rounded=0;html=1;whiteSpace=wrap;" vertex="1" parent="IN8d0VnAYBJhFlT8Tgrd-342">
          <mxGeometry width="100" height="38" as="geometry" />
        </mxCell>
        <mxCell id="IN8d0VnAYBJhFlT8Tgrd-346" style="vsdxID=5;edgeStyle=none;startArrow=none;endArrow=block;startSize=5;endSize=7;strokeColor=#000000;spacingTop=0;spacingBottom=0;spacingLeft=0;spacingRight=0;verticalAlign=middle;html=1;labelBackgroundColor=#FFFFFF;rounded=0;entryX=0.02;entryY=0.605;entryDx=0;entryDy=0;entryPerimeter=0;exitX=0.917;exitY=0.75;exitDx=0;exitDy=0;exitPerimeter=0;" edge="1" parent="IN8d0VnAYBJhFlT8Tgrd-147" target="IN8d0VnAYBJhFlT8Tgrd-339">
          <mxGeometry x="-113.8" y="-965" relative="1" as="geometry">
            <mxPoint x="-113.8" y="-965" as="offset" />
            <mxPoint x="-161.66929133858267" y="183.68421052631584" as="sourcePoint" />
            <mxPoint x="-112.66929133858267" y="213.68421052631584" as="targetPoint" />
          </mxGeometry>
        </mxCell>
        <mxCell id="IN8d0VnAYBJhFlT8Tgrd-347" style="vsdxID=5;edgeStyle=none;startArrow=none;endArrow=block;startSize=5;endSize=7;strokeColor=#000000;spacingTop=0;spacingBottom=0;spacingLeft=0;spacingRight=0;verticalAlign=middle;html=1;labelBackgroundColor=#FFFFFF;rounded=0;entryX=0;entryY=0.553;entryDx=0;entryDy=0;entryPerimeter=0;exitX=0.8;exitY=1.075;exitDx=0;exitDy=0;exitPerimeter=0;" edge="1" parent="IN8d0VnAYBJhFlT8Tgrd-147" target="IN8d0VnAYBJhFlT8Tgrd-343">
          <mxGeometry x="-113.8" y="-965" relative="1" as="geometry">
            <mxPoint x="-113.8" y="-965" as="offset" />
            <mxPoint x="-175.66929133858267" y="196.68421052631584" as="sourcePoint" />
            <mxPoint x="-119.66929133858267" y="241.68421052631584" as="targetPoint" />
          </mxGeometry>
        </mxCell>
        <mxCell id="IN8d0VnAYBJhFlT8Tgrd-150" value="" style="group" vertex="1" connectable="0" parent="1">
          <mxGeometry x="530" y="600" width="120" height="40" as="geometry" />
        </mxCell>
        <mxCell id="IN8d0VnAYBJhFlT8Tgrd-151" style="vsdxID=6;fillColor=#FFFFFF;gradientColor=none;shape=stencil(vZPbDoIwDIafZpeQsSYo1x7eY9EBi5ORMgXf3i2FKAheaPSuh2/t/qZlsGlKWSsmeOPQnlSrj65ksGVC6KpUqJ23GOwYbHKLqkB7qY7k1zKQwTrba6jQ0TvBwxPBb+QmnPw9sUZXT+z6LSvx4HPYs0kWZxnh2PMAMQgKdeMKQ8U0jdNVT0Sy002E1kmnbUX5njYSCxX5flFuZDFKNa1S9Ut4Vs20efgefCloMiH+Ly1iru+sjIHEF9VDraWp/EHG0jZ8qGRht38ixBuPE8u1MXShz/npSfoQnTPs7g==);strokeColor=#000000;spacingTop=-3;spacingBottom=-3;spacingLeft=-3;spacingRight=-3;labelBackgroundColor=none;rounded=0;html=1;whiteSpace=wrap;" vertex="1" parent="IN8d0VnAYBJhFlT8Tgrd-150">
          <mxGeometry width="119.99999999999999" height="40" as="geometry" />
        </mxCell>
        <mxCell id="IN8d0VnAYBJhFlT8Tgrd-152" value="&lt;div align=&quot;right&quot;&gt;ProductCategory&lt;br&gt;&lt;/div&gt;" style="verticalAlign=middle;align=right;vsdxID=7;fillColor=#FFFFFF;gradientColor=none;shape=stencil(rZHdDsIgDIWfpreEtAmT6znfY8mYEBEWhn9vL9gLdUaTJd6dtl+b0xaonW0/GUA55xQP5uKGbIG2gOiCNcnlooA6oHaMyexTPIWB46mvZFXHeK4TrtxHsragvHGIQjWPxI5h78KfYN0Iou/0ZhWttVBvvFI/vXzwRGvcLBct4nnP0XnP73itL+9fUvw76u4=);strokeColor=none;spacingTop=1;spacingBottom=-1;spacingLeft=-1;spacingRight=-1;labelBackgroundColor=none;rounded=0;html=1;whiteSpace=wrap;" vertex="1" parent="IN8d0VnAYBJhFlT8Tgrd-150">
          <mxGeometry width="119.99999999999999" height="40" as="geometry" />
        </mxCell>
        <mxCell id="IN8d0VnAYBJhFlT8Tgrd-153" style="vsdxID=8;fillColor=none;gradientColor=none;strokeColor=none;spacingTop=-3;spacingBottom=-3;spacingLeft=-3;spacingRight=-3;labelBackgroundColor=none;rounded=0;html=1;whiteSpace=wrap;" vertex="1" parent="IN8d0VnAYBJhFlT8Tgrd-150">
          <mxGeometry x="5.669291338582677" y="6.315789473684211" width="23.622047244094485" height="26.31578947368421" as="geometry" />
        </mxCell>
        <mxCell id="IN8d0VnAYBJhFlT8Tgrd-154" value="" style="verticalAlign=middle;align=center;vsdxID=9;fillColor=#C0C0C0;gradientColor=none;shape=stencil(UzV2Ls5ILEhVNTIoLinKz04tz0wpyVA1dlE1MsrMy0gtyiwBslSNXVWNndPyi1LTi/JL81Ig/IJEkEoQKze/DGRCBUSfqQFIi5FBJYQL4blBVOZk5iGpRFVoaIBHKUySKMX4XABkIByelpmTA/E3sjy6R4FCkEAydgUA);strokeColor=#000000;spacingTop=-3;spacingBottom=-3;spacingLeft=-3;spacingRight=-3;labelBackgroundColor=none;rounded=0;html=1;whiteSpace=wrap;" vertex="1" parent="IN8d0VnAYBJhFlT8Tgrd-153">
          <mxGeometry x="6.6141732283464565" y="7.368421052631579" width="10.393700787401574" height="9.473684210526315" as="geometry" />
        </mxCell>
        <mxCell id="IN8d0VnAYBJhFlT8Tgrd-155" value="&lt;font style=&quot;font-size:19px;font-family:Calibri;color:#000000;direction:ltr;letter-spacing:0px;line-height:120%;opacity:1&quot;&gt;{  }&lt;br/&gt;&lt;/font&gt;" style="verticalAlign=middle;align=center;vsdxID=10;fillColor=none;gradientColor=none;shape=stencil(nZBLDoAgDERP0z3SIyjew0SURgSD+Lu9kMZoXLhwN9O+tukAlrNpJg1SzDH4QW/URgNYgZTkjA4UkwJUgGXng+6DX1zLfmoymdXo17xh5zmRJ6Q42BWCfc2oJfdAr+Yv+AP9Cb7OJ3H/2JG1HNGz/84klThPVCc=);strokeColor=none;spacingTop=-3;spacingBottom=-3;spacingLeft=-3;spacingRight=-3;labelBackgroundColor=none;rounded=0;html=1;whiteSpace=wrap;" vertex="1" parent="IN8d0VnAYBJhFlT8Tgrd-153">
          <mxGeometry width="23.622047244094485" height="26.31578947368421" as="geometry" />
        </mxCell>
        <mxCell id="IN8d0VnAYBJhFlT8Tgrd-156" value="" style="group" vertex="1" connectable="0" parent="1">
          <mxGeometry x="530" y="680" width="120" height="40" as="geometry" />
        </mxCell>
        <mxCell id="IN8d0VnAYBJhFlT8Tgrd-157" style="vsdxID=6;fillColor=#FFFFFF;gradientColor=none;shape=stencil(vZPbDoIwDIafZpeQsSYo1x7eY9EBi5ORMgXf3i2FKAheaPSuh2/t/qZlsGlKWSsmeOPQnlSrj65ksGVC6KpUqJ23GOwYbHKLqkB7qY7k1zKQwTrba6jQ0TvBwxPBb+QmnPw9sUZXT+z6LSvx4HPYs0kWZxnh2PMAMQgKdeMKQ8U0jdNVT0Sy002E1kmnbUX5njYSCxX5flFuZDFKNa1S9Ut4Vs20efgefCloMiH+Ly1iru+sjIHEF9VDraWp/EHG0jZ8qGRht38ixBuPE8u1MXShz/npSfoQnTPs7g==);strokeColor=#000000;spacingTop=-3;spacingBottom=-3;spacingLeft=-3;spacingRight=-3;labelBackgroundColor=none;rounded=0;html=1;whiteSpace=wrap;" vertex="1" parent="IN8d0VnAYBJhFlT8Tgrd-156">
          <mxGeometry width="119.99999999999999" height="40" as="geometry" />
        </mxCell>
        <mxCell id="IN8d0VnAYBJhFlT8Tgrd-158" value="Product" style="verticalAlign=middle;align=center;vsdxID=7;fillColor=#FFFFFF;gradientColor=none;shape=stencil(rZHdDsIgDIWfpreEtAmT6znfY8mYEBEWhn9vL9gLdUaTJd6dtl+b0xaonW0/GUA55xQP5uKGbIG2gOiCNcnlooA6oHaMyexTPIWB46mvZFXHeK4TrtxHsragvHGIQjWPxI5h78KfYN0Iou/0ZhWttVBvvFI/vXzwRGvcLBct4nnP0XnP73itL+9fUvw76u4=);strokeColor=none;spacingTop=1;spacingBottom=-1;spacingLeft=-1;spacingRight=-1;labelBackgroundColor=none;rounded=0;html=1;whiteSpace=wrap;" vertex="1" parent="IN8d0VnAYBJhFlT8Tgrd-156">
          <mxGeometry width="119.99999999999999" height="40" as="geometry" />
        </mxCell>
        <mxCell id="IN8d0VnAYBJhFlT8Tgrd-159" style="vsdxID=8;fillColor=none;gradientColor=none;strokeColor=none;spacingTop=-3;spacingBottom=-3;spacingLeft=-3;spacingRight=-3;labelBackgroundColor=none;rounded=0;html=1;whiteSpace=wrap;" vertex="1" parent="IN8d0VnAYBJhFlT8Tgrd-156">
          <mxGeometry x="5.669291338582677" y="6.315789473684211" width="23.622047244094485" height="26.31578947368421" as="geometry" />
        </mxCell>
        <mxCell id="IN8d0VnAYBJhFlT8Tgrd-160" value="" style="verticalAlign=middle;align=center;vsdxID=9;fillColor=#C0C0C0;gradientColor=none;shape=stencil(UzV2Ls5ILEhVNTIoLinKz04tz0wpyVA1dlE1MsrMy0gtyiwBslSNXVWNndPyi1LTi/JL81Ig/IJEkEoQKze/DGRCBUSfqQFIi5FBJYQL4blBVOZk5iGpRFVoaIBHKUySKMX4XABkIByelpmTA/E3sjy6R4FCkEAydgUA);strokeColor=#000000;spacingTop=-3;spacingBottom=-3;spacingLeft=-3;spacingRight=-3;labelBackgroundColor=none;rounded=0;html=1;whiteSpace=wrap;" vertex="1" parent="IN8d0VnAYBJhFlT8Tgrd-159">
          <mxGeometry x="6.6141732283464565" y="7.368421052631579" width="10.393700787401574" height="9.473684210526315" as="geometry" />
        </mxCell>
        <mxCell id="IN8d0VnAYBJhFlT8Tgrd-161" value="&lt;font style=&quot;font-size:19px;font-family:Calibri;color:#000000;direction:ltr;letter-spacing:0px;line-height:120%;opacity:1&quot;&gt;{  }&lt;br/&gt;&lt;/font&gt;" style="verticalAlign=middle;align=center;vsdxID=10;fillColor=none;gradientColor=none;shape=stencil(nZBLDoAgDERP0z3SIyjew0SURgSD+Lu9kMZoXLhwN9O+tukAlrNpJg1SzDH4QW/URgNYgZTkjA4UkwJUgGXng+6DX1zLfmoymdXo17xh5zmRJ6Q42BWCfc2oJfdAr+Yv+AP9Cb7OJ3H/2JG1HNGz/84klThPVCc=);strokeColor=none;spacingTop=-3;spacingBottom=-3;spacingLeft=-3;spacingRight=-3;labelBackgroundColor=none;rounded=0;html=1;whiteSpace=wrap;" vertex="1" parent="IN8d0VnAYBJhFlT8Tgrd-159">
          <mxGeometry width="23.622047244094485" height="26.31578947368421" as="geometry" />
        </mxCell>
        <mxCell id="IN8d0VnAYBJhFlT8Tgrd-162" value="" style="startArrow=none;startFill=0;startSize=7;endArrow=none;endFill=0;endSize=10;html=1;strokeColor=#000000;strokeWidth=1;rounded=0;" edge="1" parent="1">
          <mxGeometry relative="1" as="geometry">
            <mxPoint x="590" y="600" as="sourcePoint" />
            <mxPoint x="590" y="560" as="targetPoint" />
            <Array as="points">
              <mxPoint x="590" y="590" />
            </Array>
          </mxGeometry>
        </mxCell>
        <mxCell id="IN8d0VnAYBJhFlT8Tgrd-163" value="" style="shape=stencil(vZRhD4IgEIZ/DV8bylx9bVb/gxCTiZwTyvr3gWhTi825anOOu3vv2cvNE5FUF7TmKMYFIgcUxxG2LxsqWnGfSaGqudLUCFC+pk0DJW9FZvomoQreCOOrbQ9KXEiOCO9t0j2vA0kZKMWZI+oudwoJz5SVlwauKpsoZrpBXVPn6E33UT30VHBz17971/3tHz5KfDT3t4AqhRpRt5tkwsU/4kbrwUyC5utapxOM8MzUt4YY7X4ywxn2vyMkqRUHvtrRFlhRYBFGohwavnxVciGl3+Og46mBAN4eurL/jXSVJw==);html=1;outlineConnect=0;labelBackgroundColor=#000000;fillColor=#000000;align=center;direction=south;aspect=fixed;" vertex="1" parent="IN8d0VnAYBJhFlT8Tgrd-162">
          <mxGeometry width="6" height="12" relative="1" as="geometry">
            <mxPoint x="-3" y="-7" as="offset" />
          </mxGeometry>
        </mxCell>
        <mxCell id="IN8d0VnAYBJhFlT8Tgrd-164" value="" style="startArrow=none;startFill=0;startSize=7;endArrow=none;endFill=0;endSize=10;html=1;strokeColor=#000000;strokeWidth=1;rounded=0;" edge="1" parent="1">
          <mxGeometry relative="1" as="geometry">
            <mxPoint x="588.5" y="680" as="sourcePoint" />
            <mxPoint x="588.5" y="640" as="targetPoint" />
            <Array as="points">
              <mxPoint x="588.5" y="670" />
            </Array>
          </mxGeometry>
        </mxCell>
        <mxCell id="IN8d0VnAYBJhFlT8Tgrd-165" value="" style="shape=stencil(vZRhD4IgEIZ/DV8bylx9bVb/gxCTiZwTyvr3gWhTi825anOOu3vv2cvNE5FUF7TmKMYFIgcUxxG2LxsqWnGfSaGqudLUCFC+pk0DJW9FZvomoQreCOOrbQ9KXEiOCO9t0j2vA0kZKMWZI+oudwoJz5SVlwauKpsoZrpBXVPn6E33UT30VHBz17971/3tHz5KfDT3t4AqhRpRt5tkwsU/4kbrwUyC5utapxOM8MzUt4YY7X4ywxn2vyMkqRUHvtrRFlhRYBFGohwavnxVciGl3+Og46mBAN4eurL/jXSVJw==);html=1;outlineConnect=0;labelBackgroundColor=#000000;fillColor=#000000;align=center;direction=south;aspect=fixed;" vertex="1" parent="IN8d0VnAYBJhFlT8Tgrd-164">
          <mxGeometry width="6" height="12" relative="1" as="geometry">
            <mxPoint x="-3" y="-7" as="offset" />
          </mxGeometry>
        </mxCell>
        <mxCell id="IN8d0VnAYBJhFlT8Tgrd-166" value="" style="group" vertex="1" connectable="0" parent="1">
          <mxGeometry x="820" y="520" width="120" height="40" as="geometry" />
        </mxCell>
        <mxCell id="IN8d0VnAYBJhFlT8Tgrd-167" style="vsdxID=6;fillColor=#FFFFFF;gradientColor=none;shape=stencil(vZPbDoIwDIafZpeQsSYo1x7eY9EBi5ORMgXf3i2FKAheaPSuh2/t/qZlsGlKWSsmeOPQnlSrj65ksGVC6KpUqJ23GOwYbHKLqkB7qY7k1zKQwTrba6jQ0TvBwxPBb+QmnPw9sUZXT+z6LSvx4HPYs0kWZxnh2PMAMQgKdeMKQ8U0jdNVT0Sy002E1kmnbUX5njYSCxX5flFuZDFKNa1S9Ut4Vs20efgefCloMiH+Ly1iru+sjIHEF9VDraWp/EHG0jZ8qGRht38ixBuPE8u1MXShz/npSfoQnTPs7g==);strokeColor=#000000;spacingTop=-3;spacingBottom=-3;spacingLeft=-3;spacingRight=-3;labelBackgroundColor=none;rounded=0;html=1;whiteSpace=wrap;" vertex="1" parent="IN8d0VnAYBJhFlT8Tgrd-166">
          <mxGeometry width="119.99999999999999" height="40" as="geometry" />
        </mxCell>
        <mxCell id="IN8d0VnAYBJhFlT8Tgrd-168" value="Country" style="verticalAlign=middle;align=center;vsdxID=7;fillColor=#FFFFFF;gradientColor=none;shape=stencil(rZHdDsIgDIWfpreEtAmT6znfY8mYEBEWhn9vL9gLdUaTJd6dtl+b0xaonW0/GUA55xQP5uKGbIG2gOiCNcnlooA6oHaMyexTPIWB46mvZFXHeK4TrtxHsragvHGIQjWPxI5h78KfYN0Iou/0ZhWttVBvvFI/vXzwRGvcLBct4nnP0XnP73itL+9fUvw76u4=);strokeColor=none;spacingTop=1;spacingBottom=-1;spacingLeft=-1;spacingRight=-1;labelBackgroundColor=none;rounded=0;html=1;whiteSpace=wrap;" vertex="1" parent="IN8d0VnAYBJhFlT8Tgrd-166">
          <mxGeometry width="119.99999999999999" height="40" as="geometry" />
        </mxCell>
        <mxCell id="IN8d0VnAYBJhFlT8Tgrd-169" style="vsdxID=8;fillColor=none;gradientColor=none;strokeColor=none;spacingTop=-3;spacingBottom=-3;spacingLeft=-3;spacingRight=-3;labelBackgroundColor=none;rounded=0;html=1;whiteSpace=wrap;" vertex="1" parent="IN8d0VnAYBJhFlT8Tgrd-166">
          <mxGeometry x="5.669291338582677" y="6.315789473684211" width="23.622047244094485" height="26.31578947368421" as="geometry" />
        </mxCell>
        <mxCell id="IN8d0VnAYBJhFlT8Tgrd-170" value="" style="verticalAlign=middle;align=center;vsdxID=9;fillColor=#C0C0C0;gradientColor=none;shape=stencil(UzV2Ls5ILEhVNTIoLinKz04tz0wpyVA1dlE1MsrMy0gtyiwBslSNXVWNndPyi1LTi/JL81Ig/IJEkEoQKze/DGRCBUSfqQFIi5FBJYQL4blBVOZk5iGpRFVoaIBHKUySKMX4XABkIByelpmTA/E3sjy6R4FCkEAydgUA);strokeColor=#000000;spacingTop=-3;spacingBottom=-3;spacingLeft=-3;spacingRight=-3;labelBackgroundColor=none;rounded=0;html=1;whiteSpace=wrap;" vertex="1" parent="IN8d0VnAYBJhFlT8Tgrd-169">
          <mxGeometry x="6.6141732283464565" y="7.368421052631579" width="10.393700787401574" height="9.473684210526315" as="geometry" />
        </mxCell>
        <mxCell id="IN8d0VnAYBJhFlT8Tgrd-171" value="&lt;font style=&quot;font-size:19px;font-family:Calibri;color:#000000;direction:ltr;letter-spacing:0px;line-height:120%;opacity:1&quot;&gt;{  }&lt;br/&gt;&lt;/font&gt;" style="verticalAlign=middle;align=center;vsdxID=10;fillColor=none;gradientColor=none;shape=stencil(nZBLDoAgDERP0z3SIyjew0SURgSD+Lu9kMZoXLhwN9O+tukAlrNpJg1SzDH4QW/URgNYgZTkjA4UkwJUgGXng+6DX1zLfmoymdXo17xh5zmRJ6Q42BWCfc2oJfdAr+Yv+AP9Cb7OJ3H/2JG1HNGz/84klThPVCc=);strokeColor=none;spacingTop=-3;spacingBottom=-3;spacingLeft=-3;spacingRight=-3;labelBackgroundColor=none;rounded=0;html=1;whiteSpace=wrap;" vertex="1" parent="IN8d0VnAYBJhFlT8Tgrd-169">
          <mxGeometry width="23.622047244094485" height="26.31578947368421" as="geometry" />
        </mxCell>
        <mxCell id="IN8d0VnAYBJhFlT8Tgrd-172" value="" style="group" vertex="1" connectable="0" parent="1">
          <mxGeometry x="820" y="600" width="120" height="40" as="geometry" />
        </mxCell>
        <mxCell id="IN8d0VnAYBJhFlT8Tgrd-173" style="vsdxID=6;fillColor=#FFFFFF;gradientColor=none;shape=stencil(vZPbDoIwDIafZpeQsSYo1x7eY9EBi5ORMgXf3i2FKAheaPSuh2/t/qZlsGlKWSsmeOPQnlSrj65ksGVC6KpUqJ23GOwYbHKLqkB7qY7k1zKQwTrba6jQ0TvBwxPBb+QmnPw9sUZXT+z6LSvx4HPYs0kWZxnh2PMAMQgKdeMKQ8U0jdNVT0Sy002E1kmnbUX5njYSCxX5flFuZDFKNa1S9Ut4Vs20efgefCloMiH+Ly1iru+sjIHEF9VDraWp/EHG0jZ8qGRht38ixBuPE8u1MXShz/npSfoQnTPs7g==);strokeColor=#000000;spacingTop=-3;spacingBottom=-3;spacingLeft=-3;spacingRight=-3;labelBackgroundColor=none;rounded=0;html=1;whiteSpace=wrap;" vertex="1" parent="IN8d0VnAYBJhFlT8Tgrd-172">
          <mxGeometry width="119.99999999999999" height="40" as="geometry" />
        </mxCell>
        <mxCell id="IN8d0VnAYBJhFlT8Tgrd-174" value="&lt;div align=&quot;center&quot;&gt;SalesOrg&lt;br&gt;&lt;/div&gt;" style="verticalAlign=middle;align=center;vsdxID=7;fillColor=#FFFFFF;gradientColor=none;shape=stencil(rZHdDsIgDIWfpreEtAmT6znfY8mYEBEWhn9vL9gLdUaTJd6dtl+b0xaonW0/GUA55xQP5uKGbIG2gOiCNcnlooA6oHaMyexTPIWB46mvZFXHeK4TrtxHsragvHGIQjWPxI5h78KfYN0Iou/0ZhWttVBvvFI/vXzwRGvcLBct4nnP0XnP73itL+9fUvw76u4=);strokeColor=none;spacingTop=1;spacingBottom=-1;spacingLeft=-1;spacingRight=-1;labelBackgroundColor=none;rounded=0;html=1;whiteSpace=wrap;" vertex="1" parent="IN8d0VnAYBJhFlT8Tgrd-172">
          <mxGeometry width="119.99999999999999" height="40" as="geometry" />
        </mxCell>
        <mxCell id="IN8d0VnAYBJhFlT8Tgrd-175" style="vsdxID=8;fillColor=none;gradientColor=none;strokeColor=none;spacingTop=-3;spacingBottom=-3;spacingLeft=-3;spacingRight=-3;labelBackgroundColor=none;rounded=0;html=1;whiteSpace=wrap;" vertex="1" parent="IN8d0VnAYBJhFlT8Tgrd-172">
          <mxGeometry x="5.669291338582677" y="6.315789473684211" width="23.622047244094485" height="26.31578947368421" as="geometry" />
        </mxCell>
        <mxCell id="IN8d0VnAYBJhFlT8Tgrd-176" value="" style="verticalAlign=middle;align=center;vsdxID=9;fillColor=#C0C0C0;gradientColor=none;shape=stencil(UzV2Ls5ILEhVNTIoLinKz04tz0wpyVA1dlE1MsrMy0gtyiwBslSNXVWNndPyi1LTi/JL81Ig/IJEkEoQKze/DGRCBUSfqQFIi5FBJYQL4blBVOZk5iGpRFVoaIBHKUySKMX4XABkIByelpmTA/E3sjy6R4FCkEAydgUA);strokeColor=#000000;spacingTop=-3;spacingBottom=-3;spacingLeft=-3;spacingRight=-3;labelBackgroundColor=none;rounded=0;html=1;whiteSpace=wrap;" vertex="1" parent="IN8d0VnAYBJhFlT8Tgrd-175">
          <mxGeometry x="6.6141732283464565" y="7.368421052631579" width="10.393700787401574" height="9.473684210526315" as="geometry" />
        </mxCell>
        <mxCell id="IN8d0VnAYBJhFlT8Tgrd-177" value="&lt;font style=&quot;font-size:19px;font-family:Calibri;color:#000000;direction:ltr;letter-spacing:0px;line-height:120%;opacity:1&quot;&gt;{  }&lt;br/&gt;&lt;/font&gt;" style="verticalAlign=middle;align=center;vsdxID=10;fillColor=none;gradientColor=none;shape=stencil(nZBLDoAgDERP0z3SIyjew0SURgSD+Lu9kMZoXLhwN9O+tukAlrNpJg1SzDH4QW/URgNYgZTkjA4UkwJUgGXng+6DX1zLfmoymdXo17xh5zmRJ6Q42BWCfc2oJfdAr+Yv+AP9Cb7OJ3H/2JG1HNGz/84klThPVCc=);strokeColor=none;spacingTop=-3;spacingBottom=-3;spacingLeft=-3;spacingRight=-3;labelBackgroundColor=none;rounded=0;html=1;whiteSpace=wrap;" vertex="1" parent="IN8d0VnAYBJhFlT8Tgrd-175">
          <mxGeometry width="23.622047244094485" height="26.31578947368421" as="geometry" />
        </mxCell>
        <mxCell id="IN8d0VnAYBJhFlT8Tgrd-178" value="" style="group" vertex="1" connectable="0" parent="1">
          <mxGeometry x="820" y="680" width="120" height="40" as="geometry" />
        </mxCell>
        <mxCell id="IN8d0VnAYBJhFlT8Tgrd-179" style="vsdxID=6;fillColor=#FFFFFF;gradientColor=none;shape=stencil(vZPbDoIwDIafZpeQsSYo1x7eY9EBi5ORMgXf3i2FKAheaPSuh2/t/qZlsGlKWSsmeOPQnlSrj65ksGVC6KpUqJ23GOwYbHKLqkB7qY7k1zKQwTrba6jQ0TvBwxPBb+QmnPw9sUZXT+z6LSvx4HPYs0kWZxnh2PMAMQgKdeMKQ8U0jdNVT0Sy002E1kmnbUX5njYSCxX5flFuZDFKNa1S9Ut4Vs20efgefCloMiH+Ly1iru+sjIHEF9VDraWp/EHG0jZ8qGRht38ixBuPE8u1MXShz/npSfoQnTPs7g==);strokeColor=#000000;spacingTop=-3;spacingBottom=-3;spacingLeft=-3;spacingRight=-3;labelBackgroundColor=none;rounded=0;html=1;whiteSpace=wrap;" vertex="1" parent="IN8d0VnAYBJhFlT8Tgrd-178">
          <mxGeometry width="119.99999999999999" height="40" as="geometry" />
        </mxCell>
        <mxCell id="IN8d0VnAYBJhFlT8Tgrd-180" value="City" style="verticalAlign=middle;align=center;vsdxID=7;fillColor=#FFFFFF;gradientColor=none;shape=stencil(rZHdDsIgDIWfpreEtAmT6znfY8mYEBEWhn9vL9gLdUaTJd6dtl+b0xaonW0/GUA55xQP5uKGbIG2gOiCNcnlooA6oHaMyexTPIWB46mvZFXHeK4TrtxHsragvHGIQjWPxI5h78KfYN0Iou/0ZhWttVBvvFI/vXzwRGvcLBct4nnP0XnP73itL+9fUvw76u4=);strokeColor=none;spacingTop=1;spacingBottom=-1;spacingLeft=-1;spacingRight=-1;labelBackgroundColor=none;rounded=0;html=1;whiteSpace=wrap;" vertex="1" parent="IN8d0VnAYBJhFlT8Tgrd-178">
          <mxGeometry width="119.99999999999999" height="40" as="geometry" />
        </mxCell>
        <mxCell id="IN8d0VnAYBJhFlT8Tgrd-181" style="vsdxID=8;fillColor=none;gradientColor=none;strokeColor=none;spacingTop=-3;spacingBottom=-3;spacingLeft=-3;spacingRight=-3;labelBackgroundColor=none;rounded=0;html=1;whiteSpace=wrap;" vertex="1" parent="IN8d0VnAYBJhFlT8Tgrd-178">
          <mxGeometry x="5.669291338582677" y="6.315789473684211" width="23.622047244094485" height="26.31578947368421" as="geometry" />
        </mxCell>
        <mxCell id="IN8d0VnAYBJhFlT8Tgrd-182" value="" style="verticalAlign=middle;align=center;vsdxID=9;fillColor=#C0C0C0;gradientColor=none;shape=stencil(UzV2Ls5ILEhVNTIoLinKz04tz0wpyVA1dlE1MsrMy0gtyiwBslSNXVWNndPyi1LTi/JL81Ig/IJEkEoQKze/DGRCBUSfqQFIi5FBJYQL4blBVOZk5iGpRFVoaIBHKUySKMX4XABkIByelpmTA/E3sjy6R4FCkEAydgUA);strokeColor=#000000;spacingTop=-3;spacingBottom=-3;spacingLeft=-3;spacingRight=-3;labelBackgroundColor=none;rounded=0;html=1;whiteSpace=wrap;" vertex="1" parent="IN8d0VnAYBJhFlT8Tgrd-181">
          <mxGeometry x="6.6141732283464565" y="7.368421052631579" width="10.393700787401574" height="9.473684210526315" as="geometry" />
        </mxCell>
        <mxCell id="IN8d0VnAYBJhFlT8Tgrd-183" value="&lt;font style=&quot;font-size:19px;font-family:Calibri;color:#000000;direction:ltr;letter-spacing:0px;line-height:120%;opacity:1&quot;&gt;{  }&lt;br/&gt;&lt;/font&gt;" style="verticalAlign=middle;align=center;vsdxID=10;fillColor=none;gradientColor=none;shape=stencil(nZBLDoAgDERP0z3SIyjew0SURgSD+Lu9kMZoXLhwN9O+tukAlrNpJg1SzDH4QW/URgNYgZTkjA4UkwJUgGXng+6DX1zLfmoymdXo17xh5zmRJ6Q42BWCfc2oJfdAr+Yv+AP9Cb7OJ3H/2JG1HNGz/84klThPVCc=);strokeColor=none;spacingTop=-3;spacingBottom=-3;spacingLeft=-3;spacingRight=-3;labelBackgroundColor=none;rounded=0;html=1;whiteSpace=wrap;" vertex="1" parent="IN8d0VnAYBJhFlT8Tgrd-181">
          <mxGeometry width="23.622047244094485" height="26.31578947368421" as="geometry" />
        </mxCell>
        <mxCell id="IN8d0VnAYBJhFlT8Tgrd-184" value="" style="startArrow=none;startFill=0;startSize=7;endArrow=none;endFill=0;endSize=10;html=1;strokeColor=#000000;strokeWidth=1;rounded=0;" edge="1" parent="1">
          <mxGeometry relative="1" as="geometry">
            <mxPoint x="880" y="600" as="sourcePoint" />
            <mxPoint x="880" y="560" as="targetPoint" />
            <Array as="points">
              <mxPoint x="880" y="590" />
            </Array>
          </mxGeometry>
        </mxCell>
        <mxCell id="IN8d0VnAYBJhFlT8Tgrd-185" value="" style="shape=stencil(vZRhD4IgEIZ/DV8bylx9bVb/gxCTiZwTyvr3gWhTi825anOOu3vv2cvNE5FUF7TmKMYFIgcUxxG2LxsqWnGfSaGqudLUCFC+pk0DJW9FZvomoQreCOOrbQ9KXEiOCO9t0j2vA0kZKMWZI+oudwoJz5SVlwauKpsoZrpBXVPn6E33UT30VHBz17971/3tHz5KfDT3t4AqhRpRt5tkwsU/4kbrwUyC5utapxOM8MzUt4YY7X4ywxn2vyMkqRUHvtrRFlhRYBFGohwavnxVciGl3+Og46mBAN4eurL/jXSVJw==);html=1;outlineConnect=0;labelBackgroundColor=#000000;fillColor=#000000;align=center;direction=south;aspect=fixed;" vertex="1" parent="IN8d0VnAYBJhFlT8Tgrd-184">
          <mxGeometry width="6" height="12" relative="1" as="geometry">
            <mxPoint x="-3" y="-7" as="offset" />
          </mxGeometry>
        </mxCell>
        <mxCell id="IN8d0VnAYBJhFlT8Tgrd-186" value="" style="startArrow=none;startFill=0;startSize=7;endArrow=none;endFill=0;endSize=10;html=1;strokeColor=#000000;strokeWidth=1;rounded=0;" edge="1" parent="1">
          <mxGeometry relative="1" as="geometry">
            <mxPoint x="878.5" y="680" as="sourcePoint" />
            <mxPoint x="878.5" y="640" as="targetPoint" />
            <Array as="points">
              <mxPoint x="878.5" y="670" />
            </Array>
          </mxGeometry>
        </mxCell>
        <mxCell id="IN8d0VnAYBJhFlT8Tgrd-187" value="" style="shape=stencil(vZRhD4IgEIZ/DV8bylx9bVb/gxCTiZwTyvr3gWhTi825anOOu3vv2cvNE5FUF7TmKMYFIgcUxxG2LxsqWnGfSaGqudLUCFC+pk0DJW9FZvomoQreCOOrbQ9KXEiOCO9t0j2vA0kZKMWZI+oudwoJz5SVlwauKpsoZrpBXVPn6E33UT30VHBz17971/3tHz5KfDT3t4AqhRpRt5tkwsU/4kbrwUyC5utapxOM8MzUt4YY7X4ywxn2vyMkqRUHvtrRFlhRYBFGohwavnxVciGl3+Og46mBAN4eurL/jXSVJw==);html=1;outlineConnect=0;labelBackgroundColor=#000000;fillColor=#000000;align=center;direction=south;aspect=fixed;" vertex="1" parent="IN8d0VnAYBJhFlT8Tgrd-186">
          <mxGeometry width="6" height="12" relative="1" as="geometry">
            <mxPoint x="-3" y="-7" as="offset" />
          </mxGeometry>
        </mxCell>
        <mxCell id="IN8d0VnAYBJhFlT8Tgrd-190" value="" style="group" vertex="1" connectable="0" parent="1">
          <mxGeometry x="820" y="760" width="120" height="40" as="geometry" />
        </mxCell>
        <mxCell id="IN8d0VnAYBJhFlT8Tgrd-191" style="vsdxID=6;fillColor=#FFFFFF;gradientColor=none;shape=stencil(vZPbDoIwDIafZpeQsSYo1x7eY9EBi5ORMgXf3i2FKAheaPSuh2/t/qZlsGlKWSsmeOPQnlSrj65ksGVC6KpUqJ23GOwYbHKLqkB7qY7k1zKQwTrba6jQ0TvBwxPBb+QmnPw9sUZXT+z6LSvx4HPYs0kWZxnh2PMAMQgKdeMKQ8U0jdNVT0Sy002E1kmnbUX5njYSCxX5flFuZDFKNa1S9Ut4Vs20efgefCloMiH+Ly1iru+sjIHEF9VDraWp/EHG0jZ8qGRht38ixBuPE8u1MXShz/npSfoQnTPs7g==);strokeColor=#000000;spacingTop=-3;spacingBottom=-3;spacingLeft=-3;spacingRight=-3;labelBackgroundColor=none;rounded=0;html=1;whiteSpace=wrap;" vertex="1" parent="IN8d0VnAYBJhFlT8Tgrd-190">
          <mxGeometry width="119.99999999999999" height="40" as="geometry" />
        </mxCell>
        <mxCell id="IN8d0VnAYBJhFlT8Tgrd-192" value="Customer" style="verticalAlign=middle;align=center;vsdxID=7;fillColor=#FFFFFF;gradientColor=none;shape=stencil(rZHdDsIgDIWfpreEtAmT6znfY8mYEBEWhn9vL9gLdUaTJd6dtl+b0xaonW0/GUA55xQP5uKGbIG2gOiCNcnlooA6oHaMyexTPIWB46mvZFXHeK4TrtxHsragvHGIQjWPxI5h78KfYN0Iou/0ZhWttVBvvFI/vXzwRGvcLBct4nnP0XnP73itL+9fUvw76u4=);strokeColor=none;spacingTop=1;spacingBottom=-1;spacingLeft=-1;spacingRight=-1;labelBackgroundColor=none;rounded=0;html=1;whiteSpace=wrap;" vertex="1" parent="IN8d0VnAYBJhFlT8Tgrd-190">
          <mxGeometry width="119.99999999999999" height="40" as="geometry" />
        </mxCell>
        <mxCell id="IN8d0VnAYBJhFlT8Tgrd-193" style="vsdxID=8;fillColor=none;gradientColor=none;strokeColor=none;spacingTop=-3;spacingBottom=-3;spacingLeft=-3;spacingRight=-3;labelBackgroundColor=none;rounded=0;html=1;whiteSpace=wrap;" vertex="1" parent="IN8d0VnAYBJhFlT8Tgrd-190">
          <mxGeometry x="5.669291338582677" y="6.315789473684211" width="23.622047244094485" height="26.31578947368421" as="geometry" />
        </mxCell>
        <mxCell id="IN8d0VnAYBJhFlT8Tgrd-194" value="" style="verticalAlign=middle;align=center;vsdxID=9;fillColor=#C0C0C0;gradientColor=none;shape=stencil(UzV2Ls5ILEhVNTIoLinKz04tz0wpyVA1dlE1MsrMy0gtyiwBslSNXVWNndPyi1LTi/JL81Ig/IJEkEoQKze/DGRCBUSfqQFIi5FBJYQL4blBVOZk5iGpRFVoaIBHKUySKMX4XABkIByelpmTA/E3sjy6R4FCkEAydgUA);strokeColor=#000000;spacingTop=-3;spacingBottom=-3;spacingLeft=-3;spacingRight=-3;labelBackgroundColor=none;rounded=0;html=1;whiteSpace=wrap;" vertex="1" parent="IN8d0VnAYBJhFlT8Tgrd-193">
          <mxGeometry x="6.6141732283464565" y="7.368421052631579" width="10.393700787401574" height="9.473684210526315" as="geometry" />
        </mxCell>
        <mxCell id="IN8d0VnAYBJhFlT8Tgrd-195" value="&lt;font style=&quot;font-size:19px;font-family:Calibri;color:#000000;direction:ltr;letter-spacing:0px;line-height:120%;opacity:1&quot;&gt;{  }&lt;br/&gt;&lt;/font&gt;" style="verticalAlign=middle;align=center;vsdxID=10;fillColor=none;gradientColor=none;shape=stencil(nZBLDoAgDERP0z3SIyjew0SURgSD+Lu9kMZoXLhwN9O+tukAlrNpJg1SzDH4QW/URgNYgZTkjA4UkwJUgGXng+6DX1zLfmoymdXo17xh5zmRJ6Q42BWCfc2oJfdAr+Yv+AP9Cb7OJ3H/2JG1HNGz/84klThPVCc=);strokeColor=none;spacingTop=-3;spacingBottom=-3;spacingLeft=-3;spacingRight=-3;labelBackgroundColor=none;rounded=0;html=1;whiteSpace=wrap;" vertex="1" parent="IN8d0VnAYBJhFlT8Tgrd-193">
          <mxGeometry width="23.622047244094485" height="26.31578947368421" as="geometry" />
        </mxCell>
        <mxCell id="IN8d0VnAYBJhFlT8Tgrd-196" value="" style="startArrow=none;startFill=0;startSize=7;endArrow=none;endFill=0;endSize=10;html=1;strokeColor=#000000;strokeWidth=1;rounded=0;" edge="1" parent="1">
          <mxGeometry relative="1" as="geometry">
            <mxPoint x="878.5" y="760" as="sourcePoint" />
            <mxPoint x="878.5" y="720" as="targetPoint" />
            <Array as="points">
              <mxPoint x="878.5" y="750" />
            </Array>
          </mxGeometry>
        </mxCell>
        <mxCell id="IN8d0VnAYBJhFlT8Tgrd-197" value="" style="shape=stencil(vZRhD4IgEIZ/DV8bylx9bVb/gxCTiZwTyvr3gWhTi825anOOu3vv2cvNE5FUF7TmKMYFIgcUxxG2LxsqWnGfSaGqudLUCFC+pk0DJW9FZvomoQreCOOrbQ9KXEiOCO9t0j2vA0kZKMWZI+oudwoJz5SVlwauKpsoZrpBXVPn6E33UT30VHBz17971/3tHz5KfDT3t4AqhRpRt5tkwsU/4kbrwUyC5utapxOM8MzUt4YY7X4ywxn2vyMkqRUHvtrRFlhRYBFGohwavnxVciGl3+Og46mBAN4eurL/jXSVJw==);html=1;outlineConnect=0;labelBackgroundColor=#000000;fillColor=#000000;align=center;direction=south;aspect=fixed;" vertex="1" parent="IN8d0VnAYBJhFlT8Tgrd-196">
          <mxGeometry width="6" height="12" relative="1" as="geometry">
            <mxPoint x="-3" y="-7" as="offset" />
          </mxGeometry>
        </mxCell>
        <mxCell id="IN8d0VnAYBJhFlT8Tgrd-198" value="" style="group" vertex="1" connectable="0" parent="1">
          <mxGeometry x="980" y="485" width="100" height="40" as="geometry" />
        </mxCell>
        <mxCell id="IN8d0VnAYBJhFlT8Tgrd-199" style="vsdxID=6;fillColor=#FFFFFF;gradientColor=none;shape=stencil(vZPbDoIwDIafZpeQsSYo1x7eY9EBi5ORMgXf3i2FKAheaPSuh2/t/qZlsGlKWSsmeOPQnlSrj65ksGVC6KpUqJ23GOwYbHKLqkB7qY7k1zKQwTrba6jQ0TvBwxPBb+QmnPw9sUZXT+z6LSvx4HPYs0kWZxnh2PMAMQgKdeMKQ8U0jdNVT0Sy002E1kmnbUX5njYSCxX5flFuZDFKNa1S9Ut4Vs20efgefCloMiH+Ly1iru+sjIHEF9VDraWp/EHG0jZ8qGRht38ixBuPE8u1MXShz/npSfoQnTPs7g==);strokeColor=#000000;spacingTop=-3;spacingBottom=-3;spacingLeft=-3;spacingRight=-3;labelBackgroundColor=none;rounded=0;html=1;whiteSpace=wrap;" vertex="1" parent="IN8d0VnAYBJhFlT8Tgrd-198">
          <mxGeometry width="100" height="40" as="geometry" />
        </mxCell>
        <mxCell id="IN8d0VnAYBJhFlT8Tgrd-200" style="vsdxID=7;fillColor=none;gradientColor=none;strokeColor=none;spacingTop=-3;spacingBottom=-3;spacingLeft=-3;spacingRight=-3;labelBackgroundColor=none;rounded=0;html=1;whiteSpace=wrap;" vertex="1" parent="IN8d0VnAYBJhFlT8Tgrd-198">
          <mxGeometry x="4.724409448818897" y="6.315789473684211" width="19.68503937007874" height="26.31578947368421" as="geometry" />
        </mxCell>
        <mxCell id="IN8d0VnAYBJhFlT8Tgrd-201" value="&lt;font style=&quot;font-size:19px;font-family:Calibri;color:#000000;direction:ltr;letter-spacing:0px;line-height:120%;opacity:1&quot;&gt;{  }&lt;br/&gt;&lt;/font&gt;" style="verticalAlign=middle;align=center;vsdxID=8;fillColor=none;gradientColor=none;shape=stencil(nZBLDoAgDERP0z3SIyjew0SURgSD+Lu9kMZoXLhwN9O+tukAlrNpJg1SzDH4QW/URgNYgZTkjA4UkwJUgGXng+6DX1zLfmoymdXo17xh5zmRJ6Q42BWCfc2oJfdAr+Yv+AP9Cb7OJ3H/2JG1HNGz/84klThPVCc=);strokeColor=none;spacingTop=-3;spacingBottom=-3;spacingLeft=-3;spacingRight=-3;labelBackgroundColor=none;rounded=0;html=1;whiteSpace=wrap;" vertex="1" parent="IN8d0VnAYBJhFlT8Tgrd-200">
          <mxGeometry width="19.68503937007874" height="26.31578947368421" as="geometry" />
        </mxCell>
        <mxCell id="IN8d0VnAYBJhFlT8Tgrd-202" style="vsdxID=9;fillColor=#C0C0C0;gradientColor=none;shape=stencil(vVHLDsIgEPwajiQU4hfU+h8bu7RELM2CFv9eyMZYjCcP3mZ2Zh/ZEaaPM6wotIqJwgU3N6ZZmKPQ2i0zkksFCTMI09tAOFG4LSPzFaqzomu41wmZ+1Tt0OrB7MD0xE6gc5EoN5qi1vsa1Kmvo1SWkF2UFBIkF5ZmqweaUJY10nqYGiluiOuu3P182P/OKuD9Zuu855T2+mcspcSRmuEJ);strokeColor=#000000;spacingTop=-3;spacingBottom=-3;spacingLeft=-3;spacingRight=-3;labelBackgroundColor=none;rounded=0;html=1;whiteSpace=wrap;" vertex="1" parent="IN8d0VnAYBJhFlT8Tgrd-200">
          <mxGeometry x="5.511811023622047" y="8.421052631578947" width="8.661417322834646" height="11.578947368421051" as="geometry" />
        </mxCell>
        <mxCell id="IN8d0VnAYBJhFlT8Tgrd-203" value="DE" style="verticalAlign=middle;align=center;vsdxID=10;fillColor=#FFFFFF;gradientColor=none;shape=stencil(rZHdDsIgDIWfpreEtAmT6znfY8mYEBEWhn9vL9gLdUaTJd6dtl+b0xaonW0/GUA55xQP5uKGbIG2gOiCNcnlooA6oHaMyexTPIWB46mvZFXHeK4TrtxHsragvHGIQjWPxI5h78KfYN0Iou/0ZhWttVBvvFI/vXzwRGvcLBct4nnP0XnP73itL+9fUvw76u4=);strokeColor=none;spacingTop=1;spacingBottom=-1;spacingLeft=-1;spacingRight=-1;labelBackgroundColor=none;rounded=0;html=1;whiteSpace=wrap;" vertex="1" parent="IN8d0VnAYBJhFlT8Tgrd-198">
          <mxGeometry width="100" height="40" as="geometry" />
        </mxCell>
        <mxCell id="IN8d0VnAYBJhFlT8Tgrd-204" value="" style="group" vertex="1" connectable="0" parent="1">
          <mxGeometry x="980" y="545" width="100" height="40" as="geometry" />
        </mxCell>
        <mxCell id="IN8d0VnAYBJhFlT8Tgrd-205" style="vsdxID=6;fillColor=#FFFFFF;gradientColor=none;shape=stencil(vZPbDoIwDIafZpeQsSYo1x7eY9EBi5ORMgXf3i2FKAheaPSuh2/t/qZlsGlKWSsmeOPQnlSrj65ksGVC6KpUqJ23GOwYbHKLqkB7qY7k1zKQwTrba6jQ0TvBwxPBb+QmnPw9sUZXT+z6LSvx4HPYs0kWZxnh2PMAMQgKdeMKQ8U0jdNVT0Sy002E1kmnbUX5njYSCxX5flFuZDFKNa1S9Ut4Vs20efgefCloMiH+Ly1iru+sjIHEF9VDraWp/EHG0jZ8qGRht38ixBuPE8u1MXShz/npSfoQnTPs7g==);strokeColor=#000000;spacingTop=-3;spacingBottom=-3;spacingLeft=-3;spacingRight=-3;labelBackgroundColor=none;rounded=0;html=1;whiteSpace=wrap;" vertex="1" parent="IN8d0VnAYBJhFlT8Tgrd-204">
          <mxGeometry width="100" height="40" as="geometry" />
        </mxCell>
        <mxCell id="IN8d0VnAYBJhFlT8Tgrd-206" style="vsdxID=7;fillColor=none;gradientColor=none;strokeColor=none;spacingTop=-3;spacingBottom=-3;spacingLeft=-3;spacingRight=-3;labelBackgroundColor=none;rounded=0;html=1;whiteSpace=wrap;" vertex="1" parent="IN8d0VnAYBJhFlT8Tgrd-204">
          <mxGeometry x="4.724409448818897" y="6.315789473684211" width="19.68503937007874" height="26.31578947368421" as="geometry" />
        </mxCell>
        <mxCell id="IN8d0VnAYBJhFlT8Tgrd-207" value="&lt;font style=&quot;font-size:19px;font-family:Calibri;color:#000000;direction:ltr;letter-spacing:0px;line-height:120%;opacity:1&quot;&gt;{  }&lt;br/&gt;&lt;/font&gt;" style="verticalAlign=middle;align=center;vsdxID=8;fillColor=none;gradientColor=none;shape=stencil(nZBLDoAgDERP0z3SIyjew0SURgSD+Lu9kMZoXLhwN9O+tukAlrNpJg1SzDH4QW/URgNYgZTkjA4UkwJUgGXng+6DX1zLfmoymdXo17xh5zmRJ6Q42BWCfc2oJfdAr+Yv+AP9Cb7OJ3H/2JG1HNGz/84klThPVCc=);strokeColor=none;spacingTop=-3;spacingBottom=-3;spacingLeft=-3;spacingRight=-3;labelBackgroundColor=none;rounded=0;html=1;whiteSpace=wrap;" vertex="1" parent="IN8d0VnAYBJhFlT8Tgrd-206">
          <mxGeometry width="19.68503937007874" height="26.31578947368421" as="geometry" />
        </mxCell>
        <mxCell id="IN8d0VnAYBJhFlT8Tgrd-208" style="vsdxID=9;fillColor=#C0C0C0;gradientColor=none;shape=stencil(vVHLDsIgEPwajiQU4hfU+h8bu7RELM2CFv9eyMZYjCcP3mZ2Zh/ZEaaPM6wotIqJwgU3N6ZZmKPQ2i0zkksFCTMI09tAOFG4LSPzFaqzomu41wmZ+1Tt0OrB7MD0xE6gc5EoN5qi1vsa1Kmvo1SWkF2UFBIkF5ZmqweaUJY10nqYGiluiOuu3P182P/OKuD9Zuu855T2+mcspcSRmuEJ);strokeColor=#000000;spacingTop=-3;spacingBottom=-3;spacingLeft=-3;spacingRight=-3;labelBackgroundColor=none;rounded=0;html=1;whiteSpace=wrap;" vertex="1" parent="IN8d0VnAYBJhFlT8Tgrd-206">
          <mxGeometry x="5.511811023622047" y="8.421052631578947" width="8.661417322834646" height="11.578947368421051" as="geometry" />
        </mxCell>
        <mxCell id="IN8d0VnAYBJhFlT8Tgrd-209" value="US" style="verticalAlign=middle;align=center;vsdxID=10;fillColor=#FFFFFF;gradientColor=none;shape=stencil(rZHdDsIgDIWfpreEtAmT6znfY8mYEBEWhn9vL9gLdUaTJd6dtl+b0xaonW0/GUA55xQP5uKGbIG2gOiCNcnlooA6oHaMyexTPIWB46mvZFXHeK4TrtxHsragvHGIQjWPxI5h78KfYN0Iou/0ZhWttVBvvFI/vXzwRGvcLBct4nnP0XnP73itL+9fUvw76u4=);strokeColor=none;spacingTop=1;spacingBottom=-1;spacingLeft=-1;spacingRight=-1;labelBackgroundColor=none;rounded=0;html=1;whiteSpace=wrap;" vertex="1" parent="IN8d0VnAYBJhFlT8Tgrd-204">
          <mxGeometry width="100" height="40" as="geometry" />
        </mxCell>
        <mxCell id="IN8d0VnAYBJhFlT8Tgrd-210" style="vsdxID=5;edgeStyle=none;startArrow=none;endArrow=block;startSize=5;endSize=7;strokeColor=#000000;spacingTop=0;spacingBottom=0;spacingLeft=0;spacingRight=0;verticalAlign=middle;html=1;labelBackgroundColor=#FFFFFF;rounded=0;entryX=-0.017;entryY=0.625;entryDx=0;entryDy=0;entryPerimeter=0;" edge="1" parent="1" target="IN8d0VnAYBJhFlT8Tgrd-199">
          <mxGeometry x="-113.8" y="-965" relative="1" as="geometry">
            <mxPoint x="-113.8" y="-965" as="offset" />
            <mxPoint x="940" y="540" as="sourcePoint" />
            <mxPoint x="960" y="540" as="targetPoint" />
          </mxGeometry>
        </mxCell>
        <mxCell id="IN8d0VnAYBJhFlT8Tgrd-211" style="vsdxID=5;edgeStyle=none;startArrow=none;endArrow=block;startSize=5;endSize=7;strokeColor=#000000;spacingTop=0;spacingBottom=0;spacingLeft=0;spacingRight=0;verticalAlign=middle;html=1;labelBackgroundColor=#FFFFFF;rounded=0;entryX=-0.017;entryY=0.675;entryDx=0;entryDy=0;entryPerimeter=0;exitX=0.992;exitY=0.575;exitDx=0;exitDy=0;exitPerimeter=0;" edge="1" parent="1" source="IN8d0VnAYBJhFlT8Tgrd-168" target="IN8d0VnAYBJhFlT8Tgrd-205">
          <mxGeometry x="-113.8" y="-965" relative="1" as="geometry">
            <mxPoint x="-113.8" y="-965" as="offset" />
            <mxPoint x="952" y="549" as="sourcePoint" />
            <mxPoint x="988" y="520" as="targetPoint" />
          </mxGeometry>
        </mxCell>
        <mxCell id="IN8d0VnAYBJhFlT8Tgrd-212" value="" style="group" vertex="1" connectable="0" parent="1">
          <mxGeometry x="691" y="485" width="99" height="40" as="geometry" />
        </mxCell>
        <mxCell id="IN8d0VnAYBJhFlT8Tgrd-213" style="vsdxID=6;fillColor=#FFFFFF;gradientColor=none;shape=stencil(vZPbDoIwDIafZpeQsSYo1x7eY9EBi5ORMgXf3i2FKAheaPSuh2/t/qZlsGlKWSsmeOPQnlSrj65ksGVC6KpUqJ23GOwYbHKLqkB7qY7k1zKQwTrba6jQ0TvBwxPBb+QmnPw9sUZXT+z6LSvx4HPYs0kWZxnh2PMAMQgKdeMKQ8U0jdNVT0Sy002E1kmnbUX5njYSCxX5flFuZDFKNa1S9Ut4Vs20efgefCloMiH+Ly1iru+sjIHEF9VDraWp/EHG0jZ8qGRht38ixBuPE8u1MXShz/npSfoQnTPs7g==);strokeColor=#000000;spacingTop=-3;spacingBottom=-3;spacingLeft=-3;spacingRight=-3;labelBackgroundColor=none;rounded=0;html=1;whiteSpace=wrap;" vertex="1" parent="IN8d0VnAYBJhFlT8Tgrd-212">
          <mxGeometry width="99" height="40" as="geometry" />
        </mxCell>
        <mxCell id="IN8d0VnAYBJhFlT8Tgrd-214" style="vsdxID=7;fillColor=none;gradientColor=none;strokeColor=none;spacingTop=-3;spacingBottom=-3;spacingLeft=-3;spacingRight=-3;labelBackgroundColor=none;rounded=0;html=1;whiteSpace=wrap;" vertex="1" parent="IN8d0VnAYBJhFlT8Tgrd-212">
          <mxGeometry x="4.677165354330708" y="6.315789473684211" width="19.488188976377952" height="26.31578947368421" as="geometry" />
        </mxCell>
        <mxCell id="IN8d0VnAYBJhFlT8Tgrd-215" value="&lt;font style=&quot;font-size:19px;font-family:Calibri;color:#000000;direction:ltr;letter-spacing:0px;line-height:120%;opacity:1&quot;&gt;{  }&lt;br/&gt;&lt;/font&gt;" style="verticalAlign=middle;align=center;vsdxID=8;fillColor=none;gradientColor=none;shape=stencil(nZBLDoAgDERP0z3SIyjew0SURgSD+Lu9kMZoXLhwN9O+tukAlrNpJg1SzDH4QW/URgNYgZTkjA4UkwJUgGXng+6DX1zLfmoymdXo17xh5zmRJ6Q42BWCfc2oJfdAr+Yv+AP9Cb7OJ3H/2JG1HNGz/84klThPVCc=);strokeColor=none;spacingTop=-3;spacingBottom=-3;spacingLeft=-3;spacingRight=-3;labelBackgroundColor=none;rounded=0;html=1;whiteSpace=wrap;" vertex="1" parent="IN8d0VnAYBJhFlT8Tgrd-214">
          <mxGeometry width="19.488188976377952" height="26.31578947368421" as="geometry" />
        </mxCell>
        <mxCell id="IN8d0VnAYBJhFlT8Tgrd-216" style="vsdxID=9;fillColor=#C0C0C0;gradientColor=none;shape=stencil(vVHLDsIgEPwajiQU4hfU+h8bu7RELM2CFv9eyMZYjCcP3mZ2Zh/ZEaaPM6wotIqJwgU3N6ZZmKPQ2i0zkksFCTMI09tAOFG4LSPzFaqzomu41wmZ+1Tt0OrB7MD0xE6gc5EoN5qi1vsa1Kmvo1SWkF2UFBIkF5ZmqweaUJY10nqYGiluiOuu3P182P/OKuD9Zuu855T2+mcspcSRmuEJ);strokeColor=#000000;spacingTop=-3;spacingBottom=-3;spacingLeft=-3;spacingRight=-3;labelBackgroundColor=none;rounded=0;html=1;whiteSpace=wrap;" vertex="1" parent="IN8d0VnAYBJhFlT8Tgrd-214">
          <mxGeometry x="5.456692913385826" y="8.421052631578947" width="8.574803149606298" height="11.578947368421051" as="geometry" />
        </mxCell>
        <mxCell id="IN8d0VnAYBJhFlT8Tgrd-217" value="BI" style="verticalAlign=middle;align=center;vsdxID=10;fillColor=#FFFFFF;gradientColor=none;shape=stencil(rZHdDsIgDIWfpreEtAmT6znfY8mYEBEWhn9vL9gLdUaTJd6dtl+b0xaonW0/GUA55xQP5uKGbIG2gOiCNcnlooA6oHaMyexTPIWB46mvZFXHeK4TrtxHsragvHGIQjWPxI5h78KfYN0Iou/0ZhWttVBvvFI/vXzwRGvcLBct4nnP0XnP73itL+9fUvw76u4=);strokeColor=none;spacingTop=1;spacingBottom=-1;spacingLeft=-1;spacingRight=-1;labelBackgroundColor=none;rounded=0;html=1;whiteSpace=wrap;" vertex="1" parent="IN8d0VnAYBJhFlT8Tgrd-212">
          <mxGeometry width="99" height="40" as="geometry" />
        </mxCell>
        <mxCell id="IN8d0VnAYBJhFlT8Tgrd-218" value="" style="group" vertex="1" connectable="0" parent="1">
          <mxGeometry x="691" y="545" width="99" height="40" as="geometry" />
        </mxCell>
        <mxCell id="IN8d0VnAYBJhFlT8Tgrd-219" style="vsdxID=6;fillColor=#FFFFFF;gradientColor=none;shape=stencil(vZPbDoIwDIafZpeQsSYo1x7eY9EBi5ORMgXf3i2FKAheaPSuh2/t/qZlsGlKWSsmeOPQnlSrj65ksGVC6KpUqJ23GOwYbHKLqkB7qY7k1zKQwTrba6jQ0TvBwxPBb+QmnPw9sUZXT+z6LSvx4HPYs0kWZxnh2PMAMQgKdeMKQ8U0jdNVT0Sy002E1kmnbUX5njYSCxX5flFuZDFKNa1S9Ut4Vs20efgefCloMiH+Ly1iru+sjIHEF9VDraWp/EHG0jZ8qGRht38ixBuPE8u1MXShz/npSfoQnTPs7g==);strokeColor=#000000;spacingTop=-3;spacingBottom=-3;spacingLeft=-3;spacingRight=-3;labelBackgroundColor=none;rounded=0;html=1;whiteSpace=wrap;" vertex="1" parent="IN8d0VnAYBJhFlT8Tgrd-218">
          <mxGeometry width="99" height="40" as="geometry" />
        </mxCell>
        <mxCell id="IN8d0VnAYBJhFlT8Tgrd-220" style="vsdxID=7;fillColor=none;gradientColor=none;strokeColor=none;spacingTop=-3;spacingBottom=-3;spacingLeft=-3;spacingRight=-3;labelBackgroundColor=none;rounded=0;html=1;whiteSpace=wrap;" vertex="1" parent="IN8d0VnAYBJhFlT8Tgrd-218">
          <mxGeometry x="4.677165354330708" y="6.315789473684211" width="19.488188976377952" height="26.31578947368421" as="geometry" />
        </mxCell>
        <mxCell id="IN8d0VnAYBJhFlT8Tgrd-221" value="&lt;font style=&quot;font-size:19px;font-family:Calibri;color:#000000;direction:ltr;letter-spacing:0px;line-height:120%;opacity:1&quot;&gt;{  }&lt;br/&gt;&lt;/font&gt;" style="verticalAlign=middle;align=center;vsdxID=8;fillColor=none;gradientColor=none;shape=stencil(nZBLDoAgDERP0z3SIyjew0SURgSD+Lu9kMZoXLhwN9O+tukAlrNpJg1SzDH4QW/URgNYgZTkjA4UkwJUgGXng+6DX1zLfmoymdXo17xh5zmRJ6Q42BWCfc2oJfdAr+Yv+AP9Cb7OJ3H/2JG1HNGz/84klThPVCc=);strokeColor=none;spacingTop=-3;spacingBottom=-3;spacingLeft=-3;spacingRight=-3;labelBackgroundColor=none;rounded=0;html=1;whiteSpace=wrap;" vertex="1" parent="IN8d0VnAYBJhFlT8Tgrd-220">
          <mxGeometry width="19.488188976377952" height="26.31578947368421" as="geometry" />
        </mxCell>
        <mxCell id="IN8d0VnAYBJhFlT8Tgrd-222" style="vsdxID=9;fillColor=#C0C0C0;gradientColor=none;shape=stencil(vVHLDsIgEPwajiQU4hfU+h8bu7RELM2CFv9eyMZYjCcP3mZ2Zh/ZEaaPM6wotIqJwgU3N6ZZmKPQ2i0zkksFCTMI09tAOFG4LSPzFaqzomu41wmZ+1Tt0OrB7MD0xE6gc5EoN5qi1vsa1Kmvo1SWkF2UFBIkF5ZmqweaUJY10nqYGiluiOuu3P182P/OKuD9Zuu855T2+mcspcSRmuEJ);strokeColor=#000000;spacingTop=-3;spacingBottom=-3;spacingLeft=-3;spacingRight=-3;labelBackgroundColor=none;rounded=0;html=1;whiteSpace=wrap;" vertex="1" parent="IN8d0VnAYBJhFlT8Tgrd-220">
          <mxGeometry x="5.456692913385826" y="8.421052631578947" width="8.574803149606298" height="11.578947368421051" as="geometry" />
        </mxCell>
        <mxCell id="IN8d0VnAYBJhFlT8Tgrd-223" value="AS" style="verticalAlign=middle;align=center;vsdxID=10;fillColor=#FFFFFF;gradientColor=none;shape=stencil(rZHdDsIgDIWfpreEtAmT6znfY8mYEBEWhn9vL9gLdUaTJd6dtl+b0xaonW0/GUA55xQP5uKGbIG2gOiCNcnlooA6oHaMyexTPIWB46mvZFXHeK4TrtxHsragvHGIQjWPxI5h78KfYN0Iou/0ZhWttVBvvFI/vXzwRGvcLBct4nnP0XnP73itL+9fUvw76u4=);strokeColor=none;spacingTop=1;spacingBottom=-1;spacingLeft=-1;spacingRight=-1;labelBackgroundColor=none;rounded=0;html=1;whiteSpace=wrap;" vertex="1" parent="IN8d0VnAYBJhFlT8Tgrd-218">
          <mxGeometry width="99" height="40" as="geometry" />
        </mxCell>
        <mxCell id="IN8d0VnAYBJhFlT8Tgrd-224" style="vsdxID=5;edgeStyle=none;startArrow=none;endArrow=block;startSize=5;endSize=7;strokeColor=#000000;spacingTop=0;spacingBottom=0;spacingLeft=0;spacingRight=0;verticalAlign=middle;html=1;labelBackgroundColor=#FFFFFF;rounded=0;entryX=-0.017;entryY=0.625;entryDx=0;entryDy=0;entryPerimeter=0;" edge="1" parent="1" target="IN8d0VnAYBJhFlT8Tgrd-213">
          <mxGeometry x="-113.8" y="-965" relative="1" as="geometry">
            <mxPoint x="-113.8" y="-965" as="offset" />
            <mxPoint x="651" y="540" as="sourcePoint" />
            <mxPoint x="671" y="540" as="targetPoint" />
          </mxGeometry>
        </mxCell>
        <mxCell id="IN8d0VnAYBJhFlT8Tgrd-225" style="vsdxID=5;edgeStyle=none;startArrow=none;endArrow=block;startSize=5;endSize=7;strokeColor=#000000;spacingTop=0;spacingBottom=0;spacingLeft=0;spacingRight=0;verticalAlign=middle;html=1;labelBackgroundColor=#FFFFFF;rounded=0;entryX=-0.017;entryY=0.675;entryDx=0;entryDy=0;entryPerimeter=0;exitX=0.992;exitY=0.575;exitDx=0;exitDy=0;exitPerimeter=0;" edge="1" parent="1" target="IN8d0VnAYBJhFlT8Tgrd-219">
          <mxGeometry x="-113.8" y="-965" relative="1" as="geometry">
            <mxPoint x="-113.8" y="-965" as="offset" />
            <mxPoint x="650" y="543" as="sourcePoint" />
            <mxPoint x="699" y="520" as="targetPoint" />
          </mxGeometry>
        </mxCell>
        <mxCell id="IN8d0VnAYBJhFlT8Tgrd-227" value="" style="group" vertex="1" connectable="0" parent="1">
          <mxGeometry x="691" y="700" width="100" height="38" as="geometry" />
        </mxCell>
        <mxCell id="IN8d0VnAYBJhFlT8Tgrd-228" value="&lt;p style=&quot;align:left;margin-left:41;margin-right:0;margin-top:0px;margin-bottom:0px;text-indent:0;valign:middle;direction:ltr;&quot;&gt;&lt;/p&gt;" style="verticalAlign=middle;align=left;vsdxID=6;fillColor=#FFFFFF;gradientColor=none;shape=stencil(nZFRDoIwDIZP09dltAkcAPEeJAzXODcypuLt3RyJuAeivv1tvzZ/W6B21v2kAOUcvDurOw9BAx0Aka1WnkNUQB1QOzqvTt5d7ZDjqU9kUhd3SxOW3FdVAlMTyseakPIVHzNt2G7ptfgXvIeWLnbYz6HUCKJv4RpF3fzgolgvivcZRzYmf2FbL88eU/ll1D0B);strokeColor=#000000;spacingTop=1;spacingBottom=-1;spacingLeft=-1;spacingRight=-1;labelBackgroundColor=none;rounded=0;html=1;whiteSpace=wrap;" vertex="1" parent="IN8d0VnAYBJhFlT8Tgrd-227">
          <mxGeometry width="100" height="38" as="geometry" />
        </mxCell>
        <mxCell id="IN8d0VnAYBJhFlT8Tgrd-229" style="vsdxID=7;fillColor=#C0C0C0;gradientColor=none;shape=stencil(nZBNDoQgDIVP0z3SeALFe5iI0gwDBvHv9kIaM+rCxezea7++pA+wmkw7apBiisF/9EpdNIA1SEnO6EAxKUAFWPU+6CH42XXsxzaTWX39khM2vitFPpFiZ8uuYdKSu5B3sHwhH5mFeGHP5R+5NzKJ34s9WcsNXffPStKI60R1AA==);strokeColor=#000000;spacingTop=-3;spacingBottom=-3;spacingLeft=-3;spacingRight=-3;labelBackgroundColor=none;rounded=0;html=1;whiteSpace=wrap;" vertex="1" parent="IN8d0VnAYBJhFlT8Tgrd-227">
          <mxGeometry x="4.724409448818898" y="6" width="19.68503937007874" height="25" as="geometry" />
        </mxCell>
        <mxCell id="IN8d0VnAYBJhFlT8Tgrd-230" value="ID" style="verticalAlign=middle;align=center;vsdxID=8;fillColor=#FFFFFF;gradientColor=none;shape=stencil(nZBLDsIwDERP420U2RJV1qXco1JTYhGSKg2/25PUi1ZFLGA3Hj9b9gC1s+snC6jnnOLFPnjIDugIiBycTZyLAuqA2jEme07xFgapp76SVV3jvW54ypwxCusQ6pcYqA7NYpwE9xw2OOn/YdMoou/0xyW/8vtjili/Htl7CW3b36dULEmYujc=);strokeColor=none;spacingTop=1;spacingBottom=-1;spacingLeft=-1;spacingRight=-1;labelBackgroundColor=none;rounded=0;html=1;whiteSpace=wrap;" vertex="1" parent="IN8d0VnAYBJhFlT8Tgrd-227">
          <mxGeometry width="100" height="38" as="geometry" />
        </mxCell>
        <mxCell id="IN8d0VnAYBJhFlT8Tgrd-231" value="" style="group" vertex="1" connectable="0" parent="1">
          <mxGeometry x="690" y="752" width="100" height="38" as="geometry" />
        </mxCell>
        <mxCell id="IN8d0VnAYBJhFlT8Tgrd-232" value="&lt;p style=&quot;align:left;margin-left:41;margin-right:0;margin-top:0px;margin-bottom:0px;text-indent:0;valign:middle;direction:ltr;&quot;&gt;&lt;/p&gt;" style="verticalAlign=middle;align=left;vsdxID=6;fillColor=#FFFFFF;gradientColor=none;shape=stencil(nZFRDoIwDIZP09dltAkcAPEeJAzXODcypuLt3RyJuAeivv1tvzZ/W6B21v2kAOUcvDurOw9BAx0Aka1WnkNUQB1QOzqvTt5d7ZDjqU9kUhd3SxOW3FdVAlMTyseakPIVHzNt2G7ptfgXvIeWLnbYz6HUCKJv4RpF3fzgolgvivcZRzYmf2FbL88eU/ll1D0B);strokeColor=#000000;spacingTop=1;spacingBottom=-1;spacingLeft=-1;spacingRight=-1;labelBackgroundColor=none;rounded=0;html=1;whiteSpace=wrap;" vertex="1" parent="IN8d0VnAYBJhFlT8Tgrd-231">
          <mxGeometry width="100" height="38" as="geometry" />
        </mxCell>
        <mxCell id="IN8d0VnAYBJhFlT8Tgrd-233" style="vsdxID=7;fillColor=#C0C0C0;gradientColor=none;shape=stencil(nZBNDoQgDIVP0z3SeALFe5iI0gwDBvHv9kIaM+rCxezea7++pA+wmkw7apBiisF/9EpdNIA1SEnO6EAxKUAFWPU+6CH42XXsxzaTWX39khM2vitFPpFiZ8uuYdKSu5B3sHwhH5mFeGHP5R+5NzKJ34s9WcsNXffPStKI60R1AA==);strokeColor=#000000;spacingTop=-3;spacingBottom=-3;spacingLeft=-3;spacingRight=-3;labelBackgroundColor=none;rounded=0;html=1;whiteSpace=wrap;" vertex="1" parent="IN8d0VnAYBJhFlT8Tgrd-231">
          <mxGeometry x="4.724409448818898" y="6" width="19.68503937007874" height="25" as="geometry" />
        </mxCell>
        <mxCell id="IN8d0VnAYBJhFlT8Tgrd-234" value="&lt;span style=&quot;white-space: pre;&quot;&gt;	&lt;/span&gt;Description" style="verticalAlign=middle;align=center;vsdxID=8;fillColor=#FFFFFF;gradientColor=none;shape=stencil(nZBLDsIwDERP420U2RJV1qXco1JTYhGSKg2/25PUi1ZFLGA3Hj9b9gC1s+snC6jnnOLFPnjIDugIiBycTZyLAuqA2jEme07xFgapp76SVV3jvW54ypwxCusQ6pcYqA7NYpwE9xw2OOn/YdMoou/0xyW/8vtjili/Htl7CW3b36dULEmYujc=);strokeColor=none;spacingTop=1;spacingBottom=-1;spacingLeft=-1;spacingRight=-1;labelBackgroundColor=none;rounded=0;html=1;whiteSpace=wrap;" vertex="1" parent="IN8d0VnAYBJhFlT8Tgrd-231">
          <mxGeometry width="100" height="38" as="geometry" />
        </mxCell>
        <mxCell id="IN8d0VnAYBJhFlT8Tgrd-235" value="" style="group" vertex="1" connectable="0" parent="1">
          <mxGeometry x="690" y="802" width="100" height="38" as="geometry" />
        </mxCell>
        <mxCell id="IN8d0VnAYBJhFlT8Tgrd-236" value="&lt;p style=&quot;align:left;margin-left:41;margin-right:0;margin-top:0px;margin-bottom:0px;text-indent:0;valign:middle;direction:ltr;&quot;&gt;&lt;/p&gt;" style="verticalAlign=middle;align=left;vsdxID=6;fillColor=#FFFFFF;gradientColor=none;shape=stencil(nZFRDoIwDIZP09dltAkcAPEeJAzXODcypuLt3RyJuAeivv1tvzZ/W6B21v2kAOUcvDurOw9BAx0Aka1WnkNUQB1QOzqvTt5d7ZDjqU9kUhd3SxOW3FdVAlMTyseakPIVHzNt2G7ptfgXvIeWLnbYz6HUCKJv4RpF3fzgolgvivcZRzYmf2FbL88eU/ll1D0B);strokeColor=#000000;spacingTop=1;spacingBottom=-1;spacingLeft=-1;spacingRight=-1;labelBackgroundColor=none;rounded=0;html=1;whiteSpace=wrap;" vertex="1" parent="IN8d0VnAYBJhFlT8Tgrd-235">
          <mxGeometry width="100" height="38" as="geometry" />
        </mxCell>
        <mxCell id="IN8d0VnAYBJhFlT8Tgrd-237" style="vsdxID=7;fillColor=#C0C0C0;gradientColor=none;shape=stencil(nZBNDoQgDIVP0z3SeALFe5iI0gwDBvHv9kIaM+rCxezea7++pA+wmkw7apBiisF/9EpdNIA1SEnO6EAxKUAFWPU+6CH42XXsxzaTWX39khM2vitFPpFiZ8uuYdKSu5B3sHwhH5mFeGHP5R+5NzKJ34s9WcsNXffPStKI60R1AA==);strokeColor=#000000;spacingTop=-3;spacingBottom=-3;spacingLeft=-3;spacingRight=-3;labelBackgroundColor=none;rounded=0;html=1;whiteSpace=wrap;" vertex="1" parent="IN8d0VnAYBJhFlT8Tgrd-235">
          <mxGeometry x="4.724409448818898" y="6" width="19.68503937007874" height="25" as="geometry" />
        </mxCell>
        <mxCell id="IN8d0VnAYBJhFlT8Tgrd-238" value="&lt;span style=&quot;white-space: pre;&quot;&gt;	&lt;/span&gt;SalesPice" style="verticalAlign=middle;align=center;vsdxID=8;fillColor=#FFFFFF;gradientColor=none;shape=stencil(nZBLDsIwDERP420U2RJV1qXco1JTYhGSKg2/25PUi1ZFLGA3Hj9b9gC1s+snC6jnnOLFPnjIDugIiBycTZyLAuqA2jEme07xFgapp76SVV3jvW54ypwxCusQ6pcYqA7NYpwE9xw2OOn/YdMoou/0xyW/8vtjili/Htl7CW3b36dULEmYujc=);strokeColor=none;spacingTop=1;spacingBottom=-1;spacingLeft=-1;spacingRight=-1;labelBackgroundColor=none;rounded=0;html=1;whiteSpace=wrap;" vertex="1" parent="IN8d0VnAYBJhFlT8Tgrd-235">
          <mxGeometry width="100" height="38" as="geometry" />
        </mxCell>
        <mxCell id="IN8d0VnAYBJhFlT8Tgrd-247" value="" style="group" vertex="1" connectable="0" parent="1">
          <mxGeometry x="690" y="370" width="100" height="38" as="geometry" />
        </mxCell>
        <mxCell id="IN8d0VnAYBJhFlT8Tgrd-248" value="&lt;p style=&quot;align:left;margin-left:41;margin-right:0;margin-top:0px;margin-bottom:0px;text-indent:0;valign:middle;direction:ltr;&quot;&gt;&lt;/p&gt;" style="verticalAlign=middle;align=left;vsdxID=6;fillColor=#FFFFFF;gradientColor=none;shape=stencil(nZFRDoIwDIZP09dltAkcAPEeJAzXODcypuLt3RyJuAeivv1tvzZ/W6B21v2kAOUcvDurOw9BAx0Aka1WnkNUQB1QOzqvTt5d7ZDjqU9kUhd3SxOW3FdVAlMTyseakPIVHzNt2G7ptfgXvIeWLnbYz6HUCKJv4RpF3fzgolgvivcZRzYmf2FbL88eU/ll1D0B);strokeColor=#000000;spacingTop=1;spacingBottom=-1;spacingLeft=-1;spacingRight=-1;labelBackgroundColor=none;rounded=0;html=1;whiteSpace=wrap;" vertex="1" parent="IN8d0VnAYBJhFlT8Tgrd-247">
          <mxGeometry width="100" height="38" as="geometry" />
        </mxCell>
        <mxCell id="IN8d0VnAYBJhFlT8Tgrd-249" style="vsdxID=7;fillColor=#C0C0C0;gradientColor=none;shape=stencil(nZBNDoQgDIVP0z3SeALFe5iI0gwDBvHv9kIaM+rCxezea7++pA+wmkw7apBiisF/9EpdNIA1SEnO6EAxKUAFWPU+6CH42XXsxzaTWX39khM2vitFPpFiZ8uuYdKSu5B3sHwhH5mFeGHP5R+5NzKJ34s9WcsNXffPStKI60R1AA==);strokeColor=#000000;spacingTop=-3;spacingBottom=-3;spacingLeft=-3;spacingRight=-3;labelBackgroundColor=none;rounded=0;html=1;whiteSpace=wrap;" vertex="1" parent="IN8d0VnAYBJhFlT8Tgrd-247">
          <mxGeometry x="4.724409448818898" y="6" width="19.68503937007874" height="25" as="geometry" />
        </mxCell>
        <mxCell id="IN8d0VnAYBJhFlT8Tgrd-250" value="ID" style="verticalAlign=middle;align=center;vsdxID=8;fillColor=#FFFFFF;gradientColor=none;shape=stencil(nZBLDsIwDERP420U2RJV1qXco1JTYhGSKg2/25PUi1ZFLGA3Hj9b9gC1s+snC6jnnOLFPnjIDugIiBycTZyLAuqA2jEme07xFgapp76SVV3jvW54ypwxCusQ6pcYqA7NYpwE9xw2OOn/YdMoou/0xyW/8vtjili/Htl7CW3b36dULEmYujc=);strokeColor=none;spacingTop=1;spacingBottom=-1;spacingLeft=-1;spacingRight=-1;labelBackgroundColor=none;rounded=0;html=1;whiteSpace=wrap;" vertex="1" parent="IN8d0VnAYBJhFlT8Tgrd-247">
          <mxGeometry width="100" height="38" as="geometry" />
        </mxCell>
        <mxCell id="IN8d0VnAYBJhFlT8Tgrd-251" value="" style="group" vertex="1" connectable="0" parent="1">
          <mxGeometry x="690" y="430" width="100" height="38" as="geometry" />
        </mxCell>
        <mxCell id="IN8d0VnAYBJhFlT8Tgrd-252" value="&lt;p style=&quot;align:left;margin-left:41;margin-right:0;margin-top:0px;margin-bottom:0px;text-indent:0;valign:middle;direction:ltr;&quot;&gt;&lt;/p&gt;" style="verticalAlign=middle;align=left;vsdxID=6;fillColor=#FFFFFF;gradientColor=none;shape=stencil(nZFRDoIwDIZP09dltAkcAPEeJAzXODcypuLt3RyJuAeivv1tvzZ/W6B21v2kAOUcvDurOw9BAx0Aka1WnkNUQB1QOzqvTt5d7ZDjqU9kUhd3SxOW3FdVAlMTyseakPIVHzNt2G7ptfgXvIeWLnbYz6HUCKJv4RpF3fzgolgvivcZRzYmf2FbL88eU/ll1D0B);strokeColor=#000000;spacingTop=1;spacingBottom=-1;spacingLeft=-1;spacingRight=-1;labelBackgroundColor=none;rounded=0;html=1;whiteSpace=wrap;" vertex="1" parent="IN8d0VnAYBJhFlT8Tgrd-251">
          <mxGeometry width="100" height="38" as="geometry" />
        </mxCell>
        <mxCell id="IN8d0VnAYBJhFlT8Tgrd-253" style="vsdxID=7;fillColor=#C0C0C0;gradientColor=none;shape=stencil(nZBNDoQgDIVP0z3SeALFe5iI0gwDBvHv9kIaM+rCxezea7++pA+wmkw7apBiisF/9EpdNIA1SEnO6EAxKUAFWPU+6CH42XXsxzaTWX39khM2vitFPpFiZ8uuYdKSu5B3sHwhH5mFeGHP5R+5NzKJ34s9WcsNXffPStKI60R1AA==);strokeColor=#000000;spacingTop=-3;spacingBottom=-3;spacingLeft=-3;spacingRight=-3;labelBackgroundColor=none;rounded=0;html=1;whiteSpace=wrap;" vertex="1" parent="IN8d0VnAYBJhFlT8Tgrd-251">
          <mxGeometry x="4.724409448818898" y="6" width="19.68503937007874" height="25" as="geometry" />
        </mxCell>
        <mxCell id="IN8d0VnAYBJhFlT8Tgrd-254" value="&lt;span style=&quot;white-space: pre;&quot;&gt;	&lt;/span&gt;Description" style="verticalAlign=middle;align=center;vsdxID=8;fillColor=#FFFFFF;gradientColor=none;shape=stencil(nZBLDsIwDERP420U2RJV1qXco1JTYhGSKg2/25PUi1ZFLGA3Hj9b9gC1s+snC6jnnOLFPnjIDugIiBycTZyLAuqA2jEme07xFgapp76SVV3jvW54ypwxCusQ6pcYqA7NYpwE9xw2OOn/YdMoou/0xyW/8vtjili/Htl7CW3b36dULEmYujc=);strokeColor=none;spacingTop=1;spacingBottom=-1;spacingLeft=-1;spacingRight=-1;labelBackgroundColor=none;rounded=0;html=1;whiteSpace=wrap;" vertex="1" parent="IN8d0VnAYBJhFlT8Tgrd-251">
          <mxGeometry width="100" height="38" as="geometry" />
        </mxCell>
        <mxCell id="IN8d0VnAYBJhFlT8Tgrd-255" style="vsdxID=5;edgeStyle=none;startArrow=none;endArrow=block;startSize=5;endSize=7;strokeColor=#000000;spacingTop=0;spacingBottom=0;spacingLeft=0;spacingRight=0;verticalAlign=middle;html=1;labelBackgroundColor=#FFFFFF;rounded=0;" edge="1" parent="1">
          <mxGeometry x="-113.8" y="-965" relative="1" as="geometry">
            <mxPoint x="-113.8" y="-965" as="offset" />
            <mxPoint x="650" y="620" as="sourcePoint" />
            <mxPoint x="690" y="620" as="targetPoint" />
          </mxGeometry>
        </mxCell>
        <mxCell id="IN8d0VnAYBJhFlT8Tgrd-256" style="vsdxID=5;edgeStyle=none;startArrow=none;endArrow=block;startSize=5;endSize=7;strokeColor=#000000;spacingTop=0;spacingBottom=0;spacingLeft=0;spacingRight=0;verticalAlign=middle;html=1;labelBackgroundColor=#FFFFFF;rounded=0;exitX=0.975;exitY=0.75;exitDx=0;exitDy=0;exitPerimeter=0;" edge="1" parent="1" source="IN8d0VnAYBJhFlT8Tgrd-152">
          <mxGeometry x="-113.8" y="-965" relative="1" as="geometry">
            <mxPoint x="-113.8" y="-965" as="offset" />
            <mxPoint x="660" y="630" as="sourcePoint" />
            <mxPoint x="690" y="670" as="targetPoint" />
          </mxGeometry>
        </mxCell>
        <mxCell id="IN8d0VnAYBJhFlT8Tgrd-257" style="vsdxID=5;edgeStyle=none;startArrow=none;endArrow=block;startSize=5;endSize=7;strokeColor=#000000;spacingTop=0;spacingBottom=0;spacingLeft=0;spacingRight=0;verticalAlign=middle;html=1;labelBackgroundColor=#FFFFFF;rounded=0;entryX=0.02;entryY=0.605;entryDx=0;entryDy=0;entryPerimeter=0;" edge="1" parent="1" target="IN8d0VnAYBJhFlT8Tgrd-228">
          <mxGeometry x="-113.8" y="-965" relative="1" as="geometry">
            <mxPoint x="-113.8" y="-965" as="offset" />
            <mxPoint x="650" y="710" as="sourcePoint" />
            <mxPoint x="690" y="710" as="targetPoint" />
          </mxGeometry>
        </mxCell>
        <mxCell id="IN8d0VnAYBJhFlT8Tgrd-259" style="vsdxID=5;edgeStyle=none;startArrow=none;endArrow=block;startSize=5;endSize=7;strokeColor=#000000;spacingTop=0;spacingBottom=0;spacingLeft=0;spacingRight=0;verticalAlign=middle;html=1;labelBackgroundColor=#FFFFFF;rounded=0;entryX=0;entryY=0.553;entryDx=0;entryDy=0;entryPerimeter=0;exitX=0.925;exitY=0.95;exitDx=0;exitDy=0;exitPerimeter=0;" edge="1" parent="1" source="IN8d0VnAYBJhFlT8Tgrd-158" target="IN8d0VnAYBJhFlT8Tgrd-232">
          <mxGeometry x="-113.8" y="-965" relative="1" as="geometry">
            <mxPoint x="-113.8" y="-965" as="offset" />
            <mxPoint x="640" y="725" as="sourcePoint" />
            <mxPoint x="683" y="738" as="targetPoint" />
          </mxGeometry>
        </mxCell>
        <mxCell id="IN8d0VnAYBJhFlT8Tgrd-260" value="" style="group" vertex="1" connectable="0" parent="1">
          <mxGeometry x="980" y="700" width="100" height="38" as="geometry" />
        </mxCell>
        <mxCell id="IN8d0VnAYBJhFlT8Tgrd-261" value="&lt;p style=&quot;align:left;margin-left:41;margin-right:0;margin-top:0px;margin-bottom:0px;text-indent:0;valign:middle;direction:ltr;&quot;&gt;&lt;/p&gt;" style="verticalAlign=middle;align=left;vsdxID=6;fillColor=#FFFFFF;gradientColor=none;shape=stencil(nZFRDoIwDIZP09dltAkcAPEeJAzXODcypuLt3RyJuAeivv1tvzZ/W6B21v2kAOUcvDurOw9BAx0Aka1WnkNUQB1QOzqvTt5d7ZDjqU9kUhd3SxOW3FdVAlMTyseakPIVHzNt2G7ptfgXvIeWLnbYz6HUCKJv4RpF3fzgolgvivcZRzYmf2FbL88eU/ll1D0B);strokeColor=#000000;spacingTop=1;spacingBottom=-1;spacingLeft=-1;spacingRight=-1;labelBackgroundColor=none;rounded=0;html=1;whiteSpace=wrap;" vertex="1" parent="IN8d0VnAYBJhFlT8Tgrd-260">
          <mxGeometry width="100" height="38" as="geometry" />
        </mxCell>
        <mxCell id="IN8d0VnAYBJhFlT8Tgrd-262" style="vsdxID=7;fillColor=#C0C0C0;gradientColor=none;shape=stencil(nZBNDoQgDIVP0z3SeALFe5iI0gwDBvHv9kIaM+rCxezea7++pA+wmkw7apBiisF/9EpdNIA1SEnO6EAxKUAFWPU+6CH42XXsxzaTWX39khM2vitFPpFiZ8uuYdKSu5B3sHwhH5mFeGHP5R+5NzKJ34s9WcsNXffPStKI60R1AA==);strokeColor=#000000;spacingTop=-3;spacingBottom=-3;spacingLeft=-3;spacingRight=-3;labelBackgroundColor=none;rounded=0;html=1;whiteSpace=wrap;" vertex="1" parent="IN8d0VnAYBJhFlT8Tgrd-260">
          <mxGeometry x="4.724409448818898" y="6" width="19.68503937007874" height="25" as="geometry" />
        </mxCell>
        <mxCell id="IN8d0VnAYBJhFlT8Tgrd-263" value="ID" style="verticalAlign=middle;align=center;vsdxID=8;fillColor=#FFFFFF;gradientColor=none;shape=stencil(nZBLDsIwDERP420U2RJV1qXco1JTYhGSKg2/25PUi1ZFLGA3Hj9b9gC1s+snC6jnnOLFPnjIDugIiBycTZyLAuqA2jEme07xFgapp76SVV3jvW54ypwxCusQ6pcYqA7NYpwE9xw2OOn/YdMoou/0xyW/8vtjili/Htl7CW3b36dULEmYujc=);strokeColor=none;spacingTop=1;spacingBottom=-1;spacingLeft=-1;spacingRight=-1;labelBackgroundColor=none;rounded=0;html=1;whiteSpace=wrap;" vertex="1" parent="IN8d0VnAYBJhFlT8Tgrd-260">
          <mxGeometry width="100" height="38" as="geometry" />
        </mxCell>
        <mxCell id="IN8d0VnAYBJhFlT8Tgrd-264" value="" style="group" vertex="1" connectable="0" parent="1">
          <mxGeometry x="979" y="752" width="100" height="38" as="geometry" />
        </mxCell>
        <mxCell id="IN8d0VnAYBJhFlT8Tgrd-265" value="&lt;p style=&quot;align:left;margin-left:41;margin-right:0;margin-top:0px;margin-bottom:0px;text-indent:0;valign:middle;direction:ltr;&quot;&gt;&lt;/p&gt;" style="verticalAlign=middle;align=left;vsdxID=6;fillColor=#FFFFFF;gradientColor=none;shape=stencil(nZFRDoIwDIZP09dltAkcAPEeJAzXODcypuLt3RyJuAeivv1tvzZ/W6B21v2kAOUcvDurOw9BAx0Aka1WnkNUQB1QOzqvTt5d7ZDjqU9kUhd3SxOW3FdVAlMTyseakPIVHzNt2G7ptfgXvIeWLnbYz6HUCKJv4RpF3fzgolgvivcZRzYmf2FbL88eU/ll1D0B);strokeColor=#000000;spacingTop=1;spacingBottom=-1;spacingLeft=-1;spacingRight=-1;labelBackgroundColor=none;rounded=0;html=1;whiteSpace=wrap;" vertex="1" parent="IN8d0VnAYBJhFlT8Tgrd-264">
          <mxGeometry width="100" height="38" as="geometry" />
        </mxCell>
        <mxCell id="IN8d0VnAYBJhFlT8Tgrd-266" style="vsdxID=7;fillColor=#C0C0C0;gradientColor=none;shape=stencil(nZBNDoQgDIVP0z3SeALFe5iI0gwDBvHv9kIaM+rCxezea7++pA+wmkw7apBiisF/9EpdNIA1SEnO6EAxKUAFWPU+6CH42XXsxzaTWX39khM2vitFPpFiZ8uuYdKSu5B3sHwhH5mFeGHP5R+5NzKJ34s9WcsNXffPStKI60R1AA==);strokeColor=#000000;spacingTop=-3;spacingBottom=-3;spacingLeft=-3;spacingRight=-3;labelBackgroundColor=none;rounded=0;html=1;whiteSpace=wrap;" vertex="1" parent="IN8d0VnAYBJhFlT8Tgrd-264">
          <mxGeometry x="4.724409448818898" y="6" width="19.68503937007874" height="25" as="geometry" />
        </mxCell>
        <mxCell id="IN8d0VnAYBJhFlT8Tgrd-267" value="&lt;span style=&quot;white-space: pre;&quot;&gt;	&lt;/span&gt;Description" style="verticalAlign=middle;align=center;vsdxID=8;fillColor=#FFFFFF;gradientColor=none;shape=stencil(nZBLDsIwDERP420U2RJV1qXco1JTYhGSKg2/25PUi1ZFLGA3Hj9b9gC1s+snC6jnnOLFPnjIDugIiBycTZyLAuqA2jEme07xFgapp76SVV3jvW54ypwxCusQ6pcYqA7NYpwE9xw2OOn/YdMoou/0xyW/8vtjili/Htl7CW3b36dULEmYujc=);strokeColor=none;spacingTop=1;spacingBottom=-1;spacingLeft=-1;spacingRight=-1;labelBackgroundColor=none;rounded=0;html=1;whiteSpace=wrap;" vertex="1" parent="IN8d0VnAYBJhFlT8Tgrd-264">
          <mxGeometry width="100" height="38" as="geometry" />
        </mxCell>
        <mxCell id="IN8d0VnAYBJhFlT8Tgrd-268" value="" style="group" vertex="1" connectable="0" parent="1">
          <mxGeometry x="979" y="600" width="100" height="38" as="geometry" />
        </mxCell>
        <mxCell id="IN8d0VnAYBJhFlT8Tgrd-269" value="&lt;p style=&quot;align:left;margin-left:41;margin-right:0;margin-top:0px;margin-bottom:0px;text-indent:0;valign:middle;direction:ltr;&quot;&gt;&lt;/p&gt;" style="verticalAlign=middle;align=left;vsdxID=6;fillColor=#FFFFFF;gradientColor=none;shape=stencil(nZFRDoIwDIZP09dltAkcAPEeJAzXODcypuLt3RyJuAeivv1tvzZ/W6B21v2kAOUcvDurOw9BAx0Aka1WnkNUQB1QOzqvTt5d7ZDjqU9kUhd3SxOW3FdVAlMTyseakPIVHzNt2G7ptfgXvIeWLnbYz6HUCKJv4RpF3fzgolgvivcZRzYmf2FbL88eU/ll1D0B);strokeColor=#000000;spacingTop=1;spacingBottom=-1;spacingLeft=-1;spacingRight=-1;labelBackgroundColor=none;rounded=0;html=1;whiteSpace=wrap;" vertex="1" parent="IN8d0VnAYBJhFlT8Tgrd-268">
          <mxGeometry width="100" height="38" as="geometry" />
        </mxCell>
        <mxCell id="IN8d0VnAYBJhFlT8Tgrd-270" style="vsdxID=7;fillColor=#C0C0C0;gradientColor=none;shape=stencil(nZBNDoQgDIVP0z3SeALFe5iI0gwDBvHv9kIaM+rCxezea7++pA+wmkw7apBiisF/9EpdNIA1SEnO6EAxKUAFWPU+6CH42XXsxzaTWX39khM2vitFPpFiZ8uuYdKSu5B3sHwhH5mFeGHP5R+5NzKJ34s9WcsNXffPStKI60R1AA==);strokeColor=#000000;spacingTop=-3;spacingBottom=-3;spacingLeft=-3;spacingRight=-3;labelBackgroundColor=none;rounded=0;html=1;whiteSpace=wrap;" vertex="1" parent="IN8d0VnAYBJhFlT8Tgrd-268">
          <mxGeometry x="4.724409448818898" y="6" width="19.68503937007874" height="25" as="geometry" />
        </mxCell>
        <mxCell id="IN8d0VnAYBJhFlT8Tgrd-271" value="ID" style="verticalAlign=middle;align=center;vsdxID=8;fillColor=#FFFFFF;gradientColor=none;shape=stencil(nZBLDsIwDERP420U2RJV1qXco1JTYhGSKg2/25PUi1ZFLGA3Hj9b9gC1s+snC6jnnOLFPnjIDugIiBycTZyLAuqA2jEme07xFgapp76SVV3jvW54ypwxCusQ6pcYqA7NYpwE9xw2OOn/YdMoou/0xyW/8vtjili/Htl7CW3b36dULEmYujc=);strokeColor=none;spacingTop=1;spacingBottom=-1;spacingLeft=-1;spacingRight=-1;labelBackgroundColor=none;rounded=0;html=1;whiteSpace=wrap;" vertex="1" parent="IN8d0VnAYBJhFlT8Tgrd-268">
          <mxGeometry width="100" height="38" as="geometry" />
        </mxCell>
        <mxCell id="IN8d0VnAYBJhFlT8Tgrd-272" value="" style="group" vertex="1" connectable="0" parent="1">
          <mxGeometry x="979" y="650" width="100" height="38" as="geometry" />
        </mxCell>
        <mxCell id="IN8d0VnAYBJhFlT8Tgrd-273" value="&lt;p style=&quot;align:left;margin-left:41;margin-right:0;margin-top:0px;margin-bottom:0px;text-indent:0;valign:middle;direction:ltr;&quot;&gt;&lt;/p&gt;" style="verticalAlign=middle;align=left;vsdxID=6;fillColor=#FFFFFF;gradientColor=none;shape=stencil(nZFRDoIwDIZP09dltAkcAPEeJAzXODcypuLt3RyJuAeivv1tvzZ/W6B21v2kAOUcvDurOw9BAx0Aka1WnkNUQB1QOzqvTt5d7ZDjqU9kUhd3SxOW3FdVAlMTyseakPIVHzNt2G7ptfgXvIeWLnbYz6HUCKJv4RpF3fzgolgvivcZRzYmf2FbL88eU/ll1D0B);strokeColor=#000000;spacingTop=1;spacingBottom=-1;spacingLeft=-1;spacingRight=-1;labelBackgroundColor=none;rounded=0;html=1;whiteSpace=wrap;" vertex="1" parent="IN8d0VnAYBJhFlT8Tgrd-272">
          <mxGeometry width="100" height="38" as="geometry" />
        </mxCell>
        <mxCell id="IN8d0VnAYBJhFlT8Tgrd-274" style="vsdxID=7;fillColor=#C0C0C0;gradientColor=none;shape=stencil(nZBNDoQgDIVP0z3SeALFe5iI0gwDBvHv9kIaM+rCxezea7++pA+wmkw7apBiisF/9EpdNIA1SEnO6EAxKUAFWPU+6CH42XXsxzaTWX39khM2vitFPpFiZ8uuYdKSu5B3sHwhH5mFeGHP5R+5NzKJ34s9WcsNXffPStKI60R1AA==);strokeColor=#000000;spacingTop=-3;spacingBottom=-3;spacingLeft=-3;spacingRight=-3;labelBackgroundColor=none;rounded=0;html=1;whiteSpace=wrap;" vertex="1" parent="IN8d0VnAYBJhFlT8Tgrd-272">
          <mxGeometry x="4.724409448818898" y="6" width="19.68503937007874" height="25" as="geometry" />
        </mxCell>
        <mxCell id="IN8d0VnAYBJhFlT8Tgrd-275" value="&lt;span style=&quot;white-space: pre;&quot;&gt;	&lt;/span&gt;Description" style="verticalAlign=middle;align=center;vsdxID=8;fillColor=#FFFFFF;gradientColor=none;shape=stencil(nZBLDsIwDERP420U2RJV1qXco1JTYhGSKg2/25PUi1ZFLGA3Hj9b9gC1s+snC6jnnOLFPnjIDugIiBycTZyLAuqA2jEme07xFgapp76SVV3jvW54ypwxCusQ6pcYqA7NYpwE9xw2OOn/YdMoou/0xyW/8vtjili/Htl7CW3b36dULEmYujc=);strokeColor=none;spacingTop=1;spacingBottom=-1;spacingLeft=-1;spacingRight=-1;labelBackgroundColor=none;rounded=0;html=1;whiteSpace=wrap;" vertex="1" parent="IN8d0VnAYBJhFlT8Tgrd-272">
          <mxGeometry width="100" height="38" as="geometry" />
        </mxCell>
        <mxCell id="IN8d0VnAYBJhFlT8Tgrd-276" style="vsdxID=5;edgeStyle=none;startArrow=none;endArrow=block;startSize=5;endSize=7;strokeColor=#000000;spacingTop=0;spacingBottom=0;spacingLeft=0;spacingRight=0;verticalAlign=middle;html=1;labelBackgroundColor=#FFFFFF;rounded=0;" edge="1" parent="1">
          <mxGeometry x="-113.8" y="-965" relative="1" as="geometry">
            <mxPoint x="-113.8" y="-965" as="offset" />
            <mxPoint x="939" y="620" as="sourcePoint" />
            <mxPoint x="979" y="620" as="targetPoint" />
          </mxGeometry>
        </mxCell>
        <mxCell id="IN8d0VnAYBJhFlT8Tgrd-277" style="vsdxID=5;edgeStyle=none;startArrow=none;endArrow=block;startSize=5;endSize=7;strokeColor=#000000;spacingTop=0;spacingBottom=0;spacingLeft=0;spacingRight=0;verticalAlign=middle;html=1;labelBackgroundColor=#FFFFFF;rounded=0;exitX=0.975;exitY=0.75;exitDx=0;exitDy=0;exitPerimeter=0;" edge="1" parent="1">
          <mxGeometry x="-113.8" y="-965" relative="1" as="geometry">
            <mxPoint x="-113.8" y="-965" as="offset" />
            <mxPoint x="936" y="630" as="sourcePoint" />
            <mxPoint x="979" y="670" as="targetPoint" />
          </mxGeometry>
        </mxCell>
        <mxCell id="IN8d0VnAYBJhFlT8Tgrd-278" style="vsdxID=5;edgeStyle=none;startArrow=none;endArrow=block;startSize=5;endSize=7;strokeColor=#000000;spacingTop=0;spacingBottom=0;spacingLeft=0;spacingRight=0;verticalAlign=middle;html=1;labelBackgroundColor=#FFFFFF;rounded=0;entryX=0.02;entryY=0.605;entryDx=0;entryDy=0;entryPerimeter=0;" edge="1" parent="1" target="IN8d0VnAYBJhFlT8Tgrd-261">
          <mxGeometry x="-113.8" y="-965" relative="1" as="geometry">
            <mxPoint x="-113.8" y="-965" as="offset" />
            <mxPoint x="939" y="710" as="sourcePoint" />
            <mxPoint x="979" y="710" as="targetPoint" />
          </mxGeometry>
        </mxCell>
        <mxCell id="IN8d0VnAYBJhFlT8Tgrd-279" style="vsdxID=5;edgeStyle=none;startArrow=none;endArrow=block;startSize=5;endSize=7;strokeColor=#000000;spacingTop=0;spacingBottom=0;spacingLeft=0;spacingRight=0;verticalAlign=middle;html=1;labelBackgroundColor=#FFFFFF;rounded=0;entryX=0;entryY=0.553;entryDx=0;entryDy=0;entryPerimeter=0;exitX=0.925;exitY=0.95;exitDx=0;exitDy=0;exitPerimeter=0;" edge="1" parent="1" target="IN8d0VnAYBJhFlT8Tgrd-265">
          <mxGeometry x="-113.8" y="-965" relative="1" as="geometry">
            <mxPoint x="-113.8" y="-965" as="offset" />
            <mxPoint x="930" y="718" as="sourcePoint" />
            <mxPoint x="972" y="738" as="targetPoint" />
          </mxGeometry>
        </mxCell>
        <mxCell id="IN8d0VnAYBJhFlT8Tgrd-287" value="" style="group" vertex="1" connectable="0" parent="1">
          <mxGeometry x="980" y="810" width="100" height="38" as="geometry" />
        </mxCell>
        <mxCell id="IN8d0VnAYBJhFlT8Tgrd-288" value="&lt;p style=&quot;align:left;margin-left:41;margin-right:0;margin-top:0px;margin-bottom:0px;text-indent:0;valign:middle;direction:ltr;&quot;&gt;&lt;/p&gt;" style="verticalAlign=middle;align=left;vsdxID=6;fillColor=#FFFFFF;gradientColor=none;shape=stencil(nZFRDoIwDIZP09dltAkcAPEeJAzXODcypuLt3RyJuAeivv1tvzZ/W6B21v2kAOUcvDurOw9BAx0Aka1WnkNUQB1QOzqvTt5d7ZDjqU9kUhd3SxOW3FdVAlMTyseakPIVHzNt2G7ptfgXvIeWLnbYz6HUCKJv4RpF3fzgolgvivcZRzYmf2FbL88eU/ll1D0B);strokeColor=#000000;spacingTop=1;spacingBottom=-1;spacingLeft=-1;spacingRight=-1;labelBackgroundColor=none;rounded=0;html=1;whiteSpace=wrap;" vertex="1" parent="IN8d0VnAYBJhFlT8Tgrd-287">
          <mxGeometry width="100" height="38" as="geometry" />
        </mxCell>
        <mxCell id="IN8d0VnAYBJhFlT8Tgrd-289" style="vsdxID=7;fillColor=#C0C0C0;gradientColor=none;shape=stencil(nZBNDoQgDIVP0z3SeALFe5iI0gwDBvHv9kIaM+rCxezea7++pA+wmkw7apBiisF/9EpdNIA1SEnO6EAxKUAFWPU+6CH42XXsxzaTWX39khM2vitFPpFiZ8uuYdKSu5B3sHwhH5mFeGHP5R+5NzKJ34s9WcsNXffPStKI60R1AA==);strokeColor=#000000;spacingTop=-3;spacingBottom=-3;spacingLeft=-3;spacingRight=-3;labelBackgroundColor=none;rounded=0;html=1;whiteSpace=wrap;" vertex="1" parent="IN8d0VnAYBJhFlT8Tgrd-287">
          <mxGeometry x="4.724409448818898" y="6" width="19.68503937007874" height="25" as="geometry" />
        </mxCell>
        <mxCell id="IN8d0VnAYBJhFlT8Tgrd-290" value="ID" style="verticalAlign=middle;align=center;vsdxID=8;fillColor=#FFFFFF;gradientColor=none;shape=stencil(nZBLDsIwDERP420U2RJV1qXco1JTYhGSKg2/25PUi1ZFLGA3Hj9b9gC1s+snC6jnnOLFPnjIDugIiBycTZyLAuqA2jEme07xFgapp76SVV3jvW54ypwxCusQ6pcYqA7NYpwE9xw2OOn/YdMoou/0xyW/8vtjili/Htl7CW3b36dULEmYujc=);strokeColor=none;spacingTop=1;spacingBottom=-1;spacingLeft=-1;spacingRight=-1;labelBackgroundColor=none;rounded=0;html=1;whiteSpace=wrap;" vertex="1" parent="IN8d0VnAYBJhFlT8Tgrd-287">
          <mxGeometry width="100" height="38" as="geometry" />
        </mxCell>
        <mxCell id="IN8d0VnAYBJhFlT8Tgrd-291" value="" style="group" vertex="1" connectable="0" parent="1">
          <mxGeometry x="979" y="862" width="100" height="38" as="geometry" />
        </mxCell>
        <mxCell id="IN8d0VnAYBJhFlT8Tgrd-292" value="&lt;p style=&quot;align:left;margin-left:41;margin-right:0;margin-top:0px;margin-bottom:0px;text-indent:0;valign:middle;direction:ltr;&quot;&gt;&lt;/p&gt;" style="verticalAlign=middle;align=left;vsdxID=6;fillColor=#FFFFFF;gradientColor=none;shape=stencil(nZFRDoIwDIZP09dltAkcAPEeJAzXODcypuLt3RyJuAeivv1tvzZ/W6B21v2kAOUcvDurOw9BAx0Aka1WnkNUQB1QOzqvTt5d7ZDjqU9kUhd3SxOW3FdVAlMTyseakPIVHzNt2G7ptfgXvIeWLnbYz6HUCKJv4RpF3fzgolgvivcZRzYmf2FbL88eU/ll1D0B);strokeColor=#000000;spacingTop=1;spacingBottom=-1;spacingLeft=-1;spacingRight=-1;labelBackgroundColor=none;rounded=0;html=1;whiteSpace=wrap;" vertex="1" parent="IN8d0VnAYBJhFlT8Tgrd-291">
          <mxGeometry width="100" height="38" as="geometry" />
        </mxCell>
        <mxCell id="IN8d0VnAYBJhFlT8Tgrd-293" style="vsdxID=7;fillColor=#C0C0C0;gradientColor=none;shape=stencil(nZBNDoQgDIVP0z3SeALFe5iI0gwDBvHv9kIaM+rCxezea7++pA+wmkw7apBiisF/9EpdNIA1SEnO6EAxKUAFWPU+6CH42XXsxzaTWX39khM2vitFPpFiZ8uuYdKSu5B3sHwhH5mFeGHP5R+5NzKJ34s9WcsNXffPStKI60R1AA==);strokeColor=#000000;spacingTop=-3;spacingBottom=-3;spacingLeft=-3;spacingRight=-3;labelBackgroundColor=none;rounded=0;html=1;whiteSpace=wrap;" vertex="1" parent="IN8d0VnAYBJhFlT8Tgrd-291">
          <mxGeometry x="4.724409448818898" y="6" width="19.68503937007874" height="25" as="geometry" />
        </mxCell>
        <mxCell id="IN8d0VnAYBJhFlT8Tgrd-294" value="&lt;span style=&quot;white-space: pre;&quot;&gt;	&lt;/span&gt;Description" style="verticalAlign=middle;align=center;vsdxID=8;fillColor=#FFFFFF;gradientColor=none;shape=stencil(nZBLDsIwDERP420U2RJV1qXco1JTYhGSKg2/25PUi1ZFLGA3Hj9b9gC1s+snC6jnnOLFPnjIDugIiBycTZyLAuqA2jEme07xFgapp76SVV3jvW54ypwxCusQ6pcYqA7NYpwE9xw2OOn/YdMoou/0xyW/8vtjili/Htl7CW3b36dULEmYujc=);strokeColor=none;spacingTop=1;spacingBottom=-1;spacingLeft=-1;spacingRight=-1;labelBackgroundColor=none;rounded=0;html=1;whiteSpace=wrap;" vertex="1" parent="IN8d0VnAYBJhFlT8Tgrd-291">
          <mxGeometry width="100" height="38" as="geometry" />
        </mxCell>
        <mxCell id="IN8d0VnAYBJhFlT8Tgrd-295" style="vsdxID=5;edgeStyle=none;startArrow=none;endArrow=block;startSize=5;endSize=7;strokeColor=#000000;spacingTop=0;spacingBottom=0;spacingLeft=0;spacingRight=0;verticalAlign=middle;html=1;labelBackgroundColor=#FFFFFF;rounded=0;entryX=0.02;entryY=0.605;entryDx=0;entryDy=0;entryPerimeter=0;exitX=0.917;exitY=0.75;exitDx=0;exitDy=0;exitPerimeter=0;" edge="1" parent="1" target="IN8d0VnAYBJhFlT8Tgrd-288" source="IN8d0VnAYBJhFlT8Tgrd-192">
          <mxGeometry x="-113.8" y="-965" relative="1" as="geometry">
            <mxPoint x="-113.8" y="-965" as="offset" />
            <mxPoint x="939" y="820" as="sourcePoint" />
            <mxPoint x="979" y="820" as="targetPoint" />
          </mxGeometry>
        </mxCell>
        <mxCell id="IN8d0VnAYBJhFlT8Tgrd-296" style="vsdxID=5;edgeStyle=none;startArrow=none;endArrow=block;startSize=5;endSize=7;strokeColor=#000000;spacingTop=0;spacingBottom=0;spacingLeft=0;spacingRight=0;verticalAlign=middle;html=1;labelBackgroundColor=#FFFFFF;rounded=0;entryX=0;entryY=0.553;entryDx=0;entryDy=0;entryPerimeter=0;exitX=0.8;exitY=1.075;exitDx=0;exitDy=0;exitPerimeter=0;" edge="1" parent="1" target="IN8d0VnAYBJhFlT8Tgrd-292" source="IN8d0VnAYBJhFlT8Tgrd-192">
          <mxGeometry x="-113.8" y="-965" relative="1" as="geometry">
            <mxPoint x="-113.8" y="-965" as="offset" />
            <mxPoint x="930" y="828" as="sourcePoint" />
            <mxPoint x="972" y="848" as="targetPoint" />
          </mxGeometry>
        </mxCell>
        <mxCell id="IN8d0VnAYBJhFlT8Tgrd-297" style="vsdxID=5;edgeStyle=none;startArrow=none;endArrow=block;startSize=5;endSize=7;strokeColor=#000000;spacingTop=0;spacingBottom=0;spacingLeft=0;spacingRight=0;verticalAlign=middle;html=1;labelBackgroundColor=#FFFFFF;rounded=0;entryX=-0.01;entryY=0.579;entryDx=0;entryDy=0;entryPerimeter=0;exitX=0.8;exitY=1.025;exitDx=0;exitDy=0;exitPerimeter=0;" edge="1" parent="1" source="IN8d0VnAYBJhFlT8Tgrd-157" target="IN8d0VnAYBJhFlT8Tgrd-236">
          <mxGeometry x="-113.8" y="-965" relative="1" as="geometry">
            <mxPoint x="-113.8" y="-965" as="offset" />
            <mxPoint x="651" y="728" as="sourcePoint" />
            <mxPoint x="700" y="783" as="targetPoint" />
          </mxGeometry>
        </mxCell>
        <mxCell id="IN8d0VnAYBJhFlT8Tgrd-298" style="vsdxID=5;edgeStyle=none;startArrow=none;endArrow=block;startSize=5;endSize=7;strokeColor=#000000;spacingTop=0;spacingBottom=0;spacingLeft=0;spacingRight=0;verticalAlign=middle;html=1;labelBackgroundColor=#FFFFFF;rounded=0;entryX=-0.003;entryY=0.673;entryDx=0;entryDy=0;entryPerimeter=0;" edge="1" parent="1" target="IN8d0VnAYBJhFlT8Tgrd-248">
          <mxGeometry x="-113.8" y="-965" relative="1" as="geometry">
            <mxPoint x="-113.8" y="-965" as="offset" />
            <mxPoint x="640" y="520" as="sourcePoint" />
            <mxPoint x="699" y="520" as="targetPoint" />
          </mxGeometry>
        </mxCell>
        <mxCell id="IN8d0VnAYBJhFlT8Tgrd-299" style="vsdxID=5;edgeStyle=none;startArrow=none;endArrow=block;startSize=5;endSize=7;strokeColor=#000000;spacingTop=0;spacingBottom=0;spacingLeft=0;spacingRight=0;verticalAlign=middle;html=1;labelBackgroundColor=#FFFFFF;rounded=0;entryX=0.008;entryY=0.673;entryDx=0;entryDy=0;entryPerimeter=0;exitX=0.997;exitY=0.5;exitDx=0;exitDy=0;exitPerimeter=0;" edge="1" parent="1" source="IN8d0VnAYBJhFlT8Tgrd-146" target="IN8d0VnAYBJhFlT8Tgrd-252">
          <mxGeometry x="-113.8" y="-965" relative="1" as="geometry">
            <mxPoint x="-113.8" y="-965" as="offset" />
            <mxPoint x="530" y="550" as="sourcePoint" />
            <mxPoint x="519" y="523" as="targetPoint" />
          </mxGeometry>
        </mxCell>
        <mxCell id="IN8d0VnAYBJhFlT8Tgrd-300" value="" style="group" vertex="1" connectable="0" parent="1">
          <mxGeometry x="983" y="380" width="100" height="38" as="geometry" />
        </mxCell>
        <mxCell id="IN8d0VnAYBJhFlT8Tgrd-301" value="&lt;p style=&quot;align:left;margin-left:41;margin-right:0;margin-top:0px;margin-bottom:0px;text-indent:0;valign:middle;direction:ltr;&quot;&gt;&lt;/p&gt;" style="verticalAlign=middle;align=left;vsdxID=6;fillColor=#FFFFFF;gradientColor=none;shape=stencil(nZFRDoIwDIZP09dltAkcAPEeJAzXODcypuLt3RyJuAeivv1tvzZ/W6B21v2kAOUcvDurOw9BAx0Aka1WnkNUQB1QOzqvTt5d7ZDjqU9kUhd3SxOW3FdVAlMTyseakPIVHzNt2G7ptfgXvIeWLnbYz6HUCKJv4RpF3fzgolgvivcZRzYmf2FbL88eU/ll1D0B);strokeColor=#000000;spacingTop=1;spacingBottom=-1;spacingLeft=-1;spacingRight=-1;labelBackgroundColor=none;rounded=0;html=1;whiteSpace=wrap;" vertex="1" parent="IN8d0VnAYBJhFlT8Tgrd-300">
          <mxGeometry width="100" height="38" as="geometry" />
        </mxCell>
        <mxCell id="IN8d0VnAYBJhFlT8Tgrd-302" style="vsdxID=7;fillColor=#C0C0C0;gradientColor=none;shape=stencil(nZBNDoQgDIVP0z3SeALFe5iI0gwDBvHv9kIaM+rCxezea7++pA+wmkw7apBiisF/9EpdNIA1SEnO6EAxKUAFWPU+6CH42XXsxzaTWX39khM2vitFPpFiZ8uuYdKSu5B3sHwhH5mFeGHP5R+5NzKJ34s9WcsNXffPStKI60R1AA==);strokeColor=#000000;spacingTop=-3;spacingBottom=-3;spacingLeft=-3;spacingRight=-3;labelBackgroundColor=none;rounded=0;html=1;whiteSpace=wrap;" vertex="1" parent="IN8d0VnAYBJhFlT8Tgrd-300">
          <mxGeometry x="4.724409448818898" y="6" width="19.68503937007874" height="25" as="geometry" />
        </mxCell>
        <mxCell id="IN8d0VnAYBJhFlT8Tgrd-303" value="ID" style="verticalAlign=middle;align=center;vsdxID=8;fillColor=#FFFFFF;gradientColor=none;shape=stencil(nZBLDsIwDERP420U2RJV1qXco1JTYhGSKg2/25PUi1ZFLGA3Hj9b9gC1s+snC6jnnOLFPnjIDugIiBycTZyLAuqA2jEme07xFgapp76SVV3jvW54ypwxCusQ6pcYqA7NYpwE9xw2OOn/YdMoou/0xyW/8vtjili/Htl7CW3b36dULEmYujc=);strokeColor=none;spacingTop=1;spacingBottom=-1;spacingLeft=-1;spacingRight=-1;labelBackgroundColor=none;rounded=0;html=1;whiteSpace=wrap;" vertex="1" parent="IN8d0VnAYBJhFlT8Tgrd-300">
          <mxGeometry width="100" height="38" as="geometry" />
        </mxCell>
        <mxCell id="IN8d0VnAYBJhFlT8Tgrd-304" value="" style="group" vertex="1" connectable="0" parent="1">
          <mxGeometry x="983" y="430" width="100" height="38" as="geometry" />
        </mxCell>
        <mxCell id="IN8d0VnAYBJhFlT8Tgrd-305" value="&lt;p style=&quot;align:left;margin-left:41;margin-right:0;margin-top:0px;margin-bottom:0px;text-indent:0;valign:middle;direction:ltr;&quot;&gt;&lt;/p&gt;" style="verticalAlign=middle;align=left;vsdxID=6;fillColor=#FFFFFF;gradientColor=none;shape=stencil(nZFRDoIwDIZP09dltAkcAPEeJAzXODcypuLt3RyJuAeivv1tvzZ/W6B21v2kAOUcvDurOw9BAx0Aka1WnkNUQB1QOzqvTt5d7ZDjqU9kUhd3SxOW3FdVAlMTyseakPIVHzNt2G7ptfgXvIeWLnbYz6HUCKJv4RpF3fzgolgvivcZRzYmf2FbL88eU/ll1D0B);strokeColor=#000000;spacingTop=1;spacingBottom=-1;spacingLeft=-1;spacingRight=-1;labelBackgroundColor=none;rounded=0;html=1;whiteSpace=wrap;" vertex="1" parent="IN8d0VnAYBJhFlT8Tgrd-304">
          <mxGeometry width="100" height="38" as="geometry" />
        </mxCell>
        <mxCell id="IN8d0VnAYBJhFlT8Tgrd-306" style="vsdxID=7;fillColor=#C0C0C0;gradientColor=none;shape=stencil(nZBNDoQgDIVP0z3SeALFe5iI0gwDBvHv9kIaM+rCxezea7++pA+wmkw7apBiisF/9EpdNIA1SEnO6EAxKUAFWPU+6CH42XXsxzaTWX39khM2vitFPpFiZ8uuYdKSu5B3sHwhH5mFeGHP5R+5NzKJ34s9WcsNXffPStKI60R1AA==);strokeColor=#000000;spacingTop=-3;spacingBottom=-3;spacingLeft=-3;spacingRight=-3;labelBackgroundColor=none;rounded=0;html=1;whiteSpace=wrap;" vertex="1" parent="IN8d0VnAYBJhFlT8Tgrd-304">
          <mxGeometry x="4.724409448818898" y="6" width="19.68503937007874" height="25" as="geometry" />
        </mxCell>
        <mxCell id="IN8d0VnAYBJhFlT8Tgrd-307" value="&lt;span style=&quot;white-space: pre;&quot;&gt;	&lt;/span&gt;Description" style="verticalAlign=middle;align=center;vsdxID=8;fillColor=#FFFFFF;gradientColor=none;shape=stencil(nZBLDsIwDERP420U2RJV1qXco1JTYhGSKg2/25PUi1ZFLGA3Hj9b9gC1s+snC6jnnOLFPnjIDugIiBycTZyLAuqA2jEme07xFgapp76SVV3jvW54ypwxCusQ6pcYqA7NYpwE9xw2OOn/YdMoou/0xyW/8vtjili/Htl7CW3b36dULEmYujc=);strokeColor=none;spacingTop=1;spacingBottom=-1;spacingLeft=-1;spacingRight=-1;labelBackgroundColor=none;rounded=0;html=1;whiteSpace=wrap;" vertex="1" parent="IN8d0VnAYBJhFlT8Tgrd-304">
          <mxGeometry width="100" height="38" as="geometry" />
        </mxCell>
        <mxCell id="IN8d0VnAYBJhFlT8Tgrd-308" style="vsdxID=5;edgeStyle=none;startArrow=none;endArrow=block;startSize=5;endSize=7;strokeColor=#000000;spacingTop=0;spacingBottom=0;spacingLeft=0;spacingRight=0;verticalAlign=middle;html=1;labelBackgroundColor=#FFFFFF;rounded=0;exitX=1;exitY=0.346;exitDx=0;exitDy=0;exitPerimeter=0;" edge="1" parent="1" source="IN8d0VnAYBJhFlT8Tgrd-168">
          <mxGeometry x="-113.8" y="-965" relative="1" as="geometry">
            <mxPoint x="-113.8" y="-965" as="offset" />
            <mxPoint x="943" y="400" as="sourcePoint" />
            <mxPoint x="983" y="400" as="targetPoint" />
          </mxGeometry>
        </mxCell>
        <mxCell id="IN8d0VnAYBJhFlT8Tgrd-309" style="vsdxID=5;edgeStyle=none;startArrow=none;endArrow=block;startSize=5;endSize=7;strokeColor=#000000;spacingTop=0;spacingBottom=0;spacingLeft=0;spacingRight=0;verticalAlign=middle;html=1;labelBackgroundColor=#FFFFFF;rounded=0;" edge="1" parent="1">
          <mxGeometry x="-113.8" y="-965" relative="1" as="geometry">
            <mxPoint x="-113.8" y="-965" as="offset" />
            <mxPoint x="940" y="540" as="sourcePoint" />
            <mxPoint x="983" y="450" as="targetPoint" />
          </mxGeometry>
        </mxCell>
        <mxCell id="IN8d0VnAYBJhFlT8Tgrd-310" value="" style="group" vertex="1" connectable="0" parent="1">
          <mxGeometry x="691" y="600" width="100" height="38" as="geometry" />
        </mxCell>
        <mxCell id="IN8d0VnAYBJhFlT8Tgrd-311" value="&lt;p style=&quot;align:left;margin-left:41;margin-right:0;margin-top:0px;margin-bottom:0px;text-indent:0;valign:middle;direction:ltr;&quot;&gt;&lt;/p&gt;" style="verticalAlign=middle;align=left;vsdxID=6;fillColor=#FFFFFF;gradientColor=none;shape=stencil(nZFRDoIwDIZP09dltAkcAPEeJAzXODcypuLt3RyJuAeivv1tvzZ/W6B21v2kAOUcvDurOw9BAx0Aka1WnkNUQB1QOzqvTt5d7ZDjqU9kUhd3SxOW3FdVAlMTyseakPIVHzNt2G7ptfgXvIeWLnbYz6HUCKJv4RpF3fzgolgvivcZRzYmf2FbL88eU/ll1D0B);strokeColor=#000000;spacingTop=1;spacingBottom=-1;spacingLeft=-1;spacingRight=-1;labelBackgroundColor=none;rounded=0;html=1;whiteSpace=wrap;" vertex="1" parent="IN8d0VnAYBJhFlT8Tgrd-310">
          <mxGeometry width="100" height="38" as="geometry" />
        </mxCell>
        <mxCell id="IN8d0VnAYBJhFlT8Tgrd-312" style="vsdxID=7;fillColor=#C0C0C0;gradientColor=none;shape=stencil(nZBNDoQgDIVP0z3SeALFe5iI0gwDBvHv9kIaM+rCxezea7++pA+wmkw7apBiisF/9EpdNIA1SEnO6EAxKUAFWPU+6CH42XXsxzaTWX39khM2vitFPpFiZ8uuYdKSu5B3sHwhH5mFeGHP5R+5NzKJ34s9WcsNXffPStKI60R1AA==);strokeColor=#000000;spacingTop=-3;spacingBottom=-3;spacingLeft=-3;spacingRight=-3;labelBackgroundColor=none;rounded=0;html=1;whiteSpace=wrap;" vertex="1" parent="IN8d0VnAYBJhFlT8Tgrd-310">
          <mxGeometry x="4.724409448818898" y="6" width="19.68503937007874" height="25" as="geometry" />
        </mxCell>
        <mxCell id="IN8d0VnAYBJhFlT8Tgrd-313" value="ID" style="verticalAlign=middle;align=center;vsdxID=8;fillColor=#FFFFFF;gradientColor=none;shape=stencil(nZBLDsIwDERP420U2RJV1qXco1JTYhGSKg2/25PUi1ZFLGA3Hj9b9gC1s+snC6jnnOLFPnjIDugIiBycTZyLAuqA2jEme07xFgapp76SVV3jvW54ypwxCusQ6pcYqA7NYpwE9xw2OOn/YdMoou/0xyW/8vtjili/Htl7CW3b36dULEmYujc=);strokeColor=none;spacingTop=1;spacingBottom=-1;spacingLeft=-1;spacingRight=-1;labelBackgroundColor=none;rounded=0;html=1;whiteSpace=wrap;" vertex="1" parent="IN8d0VnAYBJhFlT8Tgrd-310">
          <mxGeometry width="100" height="38" as="geometry" />
        </mxCell>
        <mxCell id="IN8d0VnAYBJhFlT8Tgrd-314" value="" style="group" vertex="1" connectable="0" parent="1">
          <mxGeometry x="690" y="652" width="100" height="38" as="geometry" />
        </mxCell>
        <mxCell id="IN8d0VnAYBJhFlT8Tgrd-315" value="&lt;p style=&quot;align:left;margin-left:41;margin-right:0;margin-top:0px;margin-bottom:0px;text-indent:0;valign:middle;direction:ltr;&quot;&gt;&lt;/p&gt;" style="verticalAlign=middle;align=left;vsdxID=6;fillColor=#FFFFFF;gradientColor=none;shape=stencil(nZFRDoIwDIZP09dltAkcAPEeJAzXODcypuLt3RyJuAeivv1tvzZ/W6B21v2kAOUcvDurOw9BAx0Aka1WnkNUQB1QOzqvTt5d7ZDjqU9kUhd3SxOW3FdVAlMTyseakPIVHzNt2G7ptfgXvIeWLnbYz6HUCKJv4RpF3fzgolgvivcZRzYmf2FbL88eU/ll1D0B);strokeColor=#000000;spacingTop=1;spacingBottom=-1;spacingLeft=-1;spacingRight=-1;labelBackgroundColor=none;rounded=0;html=1;whiteSpace=wrap;" vertex="1" parent="IN8d0VnAYBJhFlT8Tgrd-314">
          <mxGeometry width="100" height="38" as="geometry" />
        </mxCell>
        <mxCell id="IN8d0VnAYBJhFlT8Tgrd-316" style="vsdxID=7;fillColor=#C0C0C0;gradientColor=none;shape=stencil(nZBNDoQgDIVP0z3SeALFe5iI0gwDBvHv9kIaM+rCxezea7++pA+wmkw7apBiisF/9EpdNIA1SEnO6EAxKUAFWPU+6CH42XXsxzaTWX39khM2vitFPpFiZ8uuYdKSu5B3sHwhH5mFeGHP5R+5NzKJ34s9WcsNXffPStKI60R1AA==);strokeColor=#000000;spacingTop=-3;spacingBottom=-3;spacingLeft=-3;spacingRight=-3;labelBackgroundColor=none;rounded=0;html=1;whiteSpace=wrap;" vertex="1" parent="IN8d0VnAYBJhFlT8Tgrd-314">
          <mxGeometry x="4.724409448818898" y="6" width="19.68503937007874" height="25" as="geometry" />
        </mxCell>
        <mxCell id="IN8d0VnAYBJhFlT8Tgrd-317" value="&lt;span style=&quot;white-space: pre;&quot;&gt;	&lt;/span&gt;Description" style="verticalAlign=middle;align=center;vsdxID=8;fillColor=#FFFFFF;gradientColor=none;shape=stencil(nZBLDsIwDERP420U2RJV1qXco1JTYhGSKg2/25PUi1ZFLGA3Hj9b9gC1s+snC6jnnOLFPnjIDugIiBycTZyLAuqA2jEme07xFgapp76SVV3jvW54ypwxCusQ6pcYqA7NYpwE9xw2OOn/YdMoou/0xyW/8vtjili/Htl7CW3b36dULEmYujc=);strokeColor=none;spacingTop=1;spacingBottom=-1;spacingLeft=-1;spacingRight=-1;labelBackgroundColor=none;rounded=0;html=1;whiteSpace=wrap;" vertex="1" parent="IN8d0VnAYBJhFlT8Tgrd-314">
          <mxGeometry width="100" height="38" as="geometry" />
        </mxCell>
      </root>
    </mxGraphModel>
  </diagram>
</mxfile>
